<svg width="19" height="19" viewBox="0 0 19 19" fill="none" xmlns="http://www.w3.org/2000/svg">
<path d="M3.05271 11.133L8.67771 5.50797C8.72995 5.45567 8.79199 5.41418 8.86027 5.38587C8.92856 5.35757 9.00175 5.343 9.07568 5.343C9.1496 5.343 9.22279 5.35757 9.29108 5.38587C9.35937 5.41418 9.4214 5.45567 9.47365 5.50797L15.0986 11.133C15.2042 11.2385 15.2635 11.3817 15.2635 11.5309C15.2635 11.6802 15.2042 11.8234 15.0986 11.9289C14.9931 12.0345 14.8499 12.0937 14.7007 12.0938C14.5514 12.0938 14.4083 12.0345 14.3027 11.9289L9.07568 6.70117L3.84864 11.9289C3.79638 11.9812 3.73434 12.0226 3.66605 12.0509C3.59777 12.0792 3.52458 12.0938 3.45068 12.0938C3.37677 12.0938 3.30358 12.0792 3.2353 12.0509C3.16701 12.0226 3.10497 11.9812 3.05271 11.9289C3.00044 11.8766 2.95899 11.8146 2.9307 11.7463C2.90242 11.678 2.88786 11.6048 2.88786 11.5309C2.88786 11.457 2.90242 11.3838 2.9307 11.3156C2.95899 11.2473 3.00044 11.1852 3.05271 11.133Z" fill="#007BFF"/>
</svg>
