<svg width="8" height="6" viewBox="0 0 8 6" fill="none" xmlns="http://www.w3.org/2000/svg">
<path d="M7.31753 0.183304C7.37564 0.24135 7.42174 0.31028 7.4532 0.386154C7.48465 0.462028 7.50084 0.543357 7.50084 0.625492C7.50084 0.707627 7.48465 0.788956 7.4532 0.86483C7.42174 0.940703 7.37564 1.00963 7.31753 1.06768L2.94254 5.44268C2.88449 5.50079 2.81556 5.54689 2.73968 5.57834C2.66381 5.6098 2.58248 5.62598 2.50035 5.62598C2.41821 5.62598 2.33688 5.6098 2.26101 5.57834C2.18514 5.54689 2.11621 5.50079 2.05816 5.44268L0.18316 3.56768C0.0658842 3.4504 0 3.29134 0 3.12549C0 2.95964 0.0658842 2.80058 0.18316 2.6833C0.300435 2.56603 0.459495 2.50014 0.625347 2.50014C0.7912 2.50014 0.95026 2.56603 1.06754 2.6833L2.50035 4.1169L6.43316 0.183304C6.4912 0.125194 6.56014 0.0790949 6.63601 0.0476422C6.71188 0.0161895 6.79321 0 6.87535 0C6.95748 0 7.03881 0.0161895 7.11468 0.0476422C7.19056 0.0790949 7.25949 0.125194 7.31753 0.183304Z" fill="#3395FF"/>
</svg>
