<svg width="30" height="30" viewBox="0 0 30 30" fill="none" xmlns="http://www.w3.org/2000/svg">
<path d="M26.7201 21.8009C26.7201 21.9744 26.6291 22.1353 26.4804 22.2248L16.3393 28.3264C16.1872 28.4179 15.9978 28.4209 15.8428 28.3343L11.1096 25.6891L25.9677 16.6268C26.2974 16.4257 26.7201 16.663 26.7201 17.0492L26.7201 21.8009Z" fill="url(#paint0_linear_1846_26596)"/>
<path d="M7.08891 10.9651C7.25447 10.7801 7.53151 10.7464 7.73657 10.8864L12.7631 14.3177C12.9306 14.4321 13.0114 14.6371 12.9668 14.835L12.1169 18.6117C12.04 18.9534 11.6421 19.1093 11.3536 18.9107L4.77764 14.3838C4.53204 14.2147 4.49066 13.8684 4.68949 13.6463L7.08891 10.9651Z" fill="url(#paint1_linear_1846_26596)"/>
<path d="M9.95955 19.7847C10.1293 19.6356 10.3784 19.6204 10.565 19.7478L15.6416 23.2133C15.8047 23.3246 15.886 23.5223 15.8484 23.7161L15.1677 27.2262C15.1028 27.5607 14.727 27.7311 14.4327 27.5594L6.42574 22.8886L9.95955 19.7847Z" fill="url(#paint2_linear_1846_26596)"/>
<path d="M4.5949 9.0761C4.5949 8.90222 4.68617 8.7411 4.83531 8.6517L15.5381 2.23633C15.6953 2.1421 15.8917 2.14249 16.0485 2.23734L19.5792 4.37261C19.8976 4.56518 19.8975 5.02709 19.579 5.2195L4.59501 14.2713L4.5949 9.0761Z" fill="url(#paint3_linear_1846_26596)"/>
<path d="M23.0922 7.68002C23.2359 7.59407 23.4133 7.58662 23.5637 7.66023L26.3138 9.00631C26.4835 9.08937 26.5911 9.2618 26.5911 9.45072L26.5911 11.6424C26.5911 11.8154 26.5007 11.9759 26.3527 12.0656L7.77031 23.3259C7.62319 23.415 7.44031 23.4214 7.28737 23.3426L5.03109 22.1807C4.86635 22.0959 4.76283 21.9261 4.76283 21.7408L4.76283 18.9656C4.76283 18.7922 4.8536 18.6314 5.00209 18.5419L13.2814 13.5486L23.0922 7.68002Z" fill="url(#paint4_linear_1846_26596)"/>
<defs>
<linearGradient id="paint0_linear_1846_26596" x1="11.1097" y1="28.4798" x2="29.4249" y2="17.6688" gradientUnits="userSpaceOnUse">
<stop offset="0.03" stop-color="#007BFF"/>
<stop offset="0.67" stop-color="#004A99"/>
</linearGradient>
<linearGradient id="paint1_linear_1846_26596" x1="14.4405" y1="14.0491" x2="3.91836" y2="13.0707" gradientUnits="userSpaceOnUse">
<stop offset="0.42" stop-color="#007BFF"/>
<stop offset="1" stop-color="#154165"/>
</linearGradient>
<linearGradient id="paint2_linear_1846_26596" x1="16.4566" y1="22.4544" x2="8.79164" y2="19.4819" gradientUnits="userSpaceOnUse">
<stop offset="0.32" stop-color="#007BFF"/>
<stop offset="0.965" stop-color="#154165"/>
</linearGradient>
<linearGradient id="paint3_linear_1846_26596" x1="3.72362" y1="13.059" x2="21.7558" y2="1.50592" gradientUnits="userSpaceOnUse">
<stop offset="0.0396427" stop-color="#007BFF"/>
<stop offset="0.49622" stop-color="#0062CC"/>
<stop offset="1" stop-color="#004A99"/>
</linearGradient>
<linearGradient id="paint4_linear_1846_26596" x1="28.5178" y1="7.51747" x2="9.12606" y2="26.5584" gradientUnits="userSpaceOnUse">
<stop offset="0.12" stop-color="#0450A2"/>
<stop offset="0.889049" stop-color="#007BFF"/>
</linearGradient>
</defs>
</svg>
