<svg width="18" height="18" viewBox="0 0 18 18" fill="none" xmlns="http://www.w3.org/2000/svg">
<path d="M10.852 15.0228L5.22696 9.39779C5.17466 9.34555 5.13317 9.28351 5.10487 9.21523C5.07656 9.14694 5.06199 9.07375 5.06199 8.99982C5.06199 8.9259 5.07656 8.85271 5.10487 8.78442C5.13317 8.71613 5.17466 8.6541 5.22696 8.60185L10.852 2.97686C10.9575 2.87131 11.1007 2.81201 11.2499 2.81201C11.3992 2.81201 11.5424 2.87131 11.6479 2.97686C11.7534 3.0824 11.8127 3.22556 11.8127 3.37482C11.8127 3.52409 11.7534 3.66725 11.6479 3.77279L6.42017 8.99982L11.6479 14.2269C11.7002 14.2791 11.7416 14.3412 11.7699 14.4094C11.7982 14.4777 11.8127 14.5509 11.8127 14.6248C11.8127 14.6987 11.7982 14.7719 11.7699 14.8402C11.7416 14.9085 11.7002 14.9705 11.6479 15.0228C11.5956 15.0751 11.5336 15.1165 11.4653 15.1448C11.397 15.1731 11.3238 15.1876 11.2499 15.1876C11.176 15.1876 11.1028 15.1731 11.0346 15.1448C10.9663 15.1165 10.9042 15.0751 10.852 15.0228Z" fill="#007BFF"/>
</svg>
