<svg width="18" height="18" viewBox="0 0 18 18" fill="none" xmlns="http://www.w3.org/2000/svg">
<path d="M16.476 15.6801L12.9555 12.1602C13.9759 10.9352 14.4847 9.36389 14.3761 7.77325C14.2675 6.1826 13.5498 4.69505 12.3724 3.62005C11.195 2.54506 9.64842 1.96538 8.05448 2.0016C6.46054 2.03783 4.94192 2.68717 3.81454 3.81454C2.68717 4.94192 2.03783 6.46054 2.0016 8.05448C1.96538 9.64842 2.54506 11.195 3.62005 12.3724C4.69505 13.5498 6.1826 14.2675 7.77325 14.3761C9.36389 14.4847 10.9352 13.9759 12.1602 12.9555L15.6801 16.476C15.7323 16.5283 15.7944 16.5697 15.8627 16.598C15.9309 16.6263 16.0041 16.6409 16.078 16.6409C16.152 16.6409 16.2251 16.6263 16.2934 16.598C16.3617 16.5697 16.4237 16.5283 16.476 16.476C16.5283 16.4237 16.5697 16.3617 16.598 16.2934C16.6263 16.2251 16.6409 16.152 16.6409 16.078C16.6409 16.0041 16.6263 15.9309 16.598 15.8627C16.5697 15.7944 16.5283 15.7323 16.476 15.6801ZM3.14054 8.20304C3.14054 7.20177 3.43745 6.22299 3.99373 5.39047C4.55 4.55794 5.34066 3.90907 6.26571 3.5259C7.19076 3.14273 8.20866 3.04248 9.19069 3.23782C10.1727 3.43315 11.0748 3.91531 11.7828 4.62331C12.4908 5.33132 12.9729 6.23337 13.1683 7.2154C13.3636 8.19743 13.2634 9.21533 12.8802 10.1404C12.497 11.0654 11.8481 11.8561 11.0156 12.4124C10.1831 12.9686 9.20431 13.2655 8.20304 13.2655C6.86084 13.2641 5.57404 12.7302 4.62496 11.7811C3.67588 10.832 3.14203 9.54524 3.14054 8.20304Z" fill="#757575"/>
</svg>
