<svg width="19" height="19" viewBox="0 0 19 19" fill="none" xmlns="http://www.w3.org/2000/svg">
<path d="M15.0987 7.42904L9.47372 13.054C9.42148 13.1063 9.35944 13.1478 9.29116 13.1761C9.22287 13.2044 9.14967 13.219 9.07575 13.219C9.00183 13.219 8.92863 13.2044 8.86035 13.1761C8.79206 13.1478 8.73002 13.1063 8.67778 13.054L3.05278 7.42904C2.94724 7.3235 2.88794 7.18034 2.88794 7.03107C2.88794 6.88181 2.94724 6.73865 3.05278 6.63311C3.15833 6.52756 3.30148 6.46826 3.45075 6.46826C3.60002 6.46826 3.74317 6.52756 3.84872 6.63311L9.07575 11.8608L14.3028 6.63311C14.355 6.58084 14.4171 6.53939 14.4854 6.5111C14.5537 6.48282 14.6268 6.46826 14.7008 6.46826C14.7747 6.46826 14.8478 6.48282 14.9161 6.5111C14.9844 6.53939 15.0465 6.58084 15.0987 6.63311C15.151 6.68537 15.1924 6.74741 15.2207 6.8157C15.249 6.88398 15.2636 6.95716 15.2636 7.03107C15.2636 7.10498 15.249 7.17817 15.2207 7.24645C15.1924 7.31474 15.151 7.37678 15.0987 7.42904Z" fill="#007BFF"/>
</svg>
