<svg width="24" height="24" viewBox="0 0 24 24" fill="none" xmlns="http://www.w3.org/2000/svg">
<circle cx="12" cy="12" r="12" fill="#FB4E4E"/>
<path d="M17.4605 16.6644C17.5127 16.7166 17.5542 16.7787 17.5825 16.8469C17.6108 16.9152 17.6253 16.9884 17.6253 17.0623C17.6253 17.1362 17.6108 17.2094 17.5825 17.2777C17.5542 17.346 17.5127 17.408 17.4605 17.4603C17.4082 17.5126 17.3462 17.554 17.2779 17.5823C17.2096 17.6106 17.1364 17.6251 17.0625 17.6251C16.9886 17.6251 16.9154 17.6106 16.8471 17.5823C16.7788 17.554 16.7168 17.5126 16.6645 17.4603L12 12.7951L7.33548 17.4603C7.22993 17.5658 7.08677 17.6251 6.93751 17.6251C6.78824 17.6251 6.64509 17.5658 6.53954 17.4603C6.43399 17.3547 6.37469 17.2116 6.37469 17.0623C6.37469 16.9131 6.43399 16.7699 6.53954 16.6644L11.2048 11.9998L6.53954 7.33529C6.43399 7.22975 6.37469 7.08659 6.37469 6.93732C6.37469 6.78806 6.43399 6.6449 6.53954 6.53936C6.64509 6.43381 6.78824 6.37451 6.93751 6.37451C7.08677 6.37451 7.22993 6.43381 7.33548 6.53936L12 11.2046L16.6645 6.53936C16.7701 6.43381 16.9132 6.37451 17.0625 6.37451C17.2118 6.37451 17.3549 6.43381 17.4605 6.53936C17.566 6.6449 17.6253 6.78806 17.6253 6.93732C17.6253 7.08659 17.566 7.22975 17.4605 7.33529L12.7952 11.9998L17.4605 16.6644Z" fill="white"/>
</svg>
