<svg width="24" height="24" viewBox="0 0 24 24" fill="none" xmlns="http://www.w3.org/2000/svg">
<circle cx="12" cy="12" r="12" fill="#61BB19"/>
<path d="M19.148 8.46029L10.148 17.4603C10.0957 17.5126 10.0337 17.5541 9.96541 17.5824C9.89713 17.6107 9.82393 17.6253 9.75001 17.6253C9.67609 17.6253 9.60289 17.6107 9.5346 17.5824C9.46632 17.5541 9.40428 17.5126 9.35204 17.4603L5.41454 13.5228C5.30899 13.4172 5.24969 13.2741 5.24969 13.1248C5.24969 12.9756 5.30899 12.8324 5.41454 12.7269C5.52009 12.6213 5.66324 12.562 5.81251 12.562C5.96177 12.562 6.10493 12.6213 6.21048 12.7269L9.75001 16.2671L18.352 7.66436C18.4576 7.55881 18.6007 7.49951 18.75 7.49951C18.8993 7.49951 19.0424 7.55881 19.148 7.66436C19.2535 7.7699 19.3128 7.91306 19.3128 8.06232C19.3128 8.21159 19.2535 8.35475 19.148 8.46029Z" fill="white"/>
</svg>
