<svg width="24" height="24" viewBox="0 0 24 24" fill="none" xmlns="http://www.w3.org/2000/svg">
<circle cx="12" cy="12" r="12" fill="#FFB03D"/>
<path d="M13.125 17.0625C13.125 17.285 13.059 17.5025 12.9354 17.6875C12.8118 17.8725 12.6361 18.0167 12.4305 18.1019C12.225 18.187 11.9988 18.2093 11.7805 18.1659C11.5623 18.1225 11.3618 18.0153 11.2045 17.858C11.0472 17.7007 10.94 17.5002 10.8966 17.282C10.8532 17.0637 10.8755 16.8375 10.9606 16.632C11.0458 16.4264 11.19 16.2507 11.375 16.1271C11.56 16.0035 11.7775 15.9375 12 15.9375C12.2984 15.9375 12.5845 16.056 12.7955 16.267C13.0065 16.478 13.125 16.7641 13.125 17.0625ZM12 14.25C12.1492 14.25 12.2923 14.1907 12.3977 14.0852C12.5032 13.9798 12.5625 13.8367 12.5625 13.6875V6.375C12.5625 6.22582 12.5032 6.08274 12.3977 5.97725C12.2923 5.87176 12.1492 5.8125 12 5.8125C11.8508 5.8125 11.7077 5.87176 11.6023 5.97725C11.4968 6.08274 11.4375 6.22582 11.4375 6.375V13.6875C11.4375 13.8367 11.4968 13.9798 11.6023 14.0852C11.7077 14.1907 11.8508 14.25 12 14.25Z" fill="white"/>
</svg>
