<svg width="45" height="49" viewBox="0 0 45 49" fill="none" xmlns="http://www.w3.org/2000/svg">
<g filter="url(#filter0_d_1047_15001)">
<mask id="path-1-outside-1_1047_15001" maskUnits="userSpaceOnUse" x="4" y="0" width="37" height="41" fill="black">
<rect fill="white" x="4" width="37" height="41"/>
<path fill-rule="evenodd" clip-rule="evenodd" d="M25.4575 34.8442C33.2107 33.4698 39.0988 26.6972 39.0988 18.5494C39.0988 9.40943 31.6894 2 22.5494 2C13.4094 2 6 9.40943 6 18.5494C6 26.8404 12.0968 33.7074 20.0517 34.9116L22.7587 38.0002L25.4575 34.8442Z"/>
</mask>
<path fill-rule="evenodd" clip-rule="evenodd" d="M25.4575 34.8442C33.2107 33.4698 39.0988 26.6972 39.0988 18.5494C39.0988 9.40943 31.6894 2 22.5494 2C13.4094 2 6 9.40943 6 18.5494C6 26.8404 12.0968 33.7074 20.0517 34.9116L22.7587 38.0002L25.4575 34.8442Z" fill="url(#paint0_linear_1047_15001)" fill-opacity="0.7" shape-rendering="crispEdges"/>
<path d="M25.4575 34.8442L25.1957 33.3672L24.6667 33.461L24.3175 33.8693L25.4575 34.8442ZM20.0517 34.9116L21.1798 33.9229L20.8184 33.5106L20.2762 33.4285L20.0517 34.9116ZM22.7587 38.0002L21.6307 38.9888L22.7727 40.2918L23.8987 38.975L22.7587 38.0002ZM37.5988 18.5494C37.5988 25.9572 32.2452 32.1176 25.1957 33.3672L25.7193 36.3211C34.1763 34.822 40.5988 27.4373 40.5988 18.5494H37.5988ZM22.5494 3.5C30.861 3.5 37.5988 10.2379 37.5988 18.5494H40.5988C40.5988 8.581 32.5178 0.5 22.5494 0.5V3.5ZM7.5 18.5494C7.5 10.2379 14.2379 3.5 22.5494 3.5V0.5C12.581 0.5 4.5 8.581 4.5 18.5494H7.5ZM20.2762 33.4285C13.0437 32.3336 7.5 26.0876 7.5 18.5494H4.5C4.5 27.5932 11.15 35.0811 19.8272 36.3947L20.2762 33.4285ZM23.8868 37.0115L21.1798 33.9229L18.9237 35.9003L21.6307 38.9888L23.8868 37.0115ZM24.3175 33.8693L21.6187 37.0253L23.8987 38.975L26.5975 35.819L24.3175 33.8693Z" fill="white" mask="url(#path-1-outside-1_1047_15001)"/>
</g>
<path d="M35.7207 18.5482C35.7207 25.8225 29.8237 31.7195 22.5494 31.7195C15.2751 31.7195 9.37817 25.8225 9.37817 18.5482C9.37817 11.2739 15.2751 5.37695 22.5494 5.37695C29.8237 5.37695 35.7207 11.2739 35.7207 18.5482Z" fill="url(#paint1_linear_1047_15001)" stroke="#14141A"/>
<path d="M21.6965 18.7891C21.6965 18.514 21.9195 18.291 22.1946 18.291C22.4696 18.291 22.6926 18.514 22.6926 18.7891V25.3347C22.6926 25.6098 22.4696 25.8328 22.1946 25.8328C21.9195 25.8328 21.6965 25.6098 21.6965 25.3347V18.7891Z" fill="white"/>
<path d="M23.4045 17.9361C23.4045 18.6041 22.863 19.1456 22.195 19.1456C21.527 19.1456 20.9855 18.6041 20.9855 17.9361C20.9855 17.2681 21.527 16.7266 22.195 16.7266C22.863 16.7266 23.4045 17.2681 23.4045 17.9361Z" fill="white"/>
<path fill-rule="evenodd" clip-rule="evenodd" d="M22.3624 15.088C21.8833 15.0834 21.4117 15.205 20.9959 15.4402C20.5802 15.6754 20.2352 16.0156 19.9958 16.4257C19.7564 16.8358 19.6312 17.3013 19.6324 17.7747C19.6337 18.2481 19.7615 18.7129 20.0031 19.1217C20.143 19.3585 20.0645 19.6639 19.8277 19.8038C19.5909 19.9437 19.2854 19.8652 19.1455 19.6284C18.8139 19.0672 18.6381 18.4285 18.6364 17.7774C18.6346 17.1263 18.807 16.4866 19.1355 15.9236L19.5657 16.1747L19.1355 15.9236C19.4641 15.3607 19.937 14.8949 20.5055 14.5732C21.0741 14.2517 21.7181 14.0857 22.372 14.092C23.0258 14.0983 23.6665 14.2766 24.2287 14.6091C24.7909 14.9417 25.2546 15.4166 25.5721 15.9857C25.8896 16.5549 26.0494 17.1978 26.0349 17.8488C26.0204 18.4997 25.8321 19.135 25.4897 19.6896C25.3451 19.9236 25.0383 19.9962 24.8042 19.8517C24.5702 19.7072 24.4976 19.4003 24.6421 19.1663C24.8917 18.7622 25.0285 18.2999 25.0391 17.8266C25.0496 17.3533 24.9334 16.8856 24.7022 16.471C24.4709 16.0564 24.1327 15.7096 23.7216 15.4665C23.3105 15.2233 22.8414 15.0926 22.3624 15.088Z" fill="white"/>
<path fill-rule="evenodd" clip-rule="evenodd" d="M25.0531 13.2725C24.1886 12.7587 23.1922 12.5006 22.1826 12.5295C21.1729 12.5584 20.1935 12.8731 19.3608 13.4354C18.5281 13.9977 17.8775 14.7837 17.4853 15.6993C17.0932 16.6147 16.9758 17.6218 17.1468 18.6008C17.3178 19.5799 17.7702 20.4906 18.451 21.2245C18.6381 21.4261 18.6263 21.7412 18.4246 21.9283C18.223 22.1154 17.9079 22.1036 17.7208 21.9019C16.91 21.028 16.3699 19.9418 16.1656 18.7722C15.9613 17.6026 16.1017 16.3998 16.5697 15.3071C17.0377 14.2145 17.8133 13.2785 18.8033 12.61C19.7933 11.9414 20.9564 11.5682 22.1541 11.5338C23.3517 11.4995 24.5346 11.8056 25.562 12.4163C26.5895 13.0269 27.4186 13.9168 27.9498 14.9806C28.4811 16.0445 28.6919 17.2372 28.5566 18.4166C28.4214 19.596 27.9459 20.7114 27.1876 21.6305C27.0125 21.8426 26.6986 21.8727 26.4865 21.6977C26.2743 21.5226 26.2442 21.2087 26.4193 20.9965C27.0557 20.2252 27.4538 19.2902 27.567 18.3031C27.6803 17.316 27.504 16.3173 27.0587 15.4256C26.6134 14.5339 25.9176 13.7863 25.0531 13.2725Z" fill="white"/>
<defs>
<filter id="filter0_d_1047_15001" x="0.5" y="0.5" width="44.0989" height="47.791" filterUnits="userSpaceOnUse" color-interpolation-filters="sRGB">
<feFlood flood-opacity="0" result="BackgroundImageFix"/>
<feColorMatrix in="SourceAlpha" type="matrix" values="0 0 0 0 0 0 0 0 0 0 0 0 0 0 0 0 0 0 127 0" result="hardAlpha"/>
<feOffset dy="4"/>
<feGaussianBlur stdDeviation="2"/>
<feComposite in2="hardAlpha" operator="out"/>
<feColorMatrix type="matrix" values="0 0 0 0 0 0 0 0 0 0 0 0 0 0 0 0 0 0 0.25 0"/>
<feBlend mode="normal" in2="BackgroundImageFix" result="effect1_dropShadow_1047_15001"/>
<feBlend mode="normal" in="SourceGraphic" in2="effect1_dropShadow_1047_15001" result="shape"/>
</filter>
<linearGradient id="paint0_linear_1047_15001" x1="22.5494" y1="2" x2="22.5494" y2="38" gradientUnits="userSpaceOnUse">
<stop stop-color="#828097"/>
<stop offset="1" stop-color="#575663"/>
</linearGradient>
<linearGradient id="paint1_linear_1047_15001" x1="22.5494" y1="4.87695" x2="22.5494" y2="32.2195" gradientUnits="userSpaceOnUse">
<stop stop-color="#58586F"/>
<stop offset="1" stop-color="#14141A"/>
</linearGradient>
</defs>
</svg>
