<svg width="24" height="24" viewBox="0 0 24 24" fill="none" xmlns="http://www.w3.org/2000/svg">
<path d="M10.7833 15.0059L19.3525 6.60829C19.4188 6.54328 19.4976 6.4917 19.5843 6.45651C19.671 6.42133 19.7639 6.40321 19.8577 6.40321C19.9515 6.40321 20.0444 6.42133 20.1311 6.45651C20.2178 6.4917 20.2966 6.54328 20.3629 6.60829C20.4293 6.67331 20.4819 6.7505 20.5178 6.83545C20.5537 6.9204 20.5722 7.01145 20.5722 7.1034C20.5722 7.19535 20.5537 7.2864 20.5178 7.37135C20.4819 7.4563 20.4293 7.53349 20.3629 7.59851L11.7938 15.9961C11.7274 16.0611 11.6486 16.1127 11.562 16.1479C11.4753 16.1831 11.3824 16.2012 11.2885 16.2012C11.1947 16.2012 11.1018 16.1831 11.0151 16.1479C10.9284 16.1127 10.8497 16.0611 10.7833 15.9961C10.717 15.9311 10.6643 15.8539 10.6284 15.769C10.5925 15.684 10.574 15.5929 10.574 15.501C10.574 15.409 10.5925 15.318 10.6284 15.233C10.6643 15.1481 10.717 15.0709 10.7833 15.0059ZM12.0026 9.2028C12.6229 9.20203 13.2392 9.30042 13.8271 9.49409C13.9164 9.52511 14.0111 9.53841 14.1057 9.53323C14.2002 9.52804 14.2928 9.50448 14.378 9.46389C14.4632 9.42331 14.5392 9.36653 14.6018 9.29686C14.6644 9.22718 14.7122 9.146 14.7425 9.05805C14.7727 8.97009 14.7848 8.87712 14.778 8.78454C14.7713 8.69196 14.7458 8.60162 14.7031 8.51878C14.6603 8.43595 14.6012 8.36228 14.5291 8.30205C14.4571 8.24182 14.3735 8.19624 14.2833 8.16797C13.1453 7.79201 11.9289 7.70337 10.7467 7.91025C9.56452 8.11713 8.45464 8.61284 7.51977 9.35154C6.5849 10.0902 5.85523 11.0481 5.39825 12.1364C4.94128 13.2247 4.77177 14.4084 4.9054 15.578C4.92472 15.749 5.00768 15.9071 5.13842 16.022C5.26917 16.1369 5.43853 16.2006 5.61415 16.2008C5.64003 16.2008 5.66681 16.2008 5.69359 16.1964C5.88178 16.176 6.05398 16.0831 6.17233 15.9383C6.29067 15.7934 6.34547 15.6085 6.32467 15.424C6.30143 15.2172 6.28981 15.0093 6.28986 14.8012C6.29151 13.3169 6.89392 11.8939 7.96492 10.8443C9.03591 9.79477 10.488 9.20442 12.0026 9.2028ZM20.9056 10.34C20.8628 10.2582 20.804 10.1855 20.7326 10.1259C20.6611 10.0664 20.5784 10.0213 20.4891 9.99309C20.3998 9.96491 20.3058 9.95423 20.2123 9.96166C20.1188 9.9691 20.0277 9.99451 19.9443 10.0364C19.8608 10.0784 19.7866 10.136 19.7259 10.206C19.6651 10.2761 19.6191 10.3571 19.5903 10.4446C19.5615 10.5321 19.5506 10.6243 19.5582 10.7159C19.5658 10.8075 19.5918 10.8968 19.6345 10.9785C20.1628 11.9952 20.4748 13.1065 20.5516 14.245C20.6283 15.3835 20.4681 16.5253 20.0808 17.6013L3.91549 17.5952C3.46447 16.3282 3.32903 14.9739 3.52045 13.6453C3.71187 12.3166 4.2246 11.052 5.01592 9.95693C5.80723 8.86186 6.8542 7.96801 8.06954 7.34991C9.28487 6.73181 10.6334 6.40736 12.0026 6.4036H12.0812C13.4111 6.4118 14.7204 6.72643 15.9034 7.32209C15.9871 7.36723 16.0792 7.39545 16.1742 7.40509C16.2692 7.41473 16.3652 7.40558 16.4566 7.3782C16.5479 7.35082 16.6327 7.30576 16.706 7.24568C16.7792 7.18559 16.8395 7.11172 16.8831 7.02843C16.9267 6.94513 16.9528 6.85411 16.9598 6.76076C16.9669 6.6674 16.9548 6.5736 16.9242 6.48491C16.8936 6.39623 16.8452 6.31446 16.7817 6.24445C16.7183 6.17444 16.6412 6.11761 16.555 6.07732C14.7742 5.18344 12.7606 4.83376 10.7748 5.07354C8.78902 5.31331 6.9223 6.13149 5.41616 7.42226C3.91001 8.71302 2.83373 10.417 2.32654 12.3137C1.81935 14.2104 1.90457 16.2127 2.5712 18.0614C2.66968 18.3353 2.8523 18.5726 3.09397 18.7407C3.33564 18.9087 3.6245 18.9993 3.92084 19H20.0835C20.3797 19.0002 20.6686 18.9101 20.9103 18.7423C21.1519 18.5744 21.3343 18.3371 21.4323 18.0631C21.8827 16.8078 22.0682 15.4759 21.9777 14.1482C21.8872 12.8204 21.5224 11.5246 20.9056 10.3391V10.34Z" fill="#616161"/>
</svg>
