<svg width="45" height="49" viewBox="0 0 45 49" fill="none" xmlns="http://www.w3.org/2000/svg">
<g filter="url(#filter0_d_1047_15758)">
<mask id="path-1-outside-1_1047_15758" maskUnits="userSpaceOnUse" x="4" y="0" width="37" height="41" fill="black">
<rect fill="white" x="4" width="37" height="41"/>
<path fill-rule="evenodd" clip-rule="evenodd" d="M25.4581 34.8451C33.2115 33.4707 39.0998 26.6979 39.0998 18.5499C39.0998 9.40964 31.6901 2 22.5499 2C13.4096 2 6 9.40964 6 18.5499C6 26.8414 12.0974 33.7087 20.0529 34.9126L22.7595 38.0008L25.4581 34.8451Z"/>
</mask>
<path fill-rule="evenodd" clip-rule="evenodd" d="M25.4581 34.8451C33.2115 33.4707 39.0998 26.6979 39.0998 18.5499C39.0998 9.40964 31.6901 2 22.5499 2C13.4096 2 6 9.40964 6 18.5499C6 26.8414 12.0974 33.7087 20.0529 34.9126L22.7595 38.0008L25.4581 34.8451Z" fill="url(#paint0_linear_1047_15758)" fill-opacity="0.7" shape-rendering="crispEdges"/>
<path d="M25.4581 34.8451L25.1963 33.3681L24.6672 33.4619L24.318 33.8702L25.4581 34.8451ZM20.0529 34.9126L21.1809 33.924L20.8195 33.5116L20.2773 33.4295L20.0529 34.9126ZM22.7595 38.0008L21.6315 38.9895L22.7735 40.2925L23.8995 38.9757L22.7595 38.0008ZM37.5998 18.5499C37.5998 25.9579 32.246 32.1185 25.1963 33.3681L25.7199 36.3221C34.1771 34.8229 40.5998 27.438 40.5998 18.5499H37.5998ZM22.5499 3.5C30.8617 3.5 37.5998 10.2381 37.5998 18.5499H40.5998C40.5998 8.58121 32.5186 0.5 22.5499 0.5V3.5ZM7.5 18.5499C7.5 10.2381 14.2381 3.5 22.5499 3.5V0.5C12.5812 0.5 4.5 8.58121 4.5 18.5499H7.5ZM20.2773 33.4295C13.0442 32.3349 7.5 26.0885 7.5 18.5499H4.5C4.5 27.5942 11.1506 35.0825 19.8284 36.3958L20.2773 33.4295ZM23.8876 37.0121L21.1809 33.924L18.9248 35.9013L21.6315 38.9895L23.8876 37.0121ZM24.318 33.8702L21.6195 37.026L23.8995 38.9757L26.5981 35.82L24.318 33.8702Z" fill="white" mask="url(#path-1-outside-1_1047_15758)"/>
</g>
<circle cx="22.5503" cy="18.5486" r="13.1717" fill="url(#paint1_linear_1047_15758)" stroke="#14141A"/>
<path fill-rule="evenodd" clip-rule="evenodd" d="M18.2617 20.9887H18.3325L17.7 29.0069C18.0521 28.9152 18.4082 28.8374 18.7661 28.767L19.1689 23.6605L21.5373 26.3446L19.5183 28.6326C20.0282 28.5545 20.5431 28.5018 21.0607 28.4678L22.2357 27.1361L23.4108 28.4678C23.9282 28.5018 24.443 28.5545 24.9528 28.6325L22.9342 26.3446L25.2716 23.6956L25.6543 28.7576C26.0118 28.8268 26.3673 28.9039 26.7191 28.9943L26.2281 22.4985C26.2448 22.4078 26.2377 22.3143 26.2074 22.2271L25.8741 17.8174L25.8665 17.7931V17.7157L25.8608 17.6414H25.8665V16.6096L25.8715 16.5894H25.7813L25.5398 13.3934C25.5394 13.3888 25.5385 13.3844 25.5376 13.38C25.5368 13.3764 25.5361 13.3729 25.5356 13.3693C25.5335 13.3522 25.5306 13.3354 25.5269 13.3185C25.5232 13.3019 25.5188 13.2858 25.5137 13.2698C25.5087 13.2544 25.5031 13.2395 25.4967 13.2246C25.4899 13.2088 25.4823 13.1936 25.4741 13.1786C25.4663 13.1646 25.4582 13.1509 25.4492 13.1375C25.4393 13.1231 25.4287 13.1095 25.4175 13.0962C25.4075 13.0842 25.3975 13.0724 25.3864 13.0612C25.3726 13.0478 25.3581 13.0351 25.3429 13.0233C25.3395 13.0205 25.3363 13.0175 25.3331 13.0145C25.3289 13.0106 25.3247 13.0066 25.3198 13.0031C25.318 13.0019 25.3161 13.0009 25.3142 12.9999C25.3125 12.9991 25.3108 12.9982 25.3092 12.9971C25.2917 12.9858 25.2736 12.9755 25.2549 12.9663C25.2509 12.9643 25.2469 12.9621 25.243 12.96C25.2355 12.9559 25.228 12.9518 25.2202 12.9485C25.202 12.9414 25.1833 12.9353 25.1644 12.9303C25.1598 12.929 25.1552 12.9275 25.1506 12.926C25.1419 12.9232 25.1332 12.9203 25.1243 12.9185C25.113 12.9162 25.1013 12.9151 25.0896 12.9141C25.0847 12.9137 25.0797 12.9133 25.0749 12.9127C25.07 12.9122 25.0652 12.9116 25.0604 12.911C25.0484 12.9095 25.0364 12.908 25.0243 12.9078L25.0194 12.9074H22.7576V10.4483C23.1059 10.3251 23.3994 10.0829 23.5863 9.7643C23.7732 9.44571 23.8414 9.0713 23.779 8.70726C23.7165 8.34322 23.5273 8.01297 23.245 7.7749C22.9626 7.53683 22.6051 7.40625 22.2357 7.40625C21.8664 7.40625 21.5089 7.53683 21.2265 7.7749C20.9441 8.01297 20.7549 8.34322 20.6925 8.70726C20.63 9.0713 20.6983 9.44571 20.8852 9.7643C21.0721 10.0829 21.3656 10.3251 21.7138 10.4483V12.9074H19.4584C19.377 12.9057 19.2963 12.9239 19.2235 12.9604C19.1917 12.976 19.1617 12.9949 19.1338 13.0167C19.0705 13.0655 19.0194 13.1282 18.9842 13.1999C18.9573 13.2547 18.9402 13.3138 18.9335 13.3744L18.9333 13.3758C18.9326 13.3824 18.9319 13.389 18.9314 13.3955L18.6269 17.2567L18.6338 17.2671L18.5247 18.3586H18.5399L18.4154 19.9366H18.3669L18.2617 20.9887ZM19.4212 22.3634L22.2357 25.5531L25.0502 22.3634L22.2357 18.3333L19.4212 22.3634ZM22.874 17.4193L25.0308 20.5076L24.6094 14.9344L22.874 17.4193ZM22.5291 8.5229C22.442 8.46559 22.3399 8.43544 22.2357 8.43625C22.0968 8.43695 21.9638 8.49273 21.866 8.59134C21.7682 8.68995 21.7134 8.82335 21.7138 8.96226C21.7138 9.06647 21.7448 9.16834 21.8027 9.25493C21.8607 9.34153 21.9431 9.40895 22.0395 9.44864C22.1358 9.48833 22.2418 9.49851 22.344 9.47788C22.4461 9.45725 22.5398 9.40674 22.6132 9.33276C22.6866 9.25878 22.7364 9.16467 22.7562 9.06236C22.7761 8.96005 22.7651 8.85416 22.7246 8.75812C22.6842 8.66207 22.6161 8.5802 22.5291 8.5229ZM22.2357 16.5053L24.0137 13.9593H20.4577L22.2357 16.5053ZM21.5975 17.4192L19.8578 14.9281L19.4147 20.5448L21.5975 17.4192Z" fill="white"/>
<defs>
<filter id="filter0_d_1047_15758" x="0.5" y="0.5" width="44.0999" height="47.793" filterUnits="userSpaceOnUse" color-interpolation-filters="sRGB">
<feFlood flood-opacity="0" result="BackgroundImageFix"/>
<feColorMatrix in="SourceAlpha" type="matrix" values="0 0 0 0 0 0 0 0 0 0 0 0 0 0 0 0 0 0 127 0" result="hardAlpha"/>
<feOffset dy="4"/>
<feGaussianBlur stdDeviation="2"/>
<feComposite in2="hardAlpha" operator="out"/>
<feColorMatrix type="matrix" values="0 0 0 0 0 0 0 0 0 0 0 0 0 0 0 0 0 0 0.25 0"/>
<feBlend mode="normal" in2="BackgroundImageFix" result="effect1_dropShadow_1047_15758"/>
<feBlend mode="normal" in="SourceGraphic" in2="effect1_dropShadow_1047_15758" result="shape"/>
</filter>
<linearGradient id="paint0_linear_1047_15758" x1="22.5499" y1="2" x2="22.5499" y2="38.0008" gradientUnits="userSpaceOnUse">
<stop stop-color="#828097"/>
<stop offset="1" stop-color="#575663"/>
</linearGradient>
<linearGradient id="paint1_linear_1047_15758" x1="22.5503" y1="4.87695" x2="22.5503" y2="32.2203" gradientUnits="userSpaceOnUse">
<stop stop-color="#58586F"/>
<stop offset="1" stop-color="#14141A"/>
</linearGradient>
</defs>
</svg>
