<svg width="661" height="661" viewBox="0 0 661 661" fill="none" xmlns="http://www.w3.org/2000/svg">
<mask id="mask0_1746_8557" style="mask-type:alpha" maskUnits="userSpaceOnUse" x="8" y="4" width="645" height="645">
<rect x="8" y="4" width="645" height="645" fill="white"/>
</mask>
<g mask="url(#mask0_1746_8557)">
<rect x="-703.5" y="-15.5" width="1438" height="739" fill="#F2F2F2" stroke="#DCDCDC"/>
<line x1="650.5" y1="-16" x2="650.5" y2="724" stroke="#DCDCDC"/>
<line x1="610.5" y1="-16" x2="610.5" y2="724" stroke="#DCDCDC"/>
<line x1="570.5" y1="-16" x2="570.5" y2="724" stroke="#DCDCDC"/>
<line x1="530.5" y1="-16" x2="530.5" y2="724" stroke="#DCDCDC"/>
<line x1="490.5" y1="-16" x2="490.5" y2="724" stroke="#DCDCDC"/>
<line x1="450.5" y1="-16" x2="450.5" y2="724" stroke="#DCDCDC"/>
<line x1="410.5" y1="-16" x2="410.5" y2="724" stroke="#DCDCDC"/>
<line x1="370.5" y1="-16" x2="370.5" y2="724" stroke="#DCDCDC"/>
<line x1="330.5" y1="-16" x2="330.5" y2="724" stroke="#DCDCDC"/>
<line x1="290.5" y1="-16" x2="290.5" y2="724" stroke="#DCDCDC"/>
<line x1="250.5" y1="-16" x2="250.5" y2="724" stroke="#DCDCDC"/>
<line x1="210.5" y1="-16" x2="210.5" y2="724" stroke="#DCDCDC"/>
<line x1="170.5" y1="-16" x2="170.5" y2="724" stroke="#DCDCDC"/>
<line x1="130.5" y1="-16" x2="130.5" y2="724" stroke="#DCDCDC"/>
<line x1="90.5" y1="-16" x2="90.5" y2="724" stroke="#DCDCDC"/>
<line x1="50.5" y1="-16" x2="50.5" y2="724" stroke="#DCDCDC"/>
<line x1="10.5" y1="-16" x2="10.5" y2="724" stroke="#DCDCDC"/>
<line x1="-704" y1="43.5" x2="735" y2="43.5" stroke="#DCDCDC"/>
<line x1="-704" y1="83.5" x2="735" y2="83.5" stroke="#DCDCDC"/>
<line x1="-704" y1="123.5" x2="735" y2="123.5" stroke="#DCDCDC"/>
<line x1="-704" y1="163.5" x2="735" y2="163.5" stroke="#DCDCDC"/>
<line x1="-704" y1="203.5" x2="735" y2="203.5" stroke="#DCDCDC"/>
<line x1="-704" y1="243.5" x2="735" y2="243.5" stroke="#DCDCDC"/>
<line x1="-704" y1="283.5" x2="735" y2="283.5" stroke="#DCDCDC"/>
<line x1="-704" y1="323.5" x2="735" y2="323.5" stroke="#DCDCDC"/>
<line x1="-704" y1="363.5" x2="735" y2="363.5" stroke="#DCDCDC"/>
<line x1="-704" y1="403.5" x2="735" y2="403.5" stroke="#DCDCDC"/>
<line x1="-704" y1="443.5" x2="735" y2="443.5" stroke="#DCDCDC"/>
<line x1="-704" y1="483.5" x2="735" y2="483.5" stroke="#DCDCDC"/>
<line x1="-704" y1="523.5" x2="735" y2="523.5" stroke="#DCDCDC"/>
<line x1="-704" y1="563.5" x2="735" y2="563.5" stroke="#DCDCDC"/>
<line x1="-704" y1="603.5" x2="735" y2="603.5" stroke="#DCDCDC"/>
<line x1="-704" y1="643.5" x2="735" y2="643.5" stroke="#DCDCDC"/>
</g>
</svg>
