<svg width="40" height="40" viewBox="0 0 40 40" fill="none" xmlns="http://www.w3.org/2000/svg">
<circle opacity="0.2" cx="20" cy="20" r="20" fill="#18D3CC"/>
<circle cx="20" cy="20" r="12" fill="#18D3CC"/>
<path d="M19.961 14.2727C19.4216 14.2727 18.8943 14.4327 18.4458 14.7324C17.9973 15.032 17.6477 15.458 17.4413 15.9563C17.2349 16.4547 17.1808 17.003 17.2861 17.5321C17.3913 18.0611 17.6511 18.5471 18.0325 18.9285C18.4139 19.3099 18.8999 19.5697 19.4289 19.6749C19.9579 19.7801 20.5063 19.7261 21.0046 19.5197C21.503 19.3133 21.9289 18.9637 22.2286 18.5152C22.5283 18.0667 22.6882 17.5394 22.6882 17C22.6882 16.2767 22.4009 15.583 21.8894 15.0715C21.378 14.5601 20.6843 14.2727 19.961 14.2727ZM19.961 18.6364C19.6373 18.6364 19.3209 18.5404 19.0518 18.3606C18.7827 18.1808 18.573 17.9252 18.4492 17.6262C18.3253 17.3272 18.2929 16.9982 18.356 16.6808C18.4192 16.3634 18.575 16.0718 18.8039 15.8429C19.0327 15.6141 19.3243 15.4582 19.6417 15.3951C19.9591 15.332 20.2882 15.3644 20.5872 15.4882C20.8862 15.6121 21.1417 15.8218 21.3216 16.0909C21.5014 16.36 21.5973 16.6764 21.5973 17C21.5973 17.434 21.4249 17.8502 21.118 18.1571C20.8112 18.464 20.395 18.6364 19.961 18.6364ZM19.961 11C18.3702 11.0018 16.8451 11.6345 15.7203 12.7594C14.5955 13.8842 13.9627 15.4093 13.9609 17C13.9609 19.1409 14.9503 21.41 16.8246 23.5625C17.6668 24.5352 18.6147 25.4111 19.6507 26.1739C19.7424 26.2382 19.8517 26.2726 19.9637 26.2726C20.0757 26.2726 20.1849 26.2382 20.2766 26.1739C21.3108 25.4107 22.2568 24.5349 23.0973 23.5625C24.9689 21.41 25.961 19.1409 25.961 17C25.9592 15.4093 25.3265 13.8842 24.2016 12.7594C23.0768 11.6345 21.5517 11.0018 19.961 11ZM19.961 25.0455C18.8339 24.1591 15.0519 20.9034 15.0519 17C15.0519 15.698 15.5691 14.4494 16.4897 13.5288C17.4103 12.6081 18.659 12.0909 19.961 12.0909C21.2629 12.0909 22.5116 12.6081 23.4322 13.5288C24.3529 14.4494 24.8701 15.698 24.8701 17C24.8701 20.9021 21.088 24.1591 19.961 25.0455Z" fill="white"/>
<path fill-rule="evenodd" clip-rule="evenodd" d="M25.6901 22.178C25.9719 22.0714 26.2867 22.2134 26.3933 22.4951L28.5752 28.2614C28.6386 28.429 28.6156 28.617 28.5138 28.7645C28.4119 28.9119 28.2442 28.9999 28.065 28.9999H11.5455C11.364 28.9999 11.1944 28.9097 11.0931 28.7592C10.9917 28.6087 10.9718 28.4177 11.04 28.2495L13.3776 22.4833C13.4908 22.2041 13.8089 22.0695 14.0881 22.1827C14.3672 22.2959 14.5018 22.6139 14.3886 22.8931L12.3552 27.909H27.2754L25.373 22.8812C25.2664 22.5995 25.4084 22.2846 25.6901 22.178Z" fill="white"/>
</svg>
