<svg width="40" height="40" viewBox="0 0 40 40" fill="none" xmlns="http://www.w3.org/2000/svg">
<circle opacity="0.2" cx="20" cy="20" r="20" fill="#18D3CC"/>
<circle cx="20" cy="20" r="12" fill="#18D3CC"/>
<path d="M20 12.125C18.3595 12.1269 16.7868 12.7794 15.6268 13.9393C14.4669 15.0993 13.8144 16.672 13.8125 18.3125C13.8125 23.607 19.4375 27.6057 19.6773 27.773C19.7718 27.8393 19.8845 27.8748 20 27.8748C20.1155 27.8748 20.2282 27.8393 20.3227 27.773C20.5625 27.6057 26.1875 23.607 26.1875 18.3125C26.1856 16.672 25.5331 15.0993 24.3732 13.9393C23.2132 12.7794 21.6405 12.1269 20 12.125ZM20 16.0625C20.445 16.0625 20.88 16.1945 21.25 16.4417C21.62 16.6889 21.9084 17.0403 22.0787 17.4515C22.249 17.8626 22.2936 18.315 22.2068 18.7515C22.12 19.1879 21.9057 19.5888 21.591 19.9035C21.2763 20.2182 20.8754 20.4325 20.439 20.5193C20.0025 20.6061 19.5501 20.5615 19.139 20.3912C18.7278 20.2209 18.3764 19.9325 18.1292 19.5625C17.882 19.1925 17.75 18.7575 17.75 18.3125C17.75 17.7158 17.9871 17.1435 18.409 16.7215C18.831 16.2996 19.4033 16.0625 20 16.0625Z" fill="white"/>
</svg>
