<svg width="18" height="18" viewBox="0 0 18 18" fill="none" xmlns="http://www.w3.org/2000/svg">
<path d="M7.14791 2.97721L12.7729 8.60221C12.8252 8.65445 12.8667 8.71648 12.895 8.78477C12.9233 8.85306 12.9379 8.92625 12.9379 9.00018C12.9379 9.0741 12.9233 9.14729 12.895 9.21558C12.8667 9.28387 12.8252 9.3459 12.7729 9.39814L7.14792 15.0231C7.04237 15.1287 6.89921 15.188 6.74995 15.188C6.60068 15.188 6.45753 15.1287 6.35198 15.0231C6.24643 14.9176 6.18713 14.7744 6.18713 14.6252C6.18713 14.4759 6.24643 14.3328 6.35198 14.2272L11.5797 9.00018L6.35198 3.77314C6.29972 3.72088 6.25826 3.65884 6.22997 3.59055C6.20169 3.52227 6.18713 3.44908 6.18713 3.37518C6.18713 3.30127 6.20169 3.22808 6.22997 3.1598C6.25826 3.09151 6.29971 3.02947 6.35198 2.97721C6.40424 2.92494 6.46628 2.88349 6.53457 2.8552C6.60285 2.82692 6.67604 2.81236 6.74995 2.81236C6.82386 2.81236 6.89704 2.82692 6.96533 2.8552C7.03361 2.88349 7.09565 2.92494 7.14791 2.97721Z" fill="#007BFF"/>
</svg>
