<svg width="18" height="18" viewBox="0 0 18 18" fill="none" xmlns="http://www.w3.org/2000/svg">
<path d="M10.8521 15.0228L5.22708 9.39779C5.17479 9.34555 5.1333 9.28351 5.10499 9.21523C5.07668 9.14694 5.06211 9.07375 5.06211 8.99982C5.06211 8.9259 5.07668 8.85271 5.10499 8.78442C5.1333 8.71613 5.17479 8.6541 5.22708 8.60185L10.8521 2.97686C10.9576 2.87131 11.1008 2.81201 11.2501 2.81201C11.3993 2.81201 11.5425 2.87131 11.648 2.97686C11.7536 3.0824 11.8129 3.22556 11.8129 3.37482C11.8129 3.52409 11.7536 3.66725 11.648 3.77279L6.42029 8.99982L11.648 14.2269C11.7003 14.2791 11.7417 14.3412 11.77 14.4094C11.7983 14.4777 11.8129 14.5509 11.8129 14.6248C11.8129 14.6987 11.7983 14.7719 11.77 14.8402C11.7417 14.9085 11.7003 14.9705 11.648 15.0228C11.5958 15.0751 11.5337 15.1165 11.4654 15.1448C11.3971 15.1731 11.324 15.1876 11.2501 15.1876C11.1761 15.1876 11.103 15.1731 11.0347 15.1448C10.9664 15.1165 10.9043 15.0751 10.8521 15.0228Z" fill="#007BFF"/>
</svg>
