<svg width="24" height="24" viewBox="0 0 24 24" fill="none" xmlns="http://www.w3.org/2000/svg">
<path d="M21.75 8.99981C21.7511 10.1224 21.4723 11.2275 20.9387 12.2152C20.405 13.2028 19.6335 14.0418 18.694 14.6561C17.7544 15.2704 16.6765 15.6407 15.5577 15.7335C14.439 15.8263 13.3148 15.6385 12.2869 15.1873L7.40625 20.8329C7.395 20.8461 7.38188 20.8601 7.36969 20.8723C6.80702 21.435 6.04387 21.7511 5.24813 21.7511C4.45239 21.7511 3.68924 21.435 3.12657 20.8723C2.56389 20.3096 2.24779 19.5465 2.24779 18.7508C2.24779 17.955 2.56389 17.1919 3.12657 16.6292C3.13969 16.617 3.15282 16.6039 3.16688 16.5926L8.8125 11.7129C8.30669 10.5559 8.13525 9.28023 8.31764 8.03069C8.50003 6.78115 9.02894 5.60772 9.84438 4.64353C10.6598 3.67933 11.7292 2.96294 12.9311 2.57564C14.133 2.18833 15.4194 2.14561 16.6444 2.45231C16.7707 2.48396 16.8865 2.54794 16.9806 2.63794C17.0746 2.72795 17.1436 2.84089 17.1808 2.96565C17.218 3.09041 17.222 3.2227 17.1926 3.34951C17.1631 3.47632 17.1012 3.59327 17.0128 3.68888L13.5 7.49981L14.0306 9.97013L16.5 10.4998L20.3109 6.98231C20.4065 6.89395 20.5235 6.832 20.6503 6.80254C20.7771 6.77308 20.9094 6.77714 21.0342 6.81431C21.1589 6.85149 21.2719 6.9205 21.3619 7.01455C21.4519 7.10861 21.5159 7.22447 21.5475 7.35075C21.6821 7.89011 21.7501 8.44392 21.75 8.99981Z" fill="#F45280"/>
</svg>
