<svg width="84" height="84" viewBox="0 0 84 84" fill="none" xmlns="http://www.w3.org/2000/svg">
<path fill-rule="evenodd" clip-rule="evenodd" d="M42.0017 51.395C47.2809 51.395 51.5605 47.1154 51.5605 41.8362C51.5605 36.557 47.2809 32.2774 42.0017 32.2774C36.7225 32.2774 32.4429 36.557 32.4429 41.8362C32.4429 47.1154 36.7225 51.395 42.0017 51.395ZM42.0017 53.916C48.6732 53.916 54.0815 48.5077 54.0815 41.8362C54.0815 35.1647 48.6732 29.7563 42.0017 29.7563C35.3302 29.7563 29.9219 35.1647 29.9219 41.8362C29.9219 48.5077 35.3302 53.916 42.0017 53.916Z" fill="#616161"/>
<path fill-rule="evenodd" clip-rule="evenodd" d="M42.0009 24.5042C44.2054 24.5042 45.9925 22.7171 45.9925 20.5126C45.9925 18.3081 44.2054 16.521 42.0009 16.521C39.7964 16.521 38.0093 18.3081 38.0093 20.5126C38.0093 22.7171 39.7964 24.5042 42.0009 24.5042ZM42.0009 27.0252C45.5977 27.0252 48.5135 24.1094 48.5135 20.5126C48.5135 16.9158 45.5977 14 42.0009 14C38.4041 14 35.4883 16.9158 35.4883 20.5126C35.4883 24.1094 38.4041 27.0252 42.0009 27.0252Z" fill="#616161"/>
<path fill-rule="evenodd" clip-rule="evenodd" d="M23.5126 35.2186C25.7171 35.2186 27.5042 33.4315 27.5042 31.227C27.5042 29.0225 25.7171 27.2354 23.5126 27.2354C21.3081 27.2354 19.521 29.0225 19.521 31.227C19.521 33.4315 21.3081 35.2186 23.5126 35.2186ZM23.5126 37.7396C27.1094 37.7396 30.0252 34.8238 30.0252 31.227C30.0252 27.6301 27.1094 24.7144 23.5126 24.7144C19.9158 24.7144 17 27.6301 17 31.227C17 34.8238 19.9158 37.7396 23.5126 37.7396Z" fill="#616161"/>
<path fill-rule="evenodd" clip-rule="evenodd" d="M60.4892 35.2186C62.6937 35.2186 64.4808 33.4315 64.4808 31.227C64.4808 29.0225 62.6937 27.2354 60.4892 27.2354C58.2847 27.2354 56.4976 29.0225 56.4976 31.227C56.4976 33.4315 58.2847 35.2186 60.4892 35.2186ZM60.4892 37.7396C64.086 37.7396 67.0018 34.8238 67.0018 31.227C67.0018 27.6301 64.086 24.7144 60.4892 24.7144C56.8924 24.7144 53.9766 27.6301 53.9766 31.227C53.9766 34.8238 56.8924 37.7396 60.4892 37.7396Z" fill="#616161"/>
<path fill-rule="evenodd" clip-rule="evenodd" d="M60.4892 56.542C62.6937 56.542 64.4808 54.7549 64.4808 52.5504C64.4808 50.3459 62.6937 48.5589 60.4892 48.5589C58.2847 48.5589 56.4976 50.3459 56.4976 52.5504C56.4976 54.7549 58.2847 56.542 60.4892 56.542ZM60.4892 59.0631C64.086 59.0631 67.0018 56.1473 67.0018 52.5504C67.0018 48.9536 64.086 46.0378 60.4892 46.0378C56.8924 46.0378 53.9766 48.9536 53.9766 52.5504C53.9766 56.1473 56.8924 59.0631 60.4892 59.0631Z" fill="#616161"/>
<path fill-rule="evenodd" clip-rule="evenodd" d="M23.5126 56.542C25.7171 56.542 27.5042 54.7549 27.5042 52.5504C27.5042 50.3459 25.7171 48.5589 23.5126 48.5589C21.3081 48.5589 19.521 50.3459 19.521 52.5504C19.521 54.7549 21.3081 56.542 23.5126 56.542ZM23.5126 59.0631C27.1094 59.0631 30.0252 56.1473 30.0252 52.5504C30.0252 48.9536 27.1094 46.0378 23.5126 46.0378C19.9158 46.0378 17 48.9536 17 52.5504C17 56.1473 19.9158 59.0631 23.5126 59.0631Z" fill="#616161"/>
<path fill-rule="evenodd" clip-rule="evenodd" d="M42.0009 67.1512C44.2054 67.1512 45.9925 65.3641 45.9925 63.1596C45.9925 60.9551 44.2054 59.168 42.0009 59.168C39.7964 59.168 38.0093 60.9551 38.0093 63.1596C38.0093 65.3641 39.7964 67.1512 42.0009 67.1512ZM42.0009 69.6722C45.5977 69.6722 48.5135 66.7564 48.5135 63.1596C48.5135 59.5628 45.5977 56.647 42.0009 56.647C38.4041 56.647 35.4883 59.5628 35.4883 63.1596C35.4883 66.7564 38.4041 69.6722 42.0009 69.6722Z" fill="#616161"/>
<path d="M47.3588 41.8361C47.3588 44.7948 44.9603 47.1933 42.0017 47.1933C39.043 47.1933 36.6445 44.7948 36.6445 41.8361C36.6445 38.8775 39.043 36.479 42.0017 36.479C44.9603 36.479 47.3588 38.8775 47.3588 41.8361Z" fill="url(#paint0_linear_1998_17899)"/>
<path fill-rule="evenodd" clip-rule="evenodd" d="M54.2235 30.1049L46.0832 25.273L47.3699 23.1051L55.5103 27.9371L54.2235 30.1049Z" fill="#616161"/>
<path fill-rule="evenodd" clip-rule="evenodd" d="M37.191 62.9733L26.1616 56.1981L27.4811 54.05L38.5105 60.8252L37.191 62.9733Z" fill="#616161"/>
<path fill-rule="evenodd" clip-rule="evenodd" d="M57.9325 56.2569L47.2707 62.6645L45.9721 60.5037L56.6339 54.0961L57.9325 56.2569Z" fill="#616161"/>
<path fill-rule="evenodd" clip-rule="evenodd" d="M37.8923 25.4451L29.9616 29.9094L28.725 27.7126L36.6556 23.2483L37.8923 25.4451Z" fill="#616161"/>
<path fill-rule="evenodd" clip-rule="evenodd" d="M25.7202 37.3193V46.6155H23.1992V37.3193H25.7202Z" fill="#616161"/>
<path fill-rule="evenodd" clip-rule="evenodd" d="M62.2749 37.3193V46.6155H59.7539V37.3193H62.2749Z" fill="#616161"/>
<path fill-rule="evenodd" clip-rule="evenodd" d="M44.2046 53.4959V57.645H41.6836V53.4959H44.2046Z" fill="#616161"/>
<path fill-rule="evenodd" clip-rule="evenodd" d="M44.2046 26.29V30.1765H41.6836V26.29H44.2046Z" fill="#616161"/>
<path fill-rule="evenodd" clip-rule="evenodd" d="M50.9899 34.0677L54.6057 32.2068L55.7593 34.4484L52.1435 36.3093L50.9899 34.0677Z" fill="#616161"/>
<path fill-rule="evenodd" clip-rule="evenodd" d="M27.3455 47.836L30.9735 45.7322L32.2381 47.9131L28.6101 50.0169L27.3455 47.836Z" fill="#616161"/>
<path fill-rule="evenodd" clip-rule="evenodd" d="M29.5031 32.3141L33.0198 34.141L31.8576 36.3782L28.3409 34.5512L29.5031 32.3141Z" fill="#616161"/>
<path fill-rule="evenodd" clip-rule="evenodd" d="M53.3569 45.8343L56.9284 47.9465L55.6451 50.1164L52.0736 48.0043L53.3569 45.8343Z" fill="#616161"/>
<defs>
<linearGradient id="paint0_linear_1998_17899" x1="-601.511" y1="41.8361" x2="47.3588" y2="41.8361" gradientUnits="userSpaceOnUse">
<stop stop-color="#5082C2" stop-opacity="0"/>
<stop offset="0.04" stop-color="#498AC6" stop-opacity="0.08"/>
<stop offset="0.14" stop-color="#38A0D3" stop-opacity="0.29"/>
<stop offset="0.25" stop-color="#29B4DF" stop-opacity="0.48"/>
<stop offset="0.36" stop-color="#1CC5E9" stop-opacity="0.64"/>
<stop offset="0.48" stop-color="#12D2F1" stop-opacity="0.77"/>
<stop offset="0.59" stop-color="#0ADDF7" stop-opacity="0.87"/>
<stop offset="0.71" stop-color="#04E5FB" stop-opacity="0.94"/>
<stop offset="0.84" stop-color="#01E9FE" stop-opacity="0.99"/>
<stop offset="0.98" stop-color="#24BBE3"/>
<stop offset="0.99" stop-color="#4591CA"/>
<stop offset="1" stop-color="#5083C2"/>
</linearGradient>
</defs>
</svg>
