<svg width="431" height="163" viewBox="0 0 431 163" fill="none" xmlns="http://www.w3.org/2000/svg">
<path d="M194.121 47.0735H135.849C134.886 47.0735 133.963 47.456 133.282 48.1368C132.601 48.8177 132.219 49.7411 132.219 50.704V62.0149C132.219 62.9061 132.546 63.7056 133.084 64.3348C132.546 64.977 132.219 65.7765 132.219 66.6677V77.9786C132.219 78.8699 132.546 79.6694 133.084 80.2985C132.546 80.9407 132.219 81.7402 132.219 82.6314V93.9423C132.219 94.9052 132.601 95.8286 133.282 96.5095C133.963 97.1903 134.886 97.5728 135.849 97.5728H163.674V100.627C162.953 100.845 162.297 101.237 161.764 101.77C161.231 102.303 160.838 102.959 160.621 103.68H144.106C143.385 103.68 142.796 104.27 142.796 104.991C142.796 105.712 143.385 106.302 144.106 106.302H160.621C161.184 108.176 162.914 109.565 164.985 109.565C167.043 109.565 168.773 108.189 169.349 106.302H185.864C186.585 106.302 187.174 105.712 187.174 104.991C187.174 104.27 186.585 103.68 185.864 103.68H169.349C169.132 102.959 168.739 102.303 168.206 101.77C167.673 101.237 167.017 100.845 166.296 100.627V97.586H194.121C194.598 97.586 195.07 97.4921 195.51 97.3096C195.951 97.1272 196.351 96.8597 196.688 96.5226C197.025 96.1855 197.292 95.7853 197.475 95.3448C197.657 94.9043 197.751 94.4322 197.751 93.9555V82.6445C197.751 81.7533 197.424 80.9538 196.886 80.3247C197.424 79.6956 197.751 78.883 197.751 78.0048V66.6939C197.751 65.8027 197.424 65.0032 196.886 64.3741C197.424 63.745 197.751 62.9324 197.751 62.0542V50.704C197.751 49.7411 197.369 48.8177 196.688 48.1368C196.007 47.456 195.084 47.0735 194.121 47.0735ZM166.938 104.991C166.938 106.066 166.06 106.944 164.985 106.944C163.91 106.944 163.032 106.066 163.032 104.991C163.032 103.916 163.91 103.038 164.985 103.038C166.06 103.038 166.938 103.916 166.938 104.991ZM134.84 50.704C134.84 50.1404 135.299 49.6948 135.849 49.6948H194.108C194.671 49.6948 195.117 50.1535 195.117 50.704V62.0149C195.117 62.5785 194.658 63.0241 194.108 63.0241H135.849C135.716 63.0252 135.585 62.9998 135.462 62.9494C135.339 62.8991 135.227 62.8248 135.133 62.7308C135.039 62.6369 134.965 62.5253 134.915 62.4023C134.864 62.2794 134.839 62.1477 134.84 62.0149V50.704ZM195.13 66.6677V77.9786C195.13 78.5422 194.671 78.9878 194.121 78.9878H135.849C135.716 78.9889 135.585 78.9635 135.462 78.9131C135.339 78.8628 135.227 78.7885 135.133 78.6946C135.039 78.6006 134.965 78.489 134.915 78.3661C134.864 78.2431 134.839 78.1114 134.84 77.9786V66.6677C134.84 66.1041 135.299 65.6585 135.849 65.6585H194.108C194.671 65.6585 195.13 66.1041 195.13 66.6677ZM195.13 93.9423C195.13 94.5059 194.671 94.9515 194.121 94.9515H135.849C135.716 94.9526 135.585 94.9272 135.462 94.8769C135.339 94.8265 135.227 94.7522 135.133 94.6583C135.039 94.5644 134.965 94.4527 134.915 94.3298C134.864 94.2069 134.839 94.0752 134.84 93.9423V82.6314C134.84 82.0679 135.299 81.6222 135.849 81.6222H194.108C194.671 81.6222 195.117 82.081 195.117 82.6314V93.9423H195.13Z" fill="#616161"/>
<path d="M143.307 60.3635C144.371 60.3635 145.391 59.9409 146.143 59.1888C146.896 58.4367 147.318 57.4166 147.318 56.3529C147.318 55.2892 146.896 54.2691 146.143 53.517C145.391 52.7648 144.371 52.3423 143.307 52.3423C142.244 52.3423 141.224 52.7648 140.472 53.517C139.719 54.2691 139.297 55.2892 139.297 56.3529C139.297 57.4166 139.719 58.4367 140.472 59.1888C141.224 59.9409 142.244 60.3635 143.307 60.3635ZM143.307 54.9767C143.49 54.9768 143.671 55.0128 143.839 55.0827C144.008 55.1527 144.161 55.2551 144.29 55.3843C144.419 55.5134 144.521 55.6667 144.591 55.8353C144.661 56.004 144.697 56.1848 144.697 56.3673C144.697 56.5498 144.661 56.7306 144.591 56.8992C144.521 57.0678 144.418 57.2209 144.289 57.3499C144.16 57.479 144.007 57.5813 143.838 57.651C143.669 57.7208 143.489 57.7567 143.306 57.7566C142.938 57.7564 142.584 57.6098 142.324 57.349C142.063 57.0882 141.917 56.7346 141.917 56.366C141.917 55.9973 142.064 55.6439 142.324 55.3833C142.585 55.1228 142.939 54.9765 143.307 54.9767ZM153.635 60.3635C154.429 60.3635 155.204 60.1283 155.864 59.6876C156.523 59.2469 157.037 58.6205 157.341 57.8877C157.644 57.1548 157.724 56.3484 157.569 55.5705C157.414 54.7925 157.032 54.0779 156.471 53.517C155.91 52.9561 155.196 52.5741 154.418 52.4193C153.64 52.2646 152.833 52.344 152.101 52.6476C151.368 52.9511 150.741 53.4652 150.301 54.1247C149.86 54.7843 149.625 55.5597 149.625 56.3529C149.638 58.5679 151.434 60.3635 153.635 60.3635ZM153.635 54.9767C153.818 54.9768 153.999 55.0128 154.167 55.0827C154.336 55.1527 154.489 55.2551 154.618 55.3843C154.747 55.5134 154.849 55.6667 154.919 55.8353C154.989 56.004 155.025 56.1848 155.025 56.3673C155.025 56.5498 154.989 56.7306 154.919 56.8992C154.849 57.0678 154.746 57.2209 154.617 57.3499C154.488 57.479 154.335 57.5813 154.166 57.651C153.997 57.7208 153.817 57.7567 153.634 57.7566C153.265 57.7564 152.912 57.6098 152.651 57.349C152.391 57.0882 152.245 56.7346 152.245 56.366C152.245 55.9973 152.392 55.6439 152.652 55.3833C152.913 55.1228 153.267 54.9765 153.635 54.9767ZM189.967 59.4722C190.687 59.4722 191.277 58.8824 191.277 58.1616V54.5704C191.277 53.8495 190.687 53.2597 189.967 53.2597C189.246 53.2597 188.656 53.8495 188.656 54.5704V58.1616C188.656 58.8824 189.246 59.4722 189.967 59.4722ZM184.527 59.4722C185.248 59.4722 185.838 58.8824 185.838 58.1616V54.5704C185.838 53.8495 185.248 53.2597 184.527 53.2597C183.807 53.2597 183.217 53.8495 183.217 54.5704V58.1616C183.217 58.8824 183.807 59.4722 184.527 59.4722ZM179.088 59.4722C179.809 59.4722 180.399 58.8824 180.399 58.1616V54.5704C180.399 53.8495 179.809 53.2597 179.088 53.2597C178.367 53.2597 177.778 53.8495 177.778 54.5704V58.1616C177.778 58.8824 178.367 59.4722 179.088 59.4722ZM143.307 76.3272C144.371 76.3272 145.391 75.9047 146.143 75.1525C146.896 74.4004 147.318 73.3803 147.318 72.3166C147.318 71.2529 146.896 70.2328 146.143 69.4807C145.391 68.7286 144.371 68.306 143.307 68.306C142.244 68.306 141.224 68.7286 140.472 69.4807C139.719 70.2328 139.297 71.2529 139.297 72.3166C139.297 73.3803 139.719 74.4004 140.472 75.1525C141.224 75.9047 142.244 76.3272 143.307 76.3272ZM143.307 70.9404C143.49 70.9405 143.671 70.9765 143.839 71.0465C144.008 71.1164 144.161 71.2189 144.29 71.348C144.419 71.4771 144.521 71.6304 144.591 71.7991C144.661 71.9677 144.697 72.1485 144.697 72.331C144.697 72.5136 144.661 72.6943 144.591 72.8629C144.521 73.0315 144.418 73.1847 144.289 73.3137C144.16 73.4427 144.007 73.545 143.838 73.6148C143.669 73.6845 143.489 73.7204 143.306 73.7203C142.938 73.7201 142.584 73.5735 142.324 73.3127C142.063 73.052 141.917 72.6983 141.917 72.3297C141.917 71.9611 142.064 71.6076 142.324 71.3471C142.585 71.0865 142.939 70.9403 143.307 70.9404ZM153.635 76.3272C154.429 76.3272 155.204 76.092 155.864 75.6513C156.523 75.2106 157.037 74.5842 157.341 73.8514C157.644 73.1186 157.724 72.3122 157.569 71.5342C157.414 70.7562 157.032 70.0416 156.471 69.4807C155.91 68.9198 155.196 68.5378 154.418 68.3831C153.64 68.2283 152.833 68.3077 152.101 68.6113C151.368 68.9149 150.741 69.4289 150.301 70.0884C149.86 70.748 149.625 71.5234 149.625 72.3166C149.638 74.5316 151.434 76.3272 153.635 76.3272ZM153.635 70.9404C153.818 70.9405 153.999 70.9765 154.167 71.0465C154.336 71.1164 154.489 71.2189 154.618 71.348C154.747 71.4771 154.849 71.6304 154.919 71.7991C154.989 71.9677 155.025 72.1485 155.025 72.331C155.025 72.5136 154.989 72.6943 154.919 72.8629C154.849 73.0315 154.746 73.1847 154.617 73.3137C154.488 73.4427 154.335 73.545 154.166 73.6148C153.997 73.6845 153.817 73.7204 153.634 73.7203C153.265 73.7201 152.912 73.5735 152.651 73.3127C152.391 73.052 152.245 72.6983 152.245 72.3297C152.245 71.9611 152.392 71.6076 152.652 71.3471C152.913 71.0865 153.267 70.9403 153.635 70.9404ZM189.967 75.436C190.687 75.436 191.277 74.8462 191.277 74.1253V70.5341C191.277 69.8133 190.687 69.2235 189.967 69.2235C189.246 69.2235 188.656 69.8133 188.656 70.5341V74.1253C188.656 74.8462 189.246 75.436 189.967 75.436ZM184.527 75.436C185.248 75.436 185.838 74.8462 185.838 74.1253V70.5341C185.838 69.8133 185.248 69.2235 184.527 69.2235C183.807 69.2235 183.217 69.8133 183.217 70.5341V74.1253C183.217 74.8462 183.807 75.436 184.527 75.436ZM179.088 75.436C179.809 75.436 180.399 74.8462 180.399 74.1253V70.5341C180.399 69.8133 179.809 69.2235 179.088 69.2235C178.367 69.2235 177.778 69.8133 177.778 70.5341V74.1253C177.778 74.8462 178.367 75.436 179.088 75.436ZM143.307 84.2828C142.514 84.2828 141.739 84.5181 141.079 84.9588C140.42 85.3994 139.906 86.0258 139.602 86.7587C139.299 87.4915 139.219 88.2979 139.374 89.0759C139.529 89.8538 139.911 90.5685 140.472 91.1294C141.032 91.6902 141.747 92.0722 142.525 92.227C143.303 92.3817 144.109 92.3023 144.842 91.9987C145.575 91.6952 146.201 91.1811 146.642 90.5216C147.083 89.8621 147.318 89.0867 147.318 88.2934C147.318 86.0784 145.509 84.2828 143.307 84.2828ZM143.307 89.6696C143.125 89.6695 142.944 89.6335 142.776 89.5636C142.607 89.4936 142.454 89.3912 142.325 89.2621C142.196 89.1329 142.094 88.9796 142.024 88.811C141.954 88.6423 141.918 88.4616 141.918 88.279C141.918 88.0965 141.954 87.9158 142.024 87.7472C142.094 87.5786 142.197 87.4254 142.326 87.2964C142.455 87.1674 142.608 87.0651 142.777 86.9953C142.945 86.9255 143.126 86.8896 143.309 86.8897C143.677 86.8899 144.031 87.0365 144.291 87.2973C144.552 87.5581 144.698 87.9117 144.698 88.2803C144.698 88.649 144.551 89.0024 144.29 89.263C144.03 89.5235 143.676 89.6698 143.307 89.6696ZM153.635 84.2828C152.572 84.2828 151.552 84.7054 150.799 85.4575C150.047 86.2097 149.625 87.2298 149.625 88.2934C149.625 89.3571 150.047 90.3772 150.799 91.1294C151.552 91.8815 152.572 92.304 153.635 92.304C154.699 92.304 155.719 91.8815 156.471 91.1294C157.223 90.3772 157.646 89.3571 157.646 88.2934C157.646 87.2298 157.223 86.2097 156.471 85.4575C155.719 84.7054 154.699 84.2828 153.635 84.2828ZM153.635 89.6696C153.267 89.6694 152.913 89.5228 152.653 89.2621C152.392 89.0013 152.246 88.6477 152.246 88.279C152.246 87.9104 152.393 87.5569 152.654 87.2964C152.914 87.0358 153.268 86.8896 153.637 86.8897C153.819 86.8898 154 86.9259 154.169 86.9958C154.337 87.0657 154.49 87.1682 154.619 87.2973C154.748 87.4264 154.851 87.5797 154.92 87.7484C154.99 87.917 155.026 88.0978 155.026 88.2803C155.026 88.4629 154.99 88.6436 154.92 88.8122C154.85 88.9808 154.748 89.134 154.618 89.263C154.489 89.392 154.336 89.4943 154.167 89.5641C153.999 89.6338 153.818 89.6697 153.635 89.6696ZM189.967 85.1741C189.246 85.1741 188.656 85.7639 188.656 86.4847V90.0759C188.656 90.7968 189.246 91.3866 189.967 91.3866C190.687 91.3866 191.277 90.7968 191.277 90.0759V86.4847C191.277 85.7639 190.687 85.1741 189.967 85.1741ZM184.527 85.1741C183.807 85.1741 183.217 85.7639 183.217 86.4847V90.0759C183.217 90.7968 183.807 91.3866 184.527 91.3866C185.248 91.3866 185.838 90.7968 185.838 90.0759V86.4847C185.838 85.7639 185.248 85.1741 184.527 85.1741ZM179.088 85.1741C178.367 85.1741 177.778 85.7639 177.778 86.4847V90.0759C177.778 90.7968 178.367 91.3866 179.088 91.3866C179.809 91.3866 180.399 90.7968 180.399 90.0759V86.4847C180.399 85.7639 179.809 85.1741 179.088 85.1741Z" fill="#616161"/>
<circle cx="143.296" cy="56.3132" r="2.99537" stroke="#66B0FF" stroke-width="2"/>
<circle cx="153.628" cy="56.3767" r="2.99537" stroke="#66B0FF" stroke-width="2"/>
<circle cx="143.296" cy="72.2947" r="2.99537" stroke="#66B0FF" stroke-width="2"/>
<circle cx="153.628" cy="72.2947" r="2.99537" stroke="#66B0FF" stroke-width="2"/>
<circle cx="143.296" cy="88.3396" r="2.99537" stroke="#66B0FF" stroke-width="2"/>
<circle cx="153.628" cy="88.3396" r="2.99537" stroke="#66B0FF" stroke-width="2"/>
<path d="M294.925 91.6744C297.587 91.3348 300.032 90.0319 301.799 88.0119C303.565 85.9918 304.531 83.3947 304.512 80.7112C304.494 78.0278 303.494 75.444 301.7 73.4481C299.906 71.4522 297.444 70.1825 294.777 69.8789L292.937 69.6741L292.422 67.8968C291.788 65.7082 290.356 63.8366 288.41 62.6512C286.464 61.4658 284.144 61.0525 281.908 61.4929L279.985 61.8712L278.991 60.1807C277.369 57.4121 274.843 55.2873 271.838 54.1644C268.832 53.0416 265.531 52.9895 262.492 54.0169C259.453 55.0442 256.86 57.0883 255.153 59.8043C253.445 62.5203 252.726 65.7422 253.117 68.9266L253.425 71.4993L250.878 71.9791C248.445 72.4354 246.268 73.78 244.771 75.7516C243.274 77.7232 242.563 80.1811 242.777 82.6475C242.991 85.1138 244.114 87.4126 245.929 89.0969C247.743 90.7812 250.119 91.7308 252.594 91.7612H253.272C253.457 91.7584 253.641 91.793 253.813 91.8628C253.985 91.9327 254.141 92.0363 254.272 92.1677C254.403 92.299 254.506 92.4554 254.576 92.6274C254.645 92.7995 254.679 92.9837 254.676 93.1692C254.673 93.3547 254.632 93.5376 254.557 93.7071C254.482 93.8767 254.373 94.0293 254.238 94.1561C254.102 94.2828 253.943 94.381 253.768 94.4448C253.594 94.5086 253.409 94.5368 253.224 94.5276H252.557C249.4 94.4816 246.372 93.2652 244.06 91.114C241.748 88.9628 240.317 86.03 240.044 82.8839C239.771 79.7377 240.675 76.6023 242.582 74.0851C244.489 71.5678 247.262 69.848 250.365 69.2588C249.898 65.4427 250.76 61.5821 252.807 58.3278C254.855 55.0735 257.961 52.6245 261.604 51.3937C265.246 50.1629 269.201 50.2255 272.803 51.571C276.404 52.9165 279.432 55.4625 281.375 58.78C284.29 58.2057 287.314 58.7444 289.852 60.2899C292.389 61.8355 294.255 64.2756 295.082 67.1291C298.418 67.5079 301.5 69.0946 303.746 71.5898C305.993 74.0849 307.248 77.316 307.276 80.6733C307.303 84.0306 306.101 87.282 303.896 89.8138C301.692 92.3457 298.636 93.9831 295.307 94.4169V94.4132C295.123 94.4479 294.933 94.4449 294.75 94.4043C294.567 94.3637 294.395 94.2864 294.242 94.177C294.09 94.0676 293.962 93.9285 293.865 93.768C293.768 93.6075 293.705 93.429 293.679 93.2434C293.653 93.0577 293.666 92.8688 293.715 92.688C293.765 92.5072 293.85 92.3383 293.967 92.1916C294.083 92.0449 294.229 91.9234 294.394 91.8345C294.559 91.7456 294.738 91.6912 294.925 91.6744Z" fill="#616161"/>
<path d="M285.004 98.872V95.6885C285.004 95.3214 284.858 94.9693 284.599 94.7097C284.339 94.4501 283.987 94.3043 283.62 94.3043C283.253 94.3043 282.901 94.4501 282.641 94.7097C282.382 94.9693 282.236 95.3214 282.236 95.6885V102.434C282.236 102.801 282.382 103.153 282.641 103.413C282.901 103.672 283.253 103.818 283.62 103.818H290.364C290.731 103.818 291.083 103.672 291.342 103.413C291.602 103.153 291.748 102.801 291.748 102.434C291.748 102.067 291.602 101.715 291.342 101.455C291.083 101.196 290.731 101.05 290.364 101.05H286.82C289.122 98.1863 290.374 94.6212 290.369 90.9473C290.371 88.7673 289.931 86.6095 289.075 84.6046C288.219 82.5998 286.964 80.7896 285.388 79.2837C282.385 76.4011 278.382 74.7938 274.219 74.7991C272.015 74.7991 269.912 75.2402 267.994 76.0411C267.661 76.186 267.397 76.4564 267.262 76.7938C267.126 77.1312 267.128 77.5084 267.268 77.844C267.409 78.1796 267.675 78.4465 268.011 78.5871C268.346 78.7277 268.723 78.7306 269.061 78.5953C270.695 77.913 272.448 77.563 274.219 77.5655C277.81 77.5655 281.07 78.9792 283.474 81.2824C284.781 82.53 285.82 84.03 286.529 85.6914C287.239 87.3527 287.603 89.1409 287.601 90.9473C287.606 93.7987 286.696 96.5765 285.004 98.872ZM265.377 79.1933C265.636 79.4516 265.783 79.8041 265.783 80.1714V86.9186C265.783 87.2857 265.637 87.6377 265.378 87.8973C265.118 88.1569 264.766 88.3027 264.399 88.3027C264.032 88.3027 263.68 88.1569 263.42 87.8973C263.161 87.6377 263.015 87.2857 263.015 86.9186V83.82C261.713 85.929 261.025 88.3597 261.029 90.8384C261.029 94.6384 262.611 98.0655 265.156 100.503C267.643 102.893 270.96 104.225 274.409 104.22C276.24 104.22 277.982 103.853 279.567 103.19C279.906 103.049 280.287 103.047 280.627 103.187C280.967 103.326 281.237 103.595 281.379 103.933C281.52 104.272 281.522 104.653 281.382 104.993C281.243 105.333 280.975 105.603 280.636 105.745C278.663 106.568 276.547 106.991 274.409 106.989C270.246 106.994 266.243 105.386 263.24 102.504C261.664 100.998 260.41 99.1876 259.554 97.1828C258.698 95.1779 258.258 93.0202 258.261 90.8403C258.261 87.3836 259.346 84.1817 261.193 81.5574H257.654C257.287 81.5574 256.935 81.4115 256.675 81.152C256.415 80.8924 256.27 80.5403 256.27 80.1732C256.27 79.8061 256.415 79.4541 256.675 79.1945C256.935 78.9349 257.287 78.7891 257.654 78.7891H264.397C264.764 78.7889 265.118 78.9343 265.377 79.1933Z" fill="#66B0FF"/>
</svg>
