<svg width="84" height="84" viewBox="0 0 84 84" fill="none" xmlns="http://www.w3.org/2000/svg">
<path d="M32.7188 44.0625H34.7813V46.125H32.7188V44.0625ZM36.8438 45.0938H38.9063V47.1562H36.8438V45.0938ZM32.7188 51.2812H34.7813V53.3438H32.7188V51.2812ZM36.8438 52.3125H38.9063V54.375H36.8438V52.3125ZM35.8125 36.8438H48.1875V38.9062H35.8125V36.8438ZM57.4688 21.375H59.5312V23.4375H57.4688V21.375ZM53.3438 21.375H55.4062V23.4375H53.3438V21.375ZM68.8125 31.6875H66.75C66.75 32.7815 66.3154 33.8307 65.5418 34.6043C64.7682 35.3779 63.719 35.8125 62.625 35.8125V37.875C64.2655 37.8734 65.8384 37.2209 66.9984 36.0609C68.1584 34.9009 68.8109 33.328 68.8125 31.6875ZM17.25 47.1562C17.25 46.5444 17.0686 45.9462 16.7286 45.4375C16.3887 44.9287 15.9055 44.5322 15.3402 44.298C14.7749 44.0638 14.1528 44.0026 13.5527 44.1219C12.9526 44.2413 12.4013 44.536 11.9686 44.9686C11.536 45.4013 11.2413 45.9526 11.1219 46.5527C11.0026 47.1528 11.0638 47.7749 11.298 48.3402C11.5322 48.9055 11.9287 49.3887 12.4375 49.7286C12.9462 50.0686 13.5444 50.25 14.1563 50.25C14.9768 50.25 15.7637 49.9241 16.3439 49.3439C16.9241 48.7637 17.25 47.9768 17.25 47.1562ZM13.125 47.1562C13.125 46.9523 13.1855 46.7529 13.2988 46.5833C13.4121 46.4137 13.5732 46.2816 13.7616 46.2035C13.95 46.1254 14.1574 46.105 14.3574 46.1448C14.5575 46.1846 14.7412 46.2828 14.8855 46.427C15.0297 46.5713 15.1279 46.755 15.1677 46.9551C15.2075 47.1551 15.1871 47.3625 15.109 47.5509C15.0309 47.7393 14.8988 47.9004 14.7292 48.0137C14.5596 48.127 14.3602 48.1875 14.1563 48.1875C13.8827 48.1875 13.6204 48.0789 13.427 47.8855C13.2337 47.6921 13.125 47.4298 13.125 47.1562ZM17.25 56.4375C16.6381 56.4375 16.04 56.6189 15.5312 56.9589C15.0224 57.2988 14.6259 57.782 14.3917 58.3473C14.1576 58.9126 14.0963 59.5347 14.2157 60.1348C14.3351 60.7349 14.6297 61.2862 15.0624 61.7189C15.4951 62.1515 16.0463 62.4462 16.6464 62.5656C17.2466 62.6849 17.8686 62.6237 18.4339 62.3895C18.9992 62.1553 19.4824 61.7588 19.8224 61.25C20.1623 60.7413 20.3438 60.1431 20.3438 59.5312C20.3438 58.7107 20.0178 57.9238 19.4376 57.3436C18.8574 56.7635 18.0705 56.4375 17.25 56.4375ZM17.25 60.5625C17.046 60.5625 16.8467 60.502 16.6771 60.3887C16.5075 60.2754 16.3753 60.1143 16.2973 59.9259C16.2192 59.7375 16.1988 59.5301 16.2386 59.3301C16.2784 59.13 16.3766 58.9463 16.5208 58.802C16.665 58.6578 16.8488 58.5596 17.0488 58.5198C17.2489 58.48 17.4562 58.5005 17.6446 58.5785C17.8331 58.6566 17.9941 58.7887 18.1075 58.9583C18.2208 59.1279 18.2813 59.3273 18.2813 59.5312C18.2813 59.8048 18.1726 60.0671 17.9792 60.2605C17.7858 60.4538 17.5235 60.5625 17.25 60.5625Z" fill="#66B0FF"/>
<path d="M62.625 42C65.2836 42.0099 67.8433 40.9927 69.7698 39.1606C71.6964 37.3286 72.841 34.8232 72.9647 32.1675C73.0885 29.5118 72.1818 26.9109 70.4339 24.9077C68.686 22.9044 66.232 21.6536 63.5841 21.4162C63.3468 19.6897 62.4921 18.1074 61.1783 16.9623C59.8645 15.8172 58.1803 15.1867 56.4375 15.1875C54.9403 15.182 53.4792 15.6474 52.2609 16.5178C50.9346 14.5498 49.0702 13.005 46.8899 12.0677C44.7097 11.1303 42.3059 10.84 39.9652 11.2314C37.6245 11.6227 35.4459 12.6793 33.6892 14.2749C31.9326 15.8706 30.6721 17.9379 30.0581 20.2303C29.0361 19.6597 27.8906 19.3463 26.7204 19.3169C25.5503 19.2876 24.3905 19.5432 23.3412 20.0618C22.2918 20.5804 21.3842 21.3464 20.6968 22.2938C20.0093 23.2412 19.5626 24.3415 19.395 25.5H19.3125C17.1245 25.5 15.026 26.3692 13.4789 27.9164C11.9317 29.4635 11.0625 31.562 11.0625 33.75C11.0625 35.938 11.9317 38.0365 13.4789 39.5836C15.026 41.1308 17.1245 42 19.3125 42H29.625V46.125H19.3125V48.1875H29.625V52.3125H23.4375C23.1641 52.3145 22.902 52.4216 22.7053 52.6116L19.6116 55.7053L21.0759 57.1697L23.8603 54.375H30.2953C31.4289 55.8362 33.0012 56.8952 34.7812 57.3966V60.1397L31.9866 62.9241L33.4509 64.3884L36.5447 61.2947C36.7346 61.098 36.8417 60.8359 36.8438 60.5625V57.9741C38.2024 58.2564 39.5821 58.4254 40.9688 58.4794V64.6875H43.0312V58.4794C44.4179 58.4254 45.7976 58.2564 47.1562 57.9741V60.5625C47.1583 60.8359 47.2654 61.098 47.4553 61.2947L50.5491 64.3884L52.0134 62.9241L49.2188 60.1397V57.3966C50.9988 56.8952 52.5711 55.8362 53.7047 54.375H60.1397L62.9241 57.1697L64.3884 55.7053L61.2947 52.6116C61.098 52.4216 60.8359 52.3145 60.5625 52.3125H54.375V48.1875H64.6875V46.125H54.375V42H62.625ZM52.3125 52.3125C52.3125 54.2616 47.8988 56.4375 42 56.4375C36.1012 56.4375 31.6875 54.2616 31.6875 52.3125V48.6103C33.8634 50.2397 37.5966 51.2812 42 51.2812C46.4034 51.2812 50.1366 50.2397 52.3125 48.6103V52.3125ZM52.3125 45.0938C52.3125 47.0428 47.8988 49.2188 42 49.2188C36.1012 49.2188 31.6875 47.0428 31.6875 45.0938V41.3916C33.8634 43.0209 37.5966 44.0625 42 44.0625C46.4034 44.0625 50.1366 43.0209 52.3125 41.3916V45.0938ZM42 42C36.1012 42 31.6875 39.8241 31.6875 37.875C31.6875 35.9259 36.1012 33.75 42 33.75C47.8988 33.75 52.3125 35.9259 52.3125 37.875C52.3125 39.8241 47.8988 42 42 42ZM42 31.6875C34.9462 31.6875 29.625 34.3481 29.625 37.875V39.9375H19.3125C17.6715 39.9375 16.0977 39.2856 14.9373 38.1252C13.7769 36.9648 13.125 35.391 13.125 33.75C13.125 32.109 13.7769 30.5352 14.9373 29.3748C16.0977 28.2144 17.6715 27.5625 19.3125 27.5625C19.6028 27.5613 19.8926 27.5855 20.1788 27.6347C20.3297 27.649 20.482 27.6316 20.6258 27.5837C20.7696 27.5357 20.9019 27.4583 21.0141 27.3562C21.1274 27.2507 21.2178 27.123 21.2799 26.9811C21.342 26.8392 21.3743 26.6861 21.375 26.5312C21.3745 25.5253 21.6682 24.5412 22.22 23.7002C22.7718 22.8591 23.5575 22.1978 24.4805 21.7977C25.4034 21.3976 26.4232 21.2762 27.4142 21.4485C28.4053 21.6208 29.3243 22.0791 30.0581 22.7672C30.1974 22.8956 30.3693 22.9831 30.555 23.0203C30.7407 23.0574 30.9331 23.0427 31.111 22.9777C31.2889 22.9127 31.4455 22.8 31.5635 22.6519C31.6816 22.5038 31.7566 22.326 31.7803 22.1381C32.0543 19.968 33.0118 17.9414 34.5141 16.3516C36.0164 14.7619 37.9857 13.6914 40.1368 13.2951C42.2879 12.8989 44.5093 13.1975 46.4795 14.1476C48.4497 15.0978 50.0664 16.6503 51.0956 18.5803C51.1705 18.7243 51.279 18.8482 51.4118 18.9415C51.5446 19.0348 51.6979 19.0949 51.8588 19.1166C52.0196 19.1379 52.1832 19.1221 52.337 19.0702C52.4907 19.0184 52.6305 18.9319 52.7456 18.8175C53.2231 18.3203 53.7965 17.925 54.431 17.6556C55.0656 17.3862 55.7481 17.2482 56.4375 17.25C57.805 17.25 59.1165 17.7932 60.0835 18.7602C61.0505 19.7272 61.5938 21.0387 61.5938 22.4062C61.5938 22.6798 61.7024 22.9421 61.8958 23.1355C62.0892 23.3288 62.3515 23.4375 62.625 23.4375C64.813 23.4375 66.9115 24.3067 68.4586 25.8539C70.0058 27.401 70.875 29.4995 70.875 31.6875C70.875 33.8755 70.0058 35.974 68.4586 37.5211C66.9115 39.0683 64.813 39.9375 62.625 39.9375H54.375V37.875C54.375 34.3481 49.0537 31.6875 42 31.6875Z" fill="#616161"/>
<path d="M69.8438 44.0625C69.2319 44.0625 68.6337 44.2439 68.125 44.5839C67.6162 44.9238 67.2197 45.407 66.9855 45.9723C66.7513 46.5376 66.6901 47.1597 66.8094 47.7598C66.9288 48.3599 67.2235 48.9112 67.6561 49.3439C68.0888 49.7765 68.6401 50.0712 69.2402 50.1906C69.8403 50.3099 70.4624 50.2487 71.0277 50.0145C71.593 49.7803 72.0762 49.3838 72.4161 48.875C72.7561 48.3663 72.9375 47.7681 72.9375 47.1562C72.9375 46.3357 72.6115 45.5488 72.0314 44.9686C71.4512 44.3884 70.6643 44.0625 69.8438 44.0625ZM69.8438 48.1875C69.6398 48.1875 69.4404 48.127 69.2708 48.0137C69.1012 47.9004 68.9691 47.7393 68.891 47.5509C68.813 47.3625 68.7925 47.1551 68.8323 46.9551C68.8721 46.755 68.9703 46.5713 69.1145 46.427C69.2588 46.2828 69.4425 46.1846 69.6426 46.1448C69.8426 46.105 70.05 46.1254 70.2384 46.2035C70.4268 46.2816 70.5879 46.4137 70.7012 46.5833C70.8145 46.7529 70.875 46.9523 70.875 47.1562C70.875 47.4298 70.7663 47.6921 70.573 47.8855C70.3796 48.0789 70.1173 48.1875 69.8438 48.1875ZM66.75 56.4375C66.1381 56.4375 65.54 56.6189 65.0312 56.9589C64.5224 57.2988 64.1259 57.782 63.8918 58.3473C63.6576 58.9126 63.5963 59.5347 63.7157 60.1348C63.8351 60.7349 64.1297 61.2862 64.5624 61.7189C64.9951 62.1515 65.5463 62.4462 66.1464 62.5656C66.7466 62.6849 67.3686 62.6237 67.9339 62.3895C68.4992 62.1553 68.9824 61.7588 69.3224 61.25C69.6623 60.7413 69.8438 60.1431 69.8438 59.5312C69.8438 58.7107 69.5178 57.9238 68.9376 57.3436C68.3574 56.7634 67.5705 56.4375 66.75 56.4375ZM66.75 60.5625C66.546 60.5625 66.3467 60.502 66.1771 60.3887C66.0075 60.2754 65.8753 60.1143 65.7973 59.9259C65.7192 59.7375 65.6988 59.5301 65.7386 59.3301C65.7784 59.13 65.8766 58.9463 66.0208 58.802C66.165 58.6578 66.3488 58.5596 66.5488 58.5198C66.7489 58.48 66.9562 58.5004 67.1446 58.5785C67.3331 58.6566 67.4941 58.7887 67.6075 58.9583C67.7208 59.1279 67.7812 59.3273 67.7812 59.5312C67.7812 59.8048 67.6726 60.0671 67.4792 60.2605C67.2858 60.4539 67.0235 60.5625 66.75 60.5625ZM54.375 63.6562C53.7631 63.6562 53.165 63.8377 52.6562 64.1776C52.1474 64.5176 51.7509 65.0008 51.5168 65.5661C51.2826 66.1314 51.2213 66.7534 51.3407 67.3536C51.4601 67.9537 51.7547 68.5049 52.1874 68.9376C52.6201 69.3703 53.1713 69.6649 53.7714 69.7843C54.3716 69.9037 54.9936 69.8424 55.5589 69.6082C56.1242 69.3741 56.6074 68.9776 56.9474 68.4688C57.2873 67.96 57.4688 67.3619 57.4688 66.75C57.4688 65.9295 57.1428 65.1426 56.5626 64.5624C55.9824 63.9822 55.1955 63.6562 54.375 63.6562ZM54.375 67.7812C54.171 67.7812 53.9717 67.7208 53.8021 67.6075C53.6325 67.4941 53.5003 67.3331 53.4223 67.1446C53.3442 66.9562 53.3238 66.7489 53.3636 66.5488C53.4034 66.3488 53.5016 66.165 53.6458 66.0208C53.79 65.8766 53.9738 65.7784 54.1738 65.7386C54.3739 65.6988 54.5812 65.7192 54.7696 65.7973C54.9581 65.8753 55.1191 66.0075 55.2325 66.1771C55.3458 66.3467 55.4063 66.546 55.4063 66.75C55.4063 67.0235 55.2976 67.2858 55.1042 67.4792C54.9108 67.6726 54.6485 67.7812 54.375 67.7812ZM42 66.75C41.3881 66.75 40.79 66.9314 40.2812 67.2714C39.7724 67.6113 39.3759 68.0945 39.1417 68.6598C38.9076 69.2251 38.8463 69.8472 38.9657 70.4473C39.0851 71.0474 39.3797 71.5987 39.8124 72.0314C40.2451 72.464 40.7963 72.7587 41.3964 72.8781C41.9966 72.9974 42.6186 72.9362 43.1839 72.702C43.7492 72.4678 44.2324 72.0713 44.5724 71.5625C44.9123 71.0538 45.0938 70.4556 45.0938 69.8438C45.0938 69.0232 44.7678 68.2363 44.1876 67.6561C43.6074 67.0759 42.8205 66.75 42 66.75ZM42 70.875C41.796 70.875 41.5967 70.8145 41.4271 70.7012C41.2575 70.5879 41.1253 70.4268 41.0473 70.2384C40.9692 70.05 40.9488 69.8426 40.9886 69.6426C41.0284 69.4425 41.1266 69.2588 41.2708 69.1145C41.415 68.9703 41.5988 68.8721 41.7988 68.8323C41.9989 68.7925 42.2062 68.8129 42.3946 68.891C42.5831 68.9691 42.7441 69.1012 42.8575 69.2708C42.9708 69.4404 43.0313 69.6398 43.0313 69.8438C43.0313 70.1173 42.9226 70.3796 42.7292 70.573C42.5358 70.7664 42.2735 70.875 42 70.875ZM29.625 63.6562C29.0131 63.6562 28.415 63.8377 27.9062 64.1776C27.3974 64.5176 27.0009 65.0008 26.7667 65.5661C26.5326 66.1314 26.4713 66.7534 26.5907 67.3536C26.7101 67.9537 27.0047 68.5049 27.4374 68.9376C27.8701 69.3703 28.4213 69.6649 29.0214 69.7843C29.6216 69.9037 30.2436 69.8424 30.8089 69.6082C31.3742 69.3741 31.8574 68.9776 32.1974 68.4688C32.5373 67.96 32.7188 67.3619 32.7188 66.75C32.7188 65.9295 32.3928 65.1426 31.8126 64.5624C31.2324 63.9822 30.4455 63.6562 29.625 63.6562ZM29.625 67.7812C29.421 67.7812 29.2217 67.7208 29.0521 67.6075C28.8825 67.4941 28.7503 67.3331 28.6723 67.1446C28.5942 66.9562 28.5738 66.7489 28.6136 66.5488C28.6534 66.3488 28.7516 66.165 28.8958 66.0208C29.04 65.8766 29.2238 65.7784 29.4238 65.7386C29.6239 65.6988 29.8312 65.7192 30.0196 65.7973C30.2081 65.8753 30.3691 66.0075 30.4825 66.1771C30.5958 66.3467 30.6563 66.546 30.6563 66.75C30.6563 67.0235 30.5476 67.2858 30.3542 67.4792C30.1608 67.6726 29.8985 67.7812 29.625 67.7812Z" fill="#66B0FF"/>
</svg>
