<svg width="432" height="163" viewBox="0 0 432 163" fill="none" xmlns="http://www.w3.org/2000/svg">
<path d="M202.598 84.0438H205.642V87.0884H202.598V84.0438ZM208.687 85.5661H211.732V88.6108H208.687V85.5661ZM202.598 94.7001H205.642V97.7447H202.598V94.7001ZM208.687 96.2224H211.732V99.267H208.687V96.2224ZM207.165 73.3876H225.432V76.4322H207.165V73.3876ZM239.133 50.5527H242.178V53.5974H239.133V50.5527ZM233.044 50.5527H236.089V53.5974H233.044V50.5527ZM255.879 65.7759H252.834C252.834 67.3909 252.193 68.9398 251.051 70.0817C249.909 71.2237 248.36 71.8652 246.745 71.8652V74.9099C249.167 74.9075 251.489 73.9444 253.201 72.2319C254.913 70.5195 255.876 68.1977 255.879 65.7759ZM179.763 88.6108C179.763 87.7075 179.495 86.8245 178.993 86.0735C178.491 85.3225 177.778 84.7371 176.944 84.3914C176.109 84.0458 175.191 83.9553 174.305 84.1316C173.419 84.3078 172.605 84.7427 171.967 85.3814C171.328 86.0201 170.893 86.8339 170.717 87.7198C170.54 88.6057 170.631 89.524 170.977 90.3585C171.322 91.193 171.908 91.9062 172.659 92.4081C173.41 92.9099 174.293 93.1777 175.196 93.1777C176.407 93.1777 177.569 92.6966 178.425 91.8401C179.282 90.9836 179.763 89.822 179.763 88.6108ZM173.674 88.6108C173.674 88.3097 173.763 88.0154 173.93 87.765C174.097 87.5147 174.335 87.3195 174.613 87.2043C174.891 87.0891 175.198 87.059 175.493 87.1177C175.788 87.1764 176.059 87.3214 176.272 87.5343C176.485 87.7472 176.63 88.0185 176.689 88.3138C176.748 88.6091 176.718 88.9152 176.602 89.1933C176.487 89.4715 176.292 89.7093 176.042 89.8765C175.791 90.0438 175.497 90.1331 175.196 90.1331C174.792 90.1331 174.405 89.9727 174.119 89.6872C173.834 89.4017 173.674 89.0145 173.674 88.6108ZM179.763 102.312C178.86 102.312 177.977 102.58 177.226 103.081C176.475 103.583 175.889 104.296 175.544 105.131C175.198 105.965 175.107 106.884 175.284 107.77C175.46 108.655 175.895 109.469 176.534 110.108C177.172 110.747 177.986 111.182 178.872 111.358C179.758 111.534 180.676 111.444 181.511 111.098C182.345 110.752 183.058 110.167 183.56 109.416C184.062 108.665 184.33 107.782 184.33 106.879C184.33 105.667 183.849 104.506 182.992 103.649C182.136 102.793 180.974 102.312 179.763 102.312ZM179.763 108.401C179.462 108.401 179.167 108.312 178.917 108.144C178.667 107.977 178.472 107.739 178.356 107.461C178.241 107.183 178.211 106.877 178.27 106.582C178.329 106.286 178.473 106.015 178.686 105.802C178.899 105.589 179.171 105.444 179.466 105.386C179.761 105.327 180.067 105.357 180.345 105.472C180.624 105.587 180.861 105.783 181.029 106.033C181.196 106.283 181.285 106.578 181.285 106.879C181.285 107.282 181.125 107.67 180.839 107.955C180.554 108.241 180.167 108.401 179.763 108.401Z" fill="#66B0FF"/>
<path d="M246.745 80.9992C250.67 81.0138 254.448 79.5122 257.292 76.8078C260.136 74.1033 261.826 70.405 262.008 66.4846C262.191 62.5643 260.853 58.7249 258.272 55.7677C255.692 52.8105 252.07 50.9641 248.161 50.6137C247.81 48.0649 246.549 45.7292 244.609 44.0388C242.67 42.3484 240.184 41.4177 237.611 41.4189C235.401 41.4108 233.244 42.0978 231.446 43.3827C229.488 40.4776 226.735 38.1971 223.517 36.8134C220.299 35.4297 216.75 35.0011 213.295 35.5789C209.84 36.1566 206.623 37.7163 204.03 40.0717C201.437 42.4272 199.576 45.479 198.67 48.863C197.161 48.0208 195.47 47.558 193.743 47.5147C192.016 47.4713 190.304 47.8487 188.755 48.6143C187.205 49.3798 185.866 50.5106 184.851 51.9091C183.836 53.3076 183.177 54.9319 182.929 56.6421H182.807C179.578 56.6421 176.48 57.9252 174.196 60.2091C171.912 62.493 170.629 65.5907 170.629 68.8206C170.629 72.0506 171.912 75.1483 174.196 77.4322C176.48 79.7161 179.578 80.9992 182.807 80.9992H198.031V87.0885H182.807V90.1331H198.031V96.2224H188.897C188.493 96.2254 188.106 96.3835 187.816 96.6639L183.249 101.231L185.411 103.393L189.521 99.2671H199.02C200.694 101.424 203.015 102.987 205.642 103.727V107.777L201.517 111.887L203.679 114.049L208.245 109.482C208.526 109.192 208.684 108.805 208.687 108.401V104.58C210.693 104.997 212.729 105.246 214.776 105.326V114.49H217.821V105.326C219.868 105.246 221.905 104.997 223.91 104.58V108.401C223.913 108.805 224.071 109.192 224.352 109.482L228.919 114.049L231.08 111.887L226.955 107.777V103.727C229.583 102.987 231.904 101.424 233.577 99.2671H243.076L247.186 103.393L249.348 101.231L244.781 96.6639C244.491 96.3835 244.104 96.2254 243.7 96.2224H234.566V90.1331H249.79V87.0885H234.566V80.9992H246.745ZM231.522 96.2224C231.522 99.0996 225.006 102.312 216.299 102.312C207.591 102.312 201.075 99.0996 201.075 96.2224V90.7573C204.287 93.1626 209.798 94.7001 216.299 94.7001C222.799 94.7001 228.31 93.1626 231.522 90.7573V96.2224ZM231.522 85.5662C231.522 88.4434 225.006 91.6555 216.299 91.6555C207.591 91.6555 201.075 88.4434 201.075 85.5662V80.101C204.287 82.5063 209.798 84.0439 216.299 84.0439C222.799 84.0439 228.31 82.5063 231.522 80.101V85.5662ZM216.299 80.9992C207.591 80.9992 201.075 77.7871 201.075 74.9099C201.075 72.0327 207.591 68.8206 216.299 68.8206C225.006 68.8206 231.522 72.0327 231.522 74.9099C231.522 77.7871 225.006 80.9992 216.299 80.9992ZM216.299 65.776C205.886 65.776 198.031 69.7036 198.031 74.9099V77.9546H182.807C180.385 77.9546 178.062 76.9923 176.349 75.2793C174.636 73.5664 173.674 71.2431 173.674 68.8206C173.674 66.3982 174.636 64.0749 176.349 62.362C178.062 60.649 180.385 59.6867 182.807 59.6867C183.236 59.685 183.664 59.7207 184.086 59.7933C184.309 59.8144 184.534 59.7887 184.746 59.7179C184.958 59.6472 185.154 59.5328 185.319 59.3823C185.487 59.2264 185.62 59.0379 185.712 58.8285C185.803 58.619 185.851 58.393 185.852 58.1644C185.851 56.6795 186.285 55.2268 187.099 53.9852C187.914 52.7436 189.074 51.7674 190.436 51.1768C191.799 50.5862 193.304 50.407 194.767 50.6613C196.23 50.9156 197.587 51.5922 198.67 52.6079C198.876 52.7974 199.129 52.9267 199.404 52.9815C199.678 53.0363 199.962 53.0146 200.224 52.9187C200.487 52.8227 200.718 52.6563 200.892 52.4377C201.067 52.2191 201.177 51.9567 201.212 51.6793C201.617 48.4758 203.03 45.4842 205.248 43.1374C207.466 40.7905 210.373 39.2103 213.548 38.6254C216.724 38.0405 220.003 38.4812 222.911 39.8838C225.82 41.2865 228.206 43.5782 229.725 46.4273C229.836 46.6399 229.996 46.8227 230.192 46.9605C230.388 47.0983 230.614 47.1869 230.852 47.2189C231.089 47.2504 231.331 47.227 231.558 47.1505C231.785 47.0739 231.991 46.9463 232.161 46.7774C232.866 46.0435 233.712 45.46 234.649 45.0623C235.586 44.6646 236.593 44.4609 237.611 44.4635C239.63 44.4635 241.566 45.2654 242.993 46.6929C244.421 48.1203 245.223 50.0564 245.223 52.0751C245.223 52.4789 245.383 52.8661 245.669 53.1516C245.954 53.437 246.341 53.5974 246.745 53.5974C249.975 53.5974 253.073 54.8805 255.357 57.1645C257.64 59.4484 258.924 62.546 258.924 65.776C258.924 69.006 257.64 72.1036 255.357 74.3876C253.073 76.6715 249.975 77.9546 246.745 77.9546H234.566V74.9099C234.566 69.7036 226.711 65.776 216.299 65.776Z" fill="#616161"/>
<path d="M257.402 84.0439C256.499 84.0439 255.616 84.3118 254.865 84.8136C254.114 85.3154 253.529 86.0287 253.183 86.8632C252.837 87.6977 252.747 88.616 252.923 89.5019C253.099 90.3878 253.534 91.2015 254.173 91.8402C254.812 92.4789 255.625 92.9139 256.511 93.0901C257.397 93.2663 258.316 93.1759 259.15 92.8302C259.985 92.4846 260.698 91.8992 261.2 91.1482C261.701 90.3971 261.969 89.5142 261.969 88.6109C261.969 87.3997 261.488 86.2381 260.632 85.3816C259.775 84.5251 258.614 84.0439 257.402 84.0439ZM257.402 90.1332C257.101 90.1332 256.807 90.044 256.557 89.8767C256.306 89.7094 256.111 89.4716 255.996 89.1935C255.881 88.9153 255.851 88.6092 255.909 88.3139C255.968 88.0186 256.113 87.7474 256.326 87.5345C256.539 87.3216 256.81 87.1766 257.105 87.1178C257.401 87.0591 257.707 87.0892 257.985 87.2045C258.263 87.3197 258.501 87.5148 258.668 87.7652C258.835 88.0155 258.925 88.3098 258.925 88.6109C258.925 89.0147 258.764 89.4019 258.479 89.6874C258.193 89.9728 257.806 90.1332 257.402 90.1332ZM252.835 102.312C251.932 102.312 251.049 102.58 250.298 103.081C249.547 103.583 248.962 104.297 248.616 105.131C248.27 105.966 248.18 106.884 248.356 107.77C248.532 108.656 248.967 109.469 249.606 110.108C250.245 110.747 251.059 111.182 251.944 111.358C252.83 111.534 253.749 111.444 254.583 111.098C255.418 110.752 256.131 110.167 256.633 109.416C257.134 108.665 257.402 107.782 257.402 106.879C257.402 105.668 256.921 104.506 256.065 103.649C255.208 102.793 254.047 102.312 252.835 102.312ZM252.835 108.401C252.534 108.401 252.24 108.312 251.99 108.145C251.739 107.977 251.544 107.74 251.429 107.461C251.314 107.183 251.284 106.877 251.342 106.582C251.401 106.286 251.546 106.015 251.759 105.802C251.972 105.589 252.243 105.444 252.538 105.386C252.834 105.327 253.14 105.357 253.418 105.472C253.696 105.588 253.934 105.783 254.101 106.033C254.268 106.283 254.358 106.578 254.358 106.879C254.358 107.283 254.197 107.67 253.912 107.955C253.626 108.241 253.239 108.401 252.835 108.401ZM234.568 112.968C233.664 112.968 232.781 113.236 232.03 113.738C231.279 114.24 230.694 114.953 230.348 115.787C230.003 116.622 229.912 117.54 230.088 118.426C230.265 119.312 230.699 120.126 231.338 120.764C231.977 121.403 232.791 121.838 233.677 122.014C234.562 122.19 235.481 122.1 236.315 121.754C237.15 121.409 237.863 120.823 238.365 120.072C238.867 119.321 239.134 118.438 239.134 117.535C239.134 116.324 238.653 115.162 237.797 114.306C236.94 113.449 235.779 112.968 234.568 112.968ZM234.568 119.057C234.266 119.057 233.972 118.968 233.722 118.801C233.471 118.634 233.276 118.396 233.161 118.118C233.046 117.839 233.016 117.533 233.074 117.238C233.133 116.943 233.278 116.671 233.491 116.459C233.704 116.246 233.975 116.101 234.271 116.042C234.566 115.983 234.872 116.013 235.15 116.129C235.428 116.244 235.666 116.439 235.833 116.689C236.001 116.94 236.09 117.234 236.09 117.535C236.09 117.939 235.929 118.326 235.644 118.611C235.358 118.897 234.971 119.057 234.568 119.057ZM216.3 117.535C215.396 117.535 214.513 117.803 213.762 118.305C213.011 118.807 212.426 119.52 212.08 120.354C211.735 121.189 211.644 122.107 211.82 122.993C211.997 123.879 212.432 124.693 213.07 125.331C213.709 125.97 214.523 126.405 215.409 126.581C216.295 126.757 217.213 126.667 218.047 126.321C218.882 125.976 219.595 125.39 220.097 124.639C220.599 123.888 220.867 123.005 220.867 122.102C220.867 120.891 220.385 119.729 219.529 118.873C218.673 118.016 217.511 117.535 216.3 117.535ZM216.3 123.624C215.999 123.624 215.704 123.535 215.454 123.368C215.204 123.2 215.008 122.963 214.893 122.685C214.778 122.406 214.748 122.1 214.807 121.805C214.865 121.51 215.01 121.238 215.223 121.026C215.436 120.813 215.707 120.668 216.003 120.609C216.298 120.55 216.604 120.58 216.882 120.696C217.16 120.811 217.398 121.006 217.565 121.256C217.733 121.507 217.822 121.801 217.822 122.102C217.822 122.506 217.662 122.893 217.376 123.178C217.091 123.464 216.703 123.624 216.3 123.624ZM198.032 112.968C197.129 112.968 196.246 113.236 195.495 113.738C194.744 114.24 194.158 114.953 193.812 115.787C193.467 116.622 193.376 117.54 193.553 118.426C193.729 119.312 194.164 120.126 194.802 120.764C195.441 121.403 196.255 121.838 197.141 122.014C198.027 122.19 198.945 122.1 199.78 121.754C200.614 121.409 201.327 120.823 201.829 120.072C202.331 119.321 202.599 118.438 202.599 117.535C202.599 116.324 202.118 115.162 201.261 114.306C200.405 113.449 199.243 112.968 198.032 112.968ZM198.032 119.057C197.731 119.057 197.436 118.968 197.186 118.801C196.936 118.634 196.741 118.396 196.625 118.118C196.51 117.839 196.48 117.533 196.539 117.238C196.597 116.943 196.742 116.671 196.955 116.459C197.168 116.246 197.44 116.101 197.735 116.042C198.03 115.983 198.336 116.013 198.614 116.129C198.893 116.244 199.13 116.439 199.298 116.689C199.465 116.94 199.554 117.234 199.554 117.535C199.554 117.939 199.394 118.326 199.108 118.611C198.823 118.897 198.436 119.057 198.032 119.057Z" fill="#66B0FF"/>
</svg>
