<svg width="62" height="62" viewBox="0 0 62 62" fill="none" xmlns="http://www.w3.org/2000/svg">
<path d="M22.2813 32.9375H24.2188V34.875H22.2813V32.9375ZM26.1563 33.9062H28.0938V35.8438H26.1563V33.9062ZM22.2813 39.7188H24.2188V41.6562H22.2813V39.7188ZM26.1563 40.6875H28.0938V42.625H26.1563V40.6875ZM25.1875 26.1562H36.8125V28.0938H25.1875V26.1562ZM45.5312 11.625H47.4688V13.5625H45.5312V11.625ZM41.6562 11.625H43.5938V13.5625H41.6562V11.625ZM56.1875 21.3125H54.25C54.25 22.3402 53.8417 23.3258 53.115 24.0525C52.3883 24.7792 51.4027 25.1875 50.375 25.1875V27.125C51.9161 27.1235 53.3936 26.5106 54.4834 25.4209C55.5731 24.3311 56.186 22.8536 56.1875 21.3125ZM7.75 35.8438C7.75 35.2689 7.57955 34.7071 7.26021 34.2291C6.94087 33.7512 6.48697 33.3787 5.95592 33.1587C5.42488 32.9388 4.84053 32.8812 4.27677 32.9933C3.71301 33.1055 3.19517 33.3823 2.78872 33.7887C2.38228 34.1952 2.10548 34.713 1.99334 35.2768C1.88121 35.8405 1.93876 36.4249 2.15873 36.9559C2.37869 37.487 2.7512 37.9409 3.22913 38.2602C3.70706 38.5795 4.26895 38.75 4.84375 38.75C5.61454 38.75 6.35375 38.4438 6.89878 37.8988C7.44381 37.3538 7.75 36.6145 7.75 35.8438ZM3.875 35.8438C3.875 35.6521 3.93182 35.4649 4.03827 35.3055C4.14471 35.1462 4.29601 35.0221 4.47303 34.9487C4.65004 34.8754 4.84483 34.8562 5.03275 34.8936C5.22066 34.931 5.39328 35.0233 5.52876 35.1587C5.66424 35.2942 5.75651 35.4668 5.79389 35.6548C5.83127 35.8427 5.81208 36.0375 5.73876 36.2145C5.66544 36.3915 5.54127 36.5428 5.38196 36.6492C5.22265 36.7557 5.03535 36.8125 4.84375 36.8125C4.58682 36.8125 4.34042 36.7104 4.15874 36.5288C3.97707 36.3471 3.875 36.1007 3.875 35.8438ZM7.75 44.5625C7.1752 44.5625 6.61331 44.7329 6.13538 45.0523C5.65744 45.3716 5.28494 45.8255 5.06498 46.3566C4.84501 46.8876 4.78746 47.472 4.89959 48.0357C5.01173 48.5995 5.28853 49.1173 5.69497 49.5238C6.10142 49.9302 6.61926 50.207 7.18302 50.3192C7.74678 50.4313 8.33113 50.3737 8.86217 50.1538C9.39322 49.9338 9.84712 49.5613 10.1665 49.0834C10.4858 48.6054 10.6563 48.0436 10.6563 47.4688C10.6563 46.698 10.3501 45.9588 9.80503 45.4137C9.26 44.8687 8.52079 44.5625 7.75 44.5625ZM7.75 48.4375C7.5584 48.4375 7.3711 48.3807 7.21179 48.2742C7.05248 48.1678 6.92832 48.0165 6.85499 47.8395C6.78167 47.6625 6.76249 47.4677 6.79987 47.2798C6.83724 47.0918 6.92951 46.9192 7.06499 46.7837C7.20047 46.6483 7.37309 46.556 7.56101 46.5186C7.74893 46.4812 7.94371 46.5004 8.12073 46.5737C8.29774 46.6471 8.44904 46.7712 8.55549 46.9305C8.66194 47.0899 8.71875 47.2771 8.71875 47.4688C8.71875 47.7257 8.61669 47.9721 8.43501 48.1538C8.25333 48.3354 8.00693 48.4375 7.75 48.4375Z" fill="#616161"/>
<path d="M50.375 31C52.8724 31.0093 55.277 30.0537 57.0868 28.3327C58.8966 26.6117 59.9718 24.2582 60.0881 21.7634C60.2043 19.2687 59.3526 16.8254 57.7106 14.9436C56.0687 13.0617 53.7634 11.8867 51.2759 11.6637C51.053 10.0418 50.2502 8.55543 49.016 7.47973C47.7818 6.40402 46.1997 5.81174 44.5625 5.81247C43.156 5.80732 41.7835 6.24449 40.6391 7.06216C39.3932 5.21346 37.6417 3.76226 35.5936 2.88171C33.5455 2.00116 31.2873 1.72844 29.0885 2.0961C26.8897 2.46377 24.8431 3.45628 23.1929 4.95521C21.5427 6.45414 20.3586 8.3962 19.7819 10.5497C18.8218 10.0137 17.7457 9.7192 16.6465 9.69162C15.5472 9.66404 14.4578 9.90419 13.472 10.3914C12.4862 10.8785 11.6337 11.5981 10.9879 12.4881C10.3421 13.378 9.92241 14.4117 9.765 15.5H9.6875C7.63207 15.5 5.66083 16.3165 4.20742 17.7699C2.75402 19.2233 1.9375 21.1945 1.9375 23.25C1.9375 25.3054 2.75402 27.2766 4.20742 28.73C5.66083 30.1835 7.63207 31 9.6875 31H19.375V34.875H9.6875V36.8125H19.375V40.6875H13.5625C13.3057 40.6894 13.0594 40.79 12.8747 40.9684L9.96844 43.8747L11.3441 45.2503L13.9597 42.625H20.0047C21.0695 43.9976 22.5466 44.9925 24.2188 45.4634V48.0403L21.5934 50.6559L22.9691 52.0315L25.8753 49.1253C26.0538 48.9406 26.1543 48.6943 26.1562 48.4375V46.0059C27.4326 46.2711 28.7287 46.4299 30.0312 46.4806V52.3125H31.9688V46.4806C33.2713 46.4299 34.5674 46.2711 35.8438 46.0059V48.4375C35.8457 48.6943 35.9462 48.9406 36.1247 49.1253L39.0309 52.0315L40.4066 50.6559L37.7812 48.0403V45.4634C39.4534 44.9925 40.9305 43.9976 41.9953 42.625H48.0403L50.6559 45.2503L52.0316 43.8747L49.1253 40.9684C48.9406 40.79 48.6943 40.6894 48.4375 40.6875H42.625V36.8125H52.3125V34.875H42.625V31H50.375ZM40.6875 40.6875C40.6875 42.5184 36.5412 44.5625 31 44.5625C25.4587 44.5625 21.3125 42.5184 21.3125 40.6875V37.2097C23.3566 38.7403 26.8634 39.7187 31 39.7187C35.1366 39.7187 38.6434 38.7403 40.6875 37.2097V40.6875ZM40.6875 33.9062C40.6875 35.7372 36.5412 37.7812 31 37.7812C25.4587 37.7812 21.3125 35.7372 21.3125 33.9062V30.4284C23.3566 31.959 26.8634 32.9375 31 32.9375C35.1366 32.9375 38.6434 31.959 40.6875 30.4284V33.9062ZM31 31C25.4587 31 21.3125 28.9559 21.3125 27.125C21.3125 25.294 25.4587 23.25 31 23.25C36.5412 23.25 40.6875 25.294 40.6875 27.125C40.6875 28.9559 36.5412 31 31 31ZM31 21.3125C24.3738 21.3125 19.375 23.8118 19.375 27.125V29.0625H9.6875C8.14593 29.0625 6.6675 28.4501 5.57744 27.36C4.48739 26.27 3.875 24.7915 3.875 23.25C3.875 21.7084 4.48739 20.23 5.57744 19.1399C6.6675 18.0499 8.14593 17.4375 9.6875 17.4375C9.96021 17.4364 10.2325 17.4591 10.5013 17.5053C10.643 17.5187 10.7861 17.5024 10.9212 17.4573C11.0563 17.4123 11.1806 17.3395 11.2859 17.2437C11.3924 17.1445 11.4774 17.0246 11.5357 16.8913C11.594 16.758 11.6244 16.6142 11.625 16.4687C11.6245 15.5238 11.9004 14.5993 12.4188 13.8092C12.9371 13.0191 13.6753 12.3979 14.5422 12.0221C15.4092 11.6462 16.3672 11.5322 17.2982 11.694C18.2292 11.8558 19.0926 12.2864 19.7819 12.9328C19.9127 13.0534 20.0742 13.1356 20.2486 13.1705C20.4231 13.2054 20.6038 13.1916 20.7709 13.1305C20.9381 13.0695 21.0851 12.9636 21.196 12.8245C21.307 12.6853 21.3774 12.5184 21.3997 12.3418C21.6571 10.3033 22.5565 8.39949 23.9678 6.90605C25.3791 5.41262 27.2289 4.40702 29.2497 4.0348C31.2705 3.66258 33.3573 3.94306 35.208 4.83564C37.0588 5.72822 38.5775 7.18658 39.5444 8.99966C39.6147 9.13493 39.7166 9.2513 39.8414 9.33897C39.9661 9.42664 40.1101 9.48304 40.2612 9.50341C40.4124 9.52346 40.5661 9.50856 40.7105 9.45986C40.8549 9.41115 40.9863 9.32994 41.0944 9.22247C41.5429 8.7554 42.0815 8.3841 42.6776 8.13102C43.2737 7.87793 43.9149 7.7483 44.5625 7.74997C45.8471 7.74997 47.0792 8.26029 47.9875 9.16867C48.8959 10.0771 49.4062 11.3091 49.4062 12.5937C49.4062 12.8506 49.5083 13.0971 49.69 13.2787C49.8717 13.4604 50.1181 13.5625 50.375 13.5625C52.4304 13.5625 54.4017 14.379 55.8551 15.8324C57.3085 17.2858 58.125 19.257 58.125 21.3125C58.125 23.3679 57.3085 25.3391 55.8551 26.7925C54.4017 28.246 52.4304 29.0625 50.375 29.0625H42.625V27.125C42.625 23.8118 37.6263 21.3125 31 21.3125Z" fill="#616161"/>
<path d="M57.1562 32.9375C56.5814 32.9375 56.0196 33.1079 55.5416 33.4273C55.0637 33.7466 54.6912 34.2005 54.4712 34.7316C54.2513 35.2626 54.1937 35.847 54.3058 36.4107C54.418 36.9745 54.6948 37.4923 55.1012 37.8988C55.5077 38.3052 56.0255 38.582 56.5893 38.6942C57.153 38.8063 57.7374 38.7487 58.2684 38.5288C58.7995 38.3088 59.2534 37.9363 59.5727 37.4584C59.8921 36.9804 60.0625 36.4186 60.0625 35.8438C60.0625 35.073 59.7563 34.3338 59.2113 33.7887C58.6662 33.2437 57.927 32.9375 57.1562 32.9375ZM57.1562 36.8125C56.9646 36.8125 56.7774 36.7557 56.618 36.6492C56.4587 36.5428 56.3346 36.3915 56.2612 36.2145C56.1879 36.0375 56.1687 35.8427 56.2061 35.6548C56.2435 35.4668 56.3358 35.2942 56.4712 35.1587C56.6067 35.0233 56.7793 34.931 56.9673 34.8936C57.1552 34.8562 57.35 34.8754 57.527 34.9487C57.704 35.0221 57.8553 35.1462 57.9617 35.3055C58.0682 35.4649 58.125 35.6521 58.125 35.8438C58.125 36.1007 58.0229 36.3471 57.8413 36.5288C57.6596 36.7104 57.4132 36.8125 57.1562 36.8125ZM54.25 44.5625C53.6752 44.5625 53.1133 44.733 52.6354 45.0523C52.1574 45.3716 51.7849 45.8255 51.565 46.3566C51.345 46.8876 51.2875 47.472 51.3996 48.0357C51.5117 48.5995 51.7885 49.1173 52.195 49.5238C52.6014 49.9302 53.1193 50.207 53.683 50.3192C54.2468 50.4313 54.8311 50.3737 55.3622 50.1538C55.8932 49.9338 56.3471 49.5613 56.6665 49.0834C56.9858 48.6054 57.1562 48.0436 57.1562 47.4688C57.1562 46.698 56.8501 45.9587 56.305 45.4137C55.76 44.8687 55.0208 44.5625 54.25 44.5625ZM54.25 48.4375C54.0584 48.4375 53.8711 48.3807 53.7118 48.2742C53.5525 48.1678 53.4283 48.0165 53.355 47.8395C53.2817 47.6625 53.2625 47.4677 53.2999 47.2798C53.3372 47.0918 53.4295 46.9192 53.565 46.7837C53.7005 46.6483 53.8731 46.556 54.061 46.5186C54.2489 46.4812 54.4437 46.5004 54.6207 46.5737C54.7977 46.6471 54.949 46.7712 55.0555 46.9305C55.1619 47.0899 55.2188 47.2771 55.2188 47.4688C55.2188 47.7257 55.1167 47.9721 54.935 48.1538C54.7533 48.3354 54.5069 48.4375 54.25 48.4375ZM42.625 51.3438C42.0502 51.3438 41.4883 51.5142 41.0104 51.8335C40.5324 52.1529 40.1599 52.6068 39.94 53.1378C39.72 53.6689 39.6625 54.2532 39.7746 54.817C39.8867 55.3807 40.1635 55.8986 40.57 56.305C40.9764 56.7115 41.4943 56.9883 42.058 57.1004C42.6218 57.2125 43.2061 57.155 43.7372 56.935C44.2682 56.7151 44.7221 56.3426 45.0415 55.8646C45.3608 55.3867 45.5313 54.8248 45.5313 54.25C45.5313 53.4792 45.2251 52.74 44.68 52.195C44.135 51.6499 43.3958 51.3438 42.625 51.3438ZM42.625 55.2188C42.4334 55.2188 42.2461 55.1619 42.0868 55.0555C41.9275 54.949 41.8033 54.7977 41.73 54.6207C41.6567 54.4437 41.6375 54.2489 41.6749 54.061C41.7122 53.8731 41.8045 53.7005 41.94 53.565C42.0755 53.4295 42.2481 53.3372 42.436 53.2999C42.6239 53.2625 42.8187 53.2817 42.9957 53.355C43.1727 53.4283 43.324 53.5525 43.4305 53.7118C43.5369 53.8711 43.5938 54.0584 43.5938 54.25C43.5938 54.5069 43.4917 54.7533 43.31 54.935C43.1283 55.1167 42.8819 55.2188 42.625 55.2188ZM31 54.25C30.4252 54.25 29.8633 54.4205 29.3854 54.7398C28.9074 55.0591 28.5349 55.513 28.315 56.0441C28.095 56.5751 28.0375 57.1595 28.1496 57.7232C28.2617 58.287 28.5385 58.8048 28.945 59.2113C29.3514 59.6177 29.8693 59.8945 30.433 60.0067C30.9968 60.1188 31.5811 60.0612 32.1122 59.8413C32.6432 59.6213 33.0971 59.2488 33.4165 58.7709C33.7358 58.2929 33.9063 57.7311 33.9063 57.1562C33.9063 56.3855 33.6001 55.6462 33.055 55.1012C32.51 54.5562 31.7708 54.25 31 54.25ZM31 58.125C30.8084 58.125 30.6211 58.0682 30.4618 57.9617C30.3025 57.8553 30.1783 57.704 30.105 57.527C30.0317 57.35 30.0125 57.1552 30.0499 56.9673C30.0872 56.7793 30.1795 56.6067 30.315 56.4712C30.4505 56.3358 30.6231 56.2435 30.811 56.2061C30.9989 56.1687 31.1937 56.1879 31.3707 56.2612C31.5477 56.3346 31.699 56.4587 31.8055 56.618C31.9119 56.7774 31.9688 56.9646 31.9688 57.1562C31.9688 57.4132 31.8667 57.6596 31.685 57.8413C31.5033 58.0229 31.2569 58.125 31 58.125ZM19.375 51.3438C18.8002 51.3438 18.2383 51.5142 17.7604 51.8335C17.2824 52.1529 16.9099 52.6068 16.69 53.1378C16.47 53.6689 16.4125 54.2532 16.5246 54.817C16.6367 55.3807 16.9135 55.8986 17.32 56.305C17.7264 56.7115 18.2443 56.9883 18.808 57.1004C19.3718 57.2125 19.9561 57.155 20.4872 56.935C21.0182 56.7151 21.4721 56.3426 21.7915 55.8646C22.1108 55.3867 22.2813 54.8248 22.2813 54.25C22.2813 53.4792 21.9751 52.74 21.43 52.195C20.885 51.6499 20.1458 51.3438 19.375 51.3438ZM19.375 55.2188C19.1834 55.2188 18.9961 55.1619 18.8368 55.0555C18.6775 54.949 18.5533 54.7977 18.48 54.6207C18.4067 54.4437 18.3875 54.2489 18.4249 54.061C18.4622 53.8731 18.5545 53.7005 18.69 53.565C18.8255 53.4295 18.9981 53.3372 19.186 53.2999C19.3739 53.2625 19.5687 53.2817 19.7457 53.355C19.9227 53.4283 20.074 53.5525 20.1805 53.7118C20.2869 53.8711 20.3438 54.0584 20.3438 54.25C20.3438 54.5069 20.2417 54.7533 20.06 54.935C19.8783 55.1167 19.6319 55.2188 19.375 55.2188Z" fill="#616161"/>
</svg>
