<svg width="432" height="163" viewBox="0 0 432 163" fill="none" xmlns="http://www.w3.org/2000/svg">
<rect x="200.601" y="61.472" width="29.3511" height="29.2915" rx="1.06413" stroke="#424242" stroke-width="0.788247"/>
<rect x="201.945" y="62.8438" width="26.6122" height="26.558" rx="1.06413" stroke="#424242" stroke-width="0.788247"/>
<path d="M223.745 88.5359L223.816 83.4343" stroke="#66B0FF" stroke-width="0.788247"/>
<path d="M214.661 88.5384V79.9957H210.711V77.1072" stroke="#66B0FF" stroke-width="0.788247"/>
<path d="M205.983 88.535L205.949 77.554" stroke="#66B0FF" stroke-width="0.788247"/>
<path d="M224.156 63.7065L224.243 70.3337" stroke="#66B0FF" stroke-width="0.788247"/>
<path d="M213.84 63.7065V67.4528H217.394V70.8018" stroke="#66B0FF" stroke-width="0.788247"/>
<path d="M204.52 63.7039V68.5381" stroke="#66B0FF" stroke-width="0.788247"/>
<path d="M225.272 71.7465C225.272 72.2832 224.836 72.7197 224.296 72.7197C223.756 72.7197 223.32 72.2832 223.32 71.7465C223.32 71.2097 223.756 70.7733 224.296 70.7733C224.836 70.7733 225.272 71.2097 225.272 71.7465Z" stroke="#66B0FF" stroke-width="0.788247"/>
<path d="M218.385 72.4303C218.385 72.967 217.949 73.4035 217.409 73.4035C216.869 73.4035 216.433 72.967 216.433 72.4303C216.433 71.8936 216.869 71.4571 217.409 71.4571C217.949 71.4571 218.385 71.8936 218.385 72.4303Z" stroke="#66B0FF" stroke-width="0.788247"/>
<path d="M205.674 69.9716C205.674 70.5083 205.238 70.9448 204.698 70.9448C204.158 70.9448 203.722 70.5083 203.722 69.9716C203.722 69.4348 204.158 68.9984 204.698 68.9984C205.238 68.9984 205.674 69.4348 205.674 69.9716Z" stroke="#66B0FF" stroke-width="0.788247"/>
<path d="M206.932 76.2604C206.932 76.7971 206.496 77.2336 205.956 77.2336C205.416 77.2336 204.98 76.7971 204.98 76.2604C204.98 75.7236 205.416 75.2872 205.956 75.2872C206.496 75.2872 206.932 75.7236 206.932 76.2604Z" stroke="#66B0FF" stroke-width="0.788247"/>
<path d="M211.506 75.8456C211.506 76.3823 211.07 76.8188 210.53 76.8188C209.99 76.8188 209.554 76.3823 209.554 75.8456C209.554 75.3088 209.99 74.8724 210.53 74.8724C211.07 74.8724 211.506 75.3088 211.506 75.8456Z" stroke="#66B0FF" stroke-width="0.788247"/>
<path d="M224.854 82.2714C224.854 82.8081 224.418 83.2446 223.878 83.2446C223.338 83.2446 222.902 82.8081 222.902 82.2714C222.902 81.7346 223.338 81.2982 223.878 81.2982C224.418 81.2982 224.854 81.7346 224.854 82.2714Z" stroke="#66B0FF" stroke-width="0.788247"/>
<path d="M223.777 91.1606V97.4504C223.777 97.7524 224.022 97.9972 224.324 97.9972H224.875C225.177 97.9972 225.421 97.7524 225.421 97.4504V91.1606" stroke="#424242" stroke-width="0.788247"/>
<path d="M217.828 91.1606V97.4504C217.828 97.7524 218.073 97.9972 218.375 97.9972H218.925C219.227 97.9972 219.472 97.7524 219.472 97.4504V91.1606" stroke="#424242" stroke-width="0.788247"/>
<path d="M211.793 91.1606V97.4504C211.793 97.7524 212.038 97.9972 212.34 97.9972H212.89C213.192 97.9972 213.437 97.7524 213.437 97.4504V91.1606" stroke="#424242" stroke-width="0.788247"/>
<path d="M205.738 91.1606V97.4504C205.738 97.7524 205.983 97.9972 206.285 97.9972H206.835C207.137 97.9972 207.382 97.7524 207.382 97.4504V91.1606" stroke="#424242" stroke-width="0.788247"/>
<path d="M207.328 61.082V54.7923C207.328 54.4903 207.083 54.2455 206.781 54.2455H206.231C205.929 54.2455 205.684 54.4903 205.684 54.7923V61.082" stroke="#424242" stroke-width="0.788247"/>
<path d="M213.277 61.082V54.7923C213.277 54.4903 213.033 54.2455 212.73 54.2455H212.18C211.878 54.2455 211.633 54.4903 211.633 54.7923V61.082" stroke="#424242" stroke-width="0.788247"/>
<path d="M219.312 61.082V54.7923C219.312 54.4903 219.068 54.2455 218.766 54.2455H218.215C217.913 54.2455 217.668 54.4903 217.668 54.7923V61.082" stroke="#424242" stroke-width="0.788247"/>
<path d="M225.367 61.082V54.7923C225.367 54.4903 225.122 54.2455 224.82 54.2455H224.27C223.968 54.2455 223.723 54.4903 223.723 54.7923V61.082" stroke="#424242" stroke-width="0.788247"/>
<path d="M230.328 68.3308H236.631C236.933 68.3308 237.178 68.086 237.178 67.784V67.2369C237.178 66.9349 236.933 66.69 236.631 66.69H230.328" stroke="#424242" stroke-width="0.788247"/>
<path d="M230.328 74.3457H236.631C236.933 74.3457 237.178 74.1009 237.178 73.7989V73.2518C237.178 72.9498 236.933 72.7049 236.631 72.7049H230.328" stroke="#424242" stroke-width="0.788247"/>
<path d="M230.328 80.3623H236.631C236.933 80.3623 237.178 80.1175 237.178 79.8155V79.2684C237.178 78.9664 236.933 78.7215 236.631 78.7215H230.328" stroke="#424242" stroke-width="0.788247"/>
<path d="M230.328 86.3794H236.631C236.933 86.3794 237.178 86.1346 237.178 85.8325V85.2855C237.178 84.9835 236.933 84.7386 236.631 84.7386H230.328" stroke="#424242" stroke-width="0.788247"/>
<path d="M200.18 84.7415H193.876C193.574 84.7415 193.33 84.9863 193.33 85.2883V85.8354C193.33 86.1374 193.574 86.3822 193.876 86.3822H200.18" stroke="#424242" stroke-width="0.788247"/>
<path d="M200.18 78.7261H193.876C193.574 78.7261 193.33 78.9709 193.33 79.2729V79.82C193.33 80.122 193.574 80.3668 193.876 80.3668H200.18" stroke="#424242" stroke-width="0.788247"/>
<path d="M200.18 72.7095H193.876C193.574 72.7095 193.33 72.9543 193.33 73.2563V73.8034C193.33 74.1054 193.574 74.3502 193.876 74.3502H200.18" stroke="#424242" stroke-width="0.788247"/>
<path d="M200.18 66.6924H193.876C193.574 66.6924 193.33 66.9372 193.33 67.2392V67.7863C193.33 68.0883 193.574 68.3332 193.876 68.3332H200.18" stroke="#424242" stroke-width="0.788247"/>
<path d="M163.355 44.6147C163.355 43.8265 163.994 43.1875 164.783 43.1875H266.294C267.082 43.1875 267.721 43.8265 267.721 44.6147V109.503H163.355V44.6147Z" stroke="#424242" stroke-width="1.875"/>
<rect x="171.445" y="50.3826" width="88.262" height="52.1002" stroke="#424242" stroke-width="1.875"/>
<path d="M160.609 110.354H270.504V114.66C270.504 115.883 269.512 116.875 268.289 116.875H162.825C161.601 116.875 160.609 115.883 160.609 114.66V110.354Z" stroke="#424242" stroke-width="1.875"/>
</svg>
