<svg width="431" height="163" viewBox="0 0 431 163" fill="none" xmlns="http://www.w3.org/2000/svg">
<g clip-path="url(#clip0_2249_19232)">
<path d="M228.009 58.6257L229.147 58.2421V60.2345C229.147 60.9152 229.704 61.4721 230.385 61.4721H235.335C236.016 61.4721 236.573 60.9152 236.573 60.2345V40.4336C236.573 39.753 236.016 39.1961 235.335 39.1961H230.385C229.704 39.1961 229.147 39.753 229.147 40.4336V42.0177L226.672 42.8469L224.42 42.092L222.935 35.2235C222.811 34.6542 222.304 34.2458 221.722 34.2458H216.772C216.19 34.2458 215.683 34.6542 215.559 35.2235L214.074 42.092L211.821 42.8469L209.346 42.0177V40.4336C209.346 39.753 208.789 39.1961 208.109 39.1961H203.159C202.478 39.1961 201.921 39.753 201.921 40.4336V60.2345C201.921 60.9152 202.478 61.4721 203.159 61.4721H208.109C208.789 61.4721 209.346 60.9152 209.346 60.2345V58.2421L210.485 58.6257L200.213 106.024H187.07V108.499H251.423V106.024H238.28L228.009 58.6257ZM231.622 41.6712H234.097V58.997H231.622V41.6712ZM206.871 58.997H204.396V41.6712H206.871V58.997ZM234.172 98.772L222.279 93.4382L232.068 89.0448L234.172 98.772ZM231.523 86.5697L220.484 91.52V82.5724L231.449 86.2356L231.523 86.5697ZM216.772 63.9472V44.1463H221.722V63.9472H216.772ZM230.843 83.4263L223.157 80.8646L229.803 78.6494L230.843 83.4263ZM229.283 76.2114L220.484 79.1444V72.1151L229.246 76.0629L229.283 76.2114ZM228.603 73.0556L222.266 70.2092L227.477 67.8703L228.603 73.068V73.0556ZM226.288 45.322C226.412 45.3591 226.548 45.3839 226.684 45.3839C226.821 45.3839 226.944 45.3591 227.081 45.322L229.16 44.6289V55.6308L227.489 56.1877L225.039 44.9012L226.288 45.322ZM224.209 52.7473L224.878 55.8536L224.209 55.6308V52.7473ZM224.209 58.2421L225.496 58.6752L226.152 61.6825L224.222 60.7172V58.2544L224.209 58.2421ZM222.972 66.4223C223.652 66.4223 224.209 65.8654 224.209 65.1848V63.4769L226.821 64.7764L226.957 65.3828L220.509 68.291V66.4223H222.984H222.972ZM217.774 36.721H218.009V39.1961H220.484V36.721H220.719L221.796 41.6712H216.697L217.774 36.721ZM214.297 52.7473V55.6308L213.628 55.8536L214.297 52.7473ZM214.297 58.2421V60.7048L212.366 61.6701L213.022 58.6628L214.309 58.2297L214.297 58.2421ZM209.346 55.6308V44.6289L211.425 45.322C211.549 45.3591 211.685 45.3839 211.821 45.3839C211.958 45.3839 212.081 45.3591 212.217 45.322L213.467 44.9012L211.017 56.1877L209.346 55.6308ZM211.017 67.8579L216.227 70.1969L209.891 73.0432L211.017 67.8455V67.8579ZM208.678 78.637L215.324 80.8522L207.639 83.414L208.678 78.637ZM206.426 89.0325L216.215 93.4258L204.322 98.7597L206.426 89.0325ZM218.009 106.012H202.75L203.666 101.755L218.009 95.3192V105.999V106.012ZM218.009 91.5076L206.97 86.5574L207.044 86.2232L218.009 82.56V91.5076ZM218.009 79.132L209.21 76.199L209.247 76.0505L218.009 72.1027V79.132ZM218.009 68.2786L211.562 65.3704L211.698 64.764L214.309 63.4646V65.1724C214.309 65.853 214.866 66.4099 215.546 66.4099H218.022V68.2786H218.009ZM220.484 106.012V95.3316L234.828 101.767L235.743 106.024H220.484V106.012Z" fill="#616161"/>
<path d="M184.6 106.024H182.125V108.499H184.6V106.024Z" fill="#616161"/>
<path d="M256.377 106.024H253.902V108.499H256.377V106.024Z" fill="#616161"/>
<path d="M220.483 46.6213H218.008V49.0965H220.483V46.6213Z" fill="#66B0FF"/>
<path d="M220.483 58.9968H218.008V61.4719H220.483V58.9968Z" fill="#66B0FF"/>
<path d="M198.779 55.4326L200.128 53.3536C199.052 52.6605 198.42 51.4972 198.42 50.2473C198.42 48.9974 198.99 47.9578 199.967 47.2648L198.544 45.2476C196.923 46.3985 195.945 48.2672 195.945 50.2473C195.945 52.3388 197.01 54.2817 198.779 55.4326Z" fill="#66B0FF"/>
<path d="M196.439 43.6632L194.843 41.7698C192.331 43.8984 190.883 46.9923 190.883 50.247C190.883 53.5018 192.405 56.769 195.053 58.9099L196.613 56.9793C194.546 55.3086 193.358 52.8583 193.358 50.247C193.358 47.6358 194.484 45.3216 196.439 43.6632Z" fill="#66B0FF"/>
<path d="M191.442 62.4123L193.063 60.5312C190.044 57.9323 188.311 54.1826 188.311 50.2471C188.311 46.3117 189.982 42.698 192.89 40.1115L191.244 38.2676C187.816 41.3243 185.836 45.6929 185.836 50.2471C185.836 54.8013 187.878 59.3308 191.442 62.3999V62.4123Z" fill="#66B0FF"/>
<path d="M238.548 53.4027L239.971 55.42C241.592 54.269 242.57 52.4003 242.57 50.4202C242.57 48.3288 241.505 46.3858 239.736 45.2349L238.387 47.314C239.463 48.007 240.095 49.1703 240.095 50.4202C240.095 51.6702 239.525 52.7097 238.548 53.4027Z" fill="#66B0FF"/>
<path d="M247.617 50.4205C247.617 47.0543 246.094 43.8985 243.446 41.7576L241.887 43.6882C243.953 45.3589 245.141 47.8092 245.141 50.4205C245.141 53.0317 244.015 55.3459 242.06 57.0043L243.656 58.8977C246.169 56.7691 247.617 53.6752 247.617 50.4205Z" fill="#66B0FF"/>
<path d="M247.063 38.2551L245.441 40.1362C248.461 42.7351 250.194 46.4849 250.194 50.4203C250.194 54.3557 248.523 57.9694 245.615 60.5559L247.261 62.3999C250.689 59.3431 252.669 54.9745 252.669 50.4203C252.669 45.8661 250.627 41.3366 247.063 38.2675V38.2551Z" fill="#66B0FF"/>
</g>
<path d="M138.176 84.7599H131.579V79.9971C131.579 79.7501 131.489 79.5116 131.327 79.3252C131.165 79.1389 130.941 79.0173 130.697 78.9828V41.7482C130.696 40.7739 130.308 39.8398 129.619 39.1508C128.93 38.4619 127.996 38.0743 127.022 38.0732C126.048 38.0743 125.114 38.4619 124.425 39.1508C123.736 39.8398 123.348 40.7739 123.347 41.7482V78.9833C123.103 79.018 122.879 79.1397 122.717 79.326C122.555 79.5123 122.465 79.7507 122.465 79.9976V84.7604H86.2677V79.9976C86.2673 79.7507 86.1779 79.5123 86.0159 79.326C85.8539 79.1397 85.6302 79.018 85.3857 78.9833V41.7482C85.3857 40.7736 84.9985 39.8388 84.3093 39.1496C83.6201 38.4604 82.6854 38.0732 81.7107 38.0732C80.736 38.0732 79.8013 38.4604 79.1121 39.1496C78.4229 39.8388 78.0357 40.7736 78.0357 41.7482V78.9833C77.7913 79.018 77.5675 79.1397 77.4055 79.326C77.2435 79.5123 77.1541 79.7507 77.1537 79.9976V84.7604H70.5563C70.2835 84.7606 70.0218 84.8691 69.8289 85.062C69.636 85.2549 69.5275 85.5166 69.5273 85.7894V103.194C69.5275 103.467 69.636 103.729 69.8289 103.922C70.0218 104.115 70.2835 104.223 70.5563 104.223H77.9005V106.722C77.9006 106.995 78.0091 107.257 78.202 107.45C78.395 107.643 78.6566 107.751 78.9295 107.751H129.803C130.076 107.751 130.338 107.643 130.531 107.45C130.724 107.257 130.832 106.995 130.832 106.722V104.22H138.176C138.449 104.22 138.711 104.111 138.904 103.918C139.097 103.725 139.205 103.464 139.205 103.191V85.7894C139.205 85.6543 139.179 85.5204 139.127 85.3955C139.076 85.2706 139 85.1571 138.904 85.0615C138.809 84.9658 138.695 84.89 138.57 84.8382C138.445 84.7865 138.312 84.7599 138.176 84.7599ZM127.022 40.1312C127.451 40.1323 127.861 40.303 128.164 40.6061C128.467 40.9091 128.638 41.3197 128.639 41.7482V78.9686H125.405V41.7482C125.406 41.3196 125.576 40.9086 125.879 40.6055C126.182 40.3024 126.593 40.1319 127.022 40.1312ZM124.523 81.0266H129.521V84.7599H124.523V81.0266ZM81.7107 40.1312C81.9232 40.13 82.1337 40.1714 82.33 40.2529C82.5262 40.3344 82.7041 40.4544 82.8532 40.6058C83.0038 40.7554 83.1233 40.9335 83.2047 41.1295C83.2861 41.3256 83.3279 41.5359 83.3277 41.7482V78.9686H80.0937V41.7482C80.0943 41.3196 80.2649 40.9086 80.568 40.6055C80.8711 40.3024 81.282 40.1319 81.7107 40.1312ZM79.2117 81.0266H84.2097V84.7599H79.2117V81.0266ZM128.774 105.693H79.9585V104.22H128.774V105.693ZM137.147 102.162H71.5853V86.8179H137.147V102.162Z" fill="#424242"/>
<path d="M90.4565 90.3759C90.1837 90.3761 89.922 90.4845 89.7291 90.6775C89.5361 90.8704 89.4277 91.1321 89.4275 91.4049V97.5789C89.4275 97.8518 89.5359 98.1136 89.7289 98.3065C89.9219 98.4995 90.1836 98.6079 90.4565 98.6079C90.7294 98.6079 90.9912 98.4995 91.1841 98.3065C91.3771 98.1136 91.4855 97.8518 91.4855 97.5789V91.4049C91.4854 91.1321 91.3769 90.8704 91.184 90.6775C90.991 90.4845 90.7294 90.3761 90.4565 90.3759ZM117.684 93.4612H112.392C112.12 93.4612 111.858 93.5696 111.665 93.7625C111.472 93.9555 111.363 94.2172 111.363 94.4902C111.363 94.7631 111.472 95.0248 111.665 95.2178C111.858 95.4107 112.12 95.5192 112.392 95.5192H117.684C117.957 95.5192 118.219 95.4107 118.412 95.2178C118.605 95.0248 118.713 94.7631 118.713 94.4902C118.713 94.2172 118.605 93.9555 118.412 93.7625C118.219 93.5696 117.957 93.4612 117.684 93.4612ZM128.874 93.4612H123.582C123.309 93.4612 123.047 93.5696 122.854 93.7625C122.661 93.9555 122.553 94.2172 122.553 94.4902C122.553 94.7631 122.661 95.0248 122.854 95.2178C123.047 95.4107 123.309 95.5192 123.582 95.5192H128.874C129.146 95.5192 129.408 95.4107 129.601 95.2178C129.794 95.0248 129.903 94.7631 129.903 94.4902C129.903 94.2172 129.794 93.9555 129.601 93.7625C129.408 93.5696 129.146 93.4612 128.874 93.4612ZM85.7525 90.3759C85.4797 90.3761 85.218 90.4845 85.0251 90.6775C84.8321 90.8704 84.7237 91.1321 84.7235 91.4049V97.5789C84.7235 97.8518 84.8319 98.1136 85.0249 98.3065C85.2179 98.4995 85.4796 98.6079 85.7525 98.6079C86.0254 98.6079 86.2872 98.4995 86.4801 98.3065C86.6731 98.1136 86.7815 97.8518 86.7815 97.5789V91.4049C86.7814 91.1321 86.6729 90.8704 86.48 90.6775C86.287 90.4845 86.0254 90.3761 85.7525 90.3759ZM81.0485 90.3759C80.7757 90.3761 80.514 90.4845 80.3211 90.6775C80.1281 90.8704 80.0197 91.1321 80.0195 91.4049V97.5789C80.0195 97.8518 80.1279 98.1136 80.3209 98.3065C80.5139 98.4995 80.7756 98.6079 81.0485 98.6079C81.3214 98.6079 81.5832 98.4995 81.7761 98.3065C81.9691 98.1136 82.0775 97.8518 82.0775 97.5789V91.4049C82.0774 91.1321 81.9689 90.8704 81.776 90.6775C81.583 90.4845 81.3214 90.3761 81.0485 90.3759ZM93.2848 60.7407C96.5725 58.57 100.425 57.4128 104.365 57.4128C108.305 57.4128 112.158 58.57 115.445 60.7407C115.558 60.819 115.685 60.874 115.819 60.9025C115.953 60.931 116.092 60.9323 116.226 60.9065C116.361 60.8807 116.489 60.8283 116.603 60.7523C116.718 60.6762 116.815 60.5781 116.891 60.4638C116.967 60.3494 117.019 60.2211 117.044 60.0863C117.069 59.9516 117.068 59.8131 117.039 59.6791C117.01 59.545 116.954 59.4181 116.876 59.3058C116.797 59.1934 116.697 59.098 116.581 59.0249C112.956 56.6313 108.708 55.3552 104.365 55.3552C100.021 55.3552 95.7733 56.6313 92.1488 59.0249C92.034 59.0986 91.9349 59.1943 91.8574 59.3065C91.7799 59.4188 91.7255 59.5453 91.6973 59.6788C91.6692 59.8122 91.6678 59.95 91.6934 60.084C91.719 60.2179 91.7709 60.3455 91.8462 60.4593C91.9215 60.573 92.0187 60.6706 92.132 60.7465C92.2454 60.8223 92.3727 60.8748 92.5066 60.901C92.6405 60.9272 92.7782 60.9265 92.9118 60.899C93.0454 60.8715 93.1722 60.8177 93.2848 60.7407Z" fill="#424242"/>
<path d="M112.696 65.7745C112.917 65.7745 113.133 65.703 113.311 65.5707C113.488 65.4384 113.619 65.2524 113.682 65.0401C113.746 64.8279 113.739 64.6009 113.663 64.3927C113.587 64.1846 113.447 64.0064 113.261 63.8847C110.616 62.1558 107.525 61.2351 104.365 61.2351C101.205 61.2351 98.1136 62.1558 95.4686 63.8847C95.3556 63.9588 95.2583 64.0545 95.1822 64.1662C95.1062 64.2779 95.0529 64.4035 95.0254 64.5359C94.9979 64.6682 94.9968 64.8046 95.022 64.9374C95.0473 65.0702 95.0984 65.1967 95.1725 65.3097C95.2467 65.4227 95.3423 65.52 95.454 65.596C95.5658 65.6721 95.6914 65.7254 95.8237 65.7529C95.956 65.7803 96.0925 65.7815 96.2253 65.7563C96.358 65.731 96.4845 65.6799 96.5975 65.6058C98.9071 64.0967 101.606 63.2931 104.365 63.2931C107.124 63.2931 109.823 64.0967 112.133 65.6058C112.3 65.7158 112.496 65.7745 112.696 65.7745ZM110.249 70.1486C110.395 69.9184 110.444 69.6394 110.385 69.3731C110.326 69.1069 110.163 68.875 109.933 68.7286C108.267 67.675 106.336 67.1157 104.365 67.1157C102.394 67.1157 100.463 67.675 98.7973 68.7286C98.681 68.8001 98.5801 68.8939 98.5004 69.0047C98.4208 69.1155 98.364 69.2411 98.3333 69.3741C98.3027 69.507 98.2987 69.6448 98.3218 69.7793C98.3449 69.9138 98.3945 70.0424 98.4677 70.1575C98.541 70.2727 98.6364 70.3721 98.7484 70.45C98.8604 70.5279 98.9868 70.5828 99.1202 70.6114C99.2537 70.64 99.3915 70.6418 99.5256 70.6167C99.6597 70.5915 99.7875 70.54 99.9015 70.465C101.237 69.6213 102.785 69.1734 104.365 69.1734C105.945 69.1734 107.493 69.6213 108.829 70.465C109.059 70.6113 109.338 70.6601 109.605 70.6008C109.871 70.5415 110.103 70.3788 110.249 70.1486ZM101.572 76.4679C101.572 77.0204 101.735 77.5605 102.042 78.0201C102.349 78.4796 102.785 78.8379 103.295 79.0495C103.805 79.2612 104.367 79.3168 104.909 79.2092C105.451 79.1016 105.949 78.8358 106.339 78.4452C106.73 78.0547 106.996 77.557 107.104 77.0152C107.212 76.4733 107.157 75.9117 106.946 75.4012C106.734 74.8908 106.376 74.4544 105.917 74.1475C105.458 73.8405 104.918 73.6766 104.365 73.6766C103.625 73.6774 102.915 73.9717 102.392 74.4949C101.868 75.0182 101.573 75.7277 101.572 76.4679ZM105.1 76.4679C105.1 76.6133 105.058 76.7556 104.977 76.8767C104.896 76.9978 104.782 77.0923 104.648 77.1482C104.513 77.2041 104.365 77.2189 104.223 77.1907C104.08 77.1626 103.949 77.0927 103.846 76.99C103.743 76.8873 103.673 76.7563 103.644 76.6137C103.616 76.4711 103.63 76.3232 103.686 76.1888C103.741 76.0544 103.836 75.9395 103.956 75.8586C104.077 75.7778 104.22 75.7346 104.365 75.7346C104.56 75.7348 104.746 75.812 104.884 75.9495C105.022 76.0869 105.099 76.2733 105.1 76.4679Z" fill="#66B0FF"/>
<path d="M104.37 57.4125C100.43 57.4125 96.577 58.5697 93.2893 60.7405C93.1767 60.8174 93.0499 60.8713 92.9163 60.8988C92.7827 60.9263 92.645 60.927 92.5111 60.9008C92.3772 60.8746 92.2499 60.8221 92.1365 60.7462C92.0232 60.6704 91.926 60.5727 91.8507 60.459C91.7754 60.3453 91.7235 60.2177 91.6979 60.0837C91.6724 59.9497 91.6737 59.812 91.7018 59.6785C91.73 59.5451 91.7844 59.4185 91.8619 59.3063C91.9394 59.194 92.0385 59.0983 92.1533 59.0247C95.7778 56.6311 100.026 55.355 104.369 55.355C108.713 55.355 112.961 56.6311 116.585 59.0247C116.701 59.0977 116.802 59.1932 116.88 59.3055C116.959 59.4179 117.014 59.5448 117.043 59.6788C117.072 59.8129 117.074 59.9513 117.049 60.0861C117.023 60.2209 116.971 60.3492 116.895 60.4635C116.82 60.5779 116.722 60.676 116.608 60.752C116.494 60.828 116.366 60.8805 116.231 60.9063C116.096 60.9321 115.958 60.9307 115.824 60.9022C115.69 60.8738 115.562 60.8188 115.45 60.7405C112.162 58.5697 108.309 57.4125 104.37 57.4125Z" fill="#66B0FF"/>
<path d="M357.467 46.4854H303.44C302.548 46.4854 301.691 46.84 301.06 47.4712C300.429 48.1025 300.074 48.9586 300.074 49.8514V60.3383C300.074 61.1646 300.378 61.9058 300.876 62.4891C300.378 63.0845 300.074 63.8258 300.074 64.6521V75.139C300.074 75.9653 300.378 76.7066 300.876 77.2898C300.378 77.8853 300.074 78.6265 300.074 79.4528V89.9397C300.074 90.8324 300.429 91.6886 301.06 92.3198C301.691 92.9511 302.548 93.3057 303.44 93.3057H329.238V96.1371C328.57 96.3391 327.961 96.7033 327.467 97.1973C326.973 97.6913 326.609 98.2997 326.407 98.9684H311.096C310.427 98.9684 309.881 99.5152 309.881 100.184C309.881 100.852 310.427 101.399 311.096 101.399H326.407C326.929 103.136 328.533 104.425 330.453 104.425C332.361 104.425 333.965 103.149 334.5 101.399H349.811C350.479 101.399 351.026 100.852 351.026 100.184C351.026 99.5152 350.479 98.9684 349.811 98.9684H334.5C334.298 98.2997 333.934 97.6913 333.44 97.1973C332.946 96.7033 332.337 96.3391 331.669 96.1371V93.3179H357.467C357.909 93.3179 358.346 93.2308 358.755 93.0617C359.163 92.8925 359.534 92.6446 359.847 92.332C360.159 92.0194 360.407 91.6484 360.576 91.24C360.745 90.8316 360.833 90.3939 360.833 89.9519V79.465C360.833 78.6387 360.529 77.8974 360.031 77.3141C360.529 76.7309 360.833 75.9775 360.833 75.1633V64.6764C360.833 63.8501 360.529 63.1088 360.031 62.5256C360.529 61.9423 360.833 61.1889 360.833 60.3747V49.8514C360.833 48.9586 360.478 48.1025 359.847 47.4712C359.215 46.84 358.359 46.4854 357.467 46.4854ZM332.264 100.184C332.264 101.18 331.45 101.994 330.453 101.994C329.457 101.994 328.643 101.18 328.643 100.184C328.643 99.1871 329.457 98.373 330.453 98.373C331.45 98.373 332.264 99.1871 332.264 100.184ZM302.505 49.8514C302.505 49.3288 302.93 48.9157 303.44 48.9157H357.454C357.977 48.9157 358.39 49.341 358.39 49.8514V60.3383C358.39 60.8608 357.965 61.2739 357.454 61.2739H303.44C303.317 61.2749 303.195 61.2514 303.081 61.2047C302.967 61.158 302.864 61.0891 302.776 61.002C302.689 60.915 302.62 60.8114 302.574 60.6975C302.527 60.5835 302.504 60.4614 302.505 60.3383V49.8514ZM358.402 64.6521V75.139C358.402 75.6615 357.977 76.0747 357.467 76.0747H303.44C303.317 76.0756 303.195 76.0521 303.081 76.0054C302.967 75.9587 302.864 75.8899 302.776 75.8028C302.689 75.7157 302.62 75.6122 302.574 75.4982C302.527 75.3842 302.504 75.2621 302.505 75.139V64.6521C302.505 64.1296 302.93 63.7164 303.44 63.7164H357.454C357.977 63.7164 358.402 64.1296 358.402 64.6521ZM358.402 89.9397C358.402 90.4622 357.977 90.8754 357.467 90.8754H303.44C303.317 90.8764 303.195 90.8528 303.081 90.8061C302.967 90.7595 302.864 90.6906 302.776 90.6035C302.689 90.5164 302.62 90.4129 302.574 90.2989C302.527 90.185 302.504 90.0629 302.505 89.9397V79.4528C302.505 78.9303 302.93 78.5172 303.44 78.5172H357.454C357.977 78.5172 358.39 78.9425 358.39 79.4528V89.9397H358.402Z" fill="#616161"/>
<path d="M310.355 58.8072C311.341 58.8072 312.287 58.4154 312.984 57.7181C313.682 57.0208 314.074 56.075 314.074 55.0888C314.074 54.1026 313.682 53.1568 312.984 52.4595C312.287 51.7621 311.341 51.3704 310.355 51.3704C309.369 51.3704 308.423 51.7621 307.726 52.4595C307.028 53.1568 306.637 54.1026 306.637 55.0888C306.637 56.075 307.028 57.0208 307.726 57.7181C308.423 58.4154 309.369 58.8072 310.355 58.8072ZM310.355 53.8128C310.524 53.8129 310.692 53.8463 310.848 53.9112C311.005 53.976 311.147 54.071 311.266 54.1907C311.386 54.3104 311.481 54.4526 311.545 54.6089C311.61 54.7653 311.643 54.9329 311.643 55.1021C311.643 55.2714 311.61 55.4389 311.545 55.5953C311.48 55.7516 311.385 55.8936 311.265 56.0132C311.146 56.1328 311.004 56.2277 310.847 56.2924C310.691 56.357 310.523 56.3903 310.354 56.3902C310.012 56.3901 309.684 56.2541 309.443 56.0123C309.201 55.7706 309.066 55.4427 309.066 55.1009C309.066 54.7591 309.202 54.4314 309.444 54.1899C309.686 53.9483 310.013 53.8127 310.355 53.8128ZM319.931 58.8072C320.666 58.8072 321.385 58.5891 321.996 58.1805C322.608 57.7719 323.085 57.1912 323.366 56.5117C323.647 55.8323 323.721 55.0846 323.578 54.3633C323.434 53.642 323.08 52.9795 322.56 52.4595C322.04 51.9394 321.377 51.5853 320.656 51.4418C319.935 51.2983 319.187 51.372 318.508 51.6534C317.828 51.9348 317.247 52.4114 316.839 53.0229C316.43 53.6344 316.212 54.3533 316.212 55.0888C316.224 57.1424 317.889 58.8072 319.931 58.8072ZM319.931 53.8128C320.1 53.8129 320.267 53.8463 320.424 53.9112C320.58 53.976 320.722 54.071 320.842 54.1907C320.961 54.3104 321.056 54.4526 321.121 54.6089C321.186 54.7653 321.219 54.9329 321.219 55.1021C321.219 55.2714 321.185 55.4389 321.12 55.5953C321.056 55.7516 320.961 55.8936 320.841 56.0132C320.721 56.1328 320.579 56.2277 320.423 56.2924C320.266 56.357 320.099 56.3903 319.929 56.3902C319.588 56.3901 319.26 56.2541 319.018 56.0123C318.777 55.7706 318.641 55.4427 318.641 55.1009C318.642 54.7591 318.777 54.4314 319.019 54.1899C319.261 53.9483 319.589 53.8127 319.931 53.8128ZM353.615 57.9809C354.283 57.9809 354.83 57.434 354.83 56.7657V53.4361C354.83 52.7678 354.283 52.221 353.615 52.221C352.947 52.221 352.4 52.7678 352.4 53.4361V56.7657C352.4 57.434 352.947 57.9809 353.615 57.9809ZM348.572 57.9809C349.24 57.9809 349.787 57.434 349.787 56.7657V53.4361C349.787 52.7678 349.24 52.221 348.572 52.221C347.904 52.221 347.357 52.7678 347.357 53.4361V56.7657C347.357 57.434 347.904 57.9809 348.572 57.9809ZM343.529 57.9809C344.198 57.9809 344.744 57.434 344.744 56.7657V53.4361C344.744 52.7678 344.198 52.221 343.529 52.221C342.861 52.221 342.314 52.7678 342.314 53.4361V56.7657C342.314 57.434 342.861 57.9809 343.529 57.9809ZM310.355 73.6079C311.341 73.6079 312.287 73.2162 312.984 72.5188C313.682 71.8215 314.074 70.8757 314.074 69.8895C314.074 68.9033 313.682 67.9575 312.984 67.2602C312.287 66.5629 311.341 66.1711 310.355 66.1711C309.369 66.1711 308.423 66.5629 307.726 67.2602C307.028 67.9575 306.637 68.9033 306.637 69.8895C306.637 70.8757 307.028 71.8215 307.726 72.5188C308.423 73.2162 309.369 73.6079 310.355 73.6079ZM310.355 68.6136C310.524 68.6137 310.692 68.6471 310.848 68.7119C311.005 68.7767 311.147 68.8717 311.266 68.9915C311.386 69.1112 311.481 69.2533 311.545 69.4097C311.61 69.5661 311.643 69.7336 311.643 69.9029C311.643 70.0721 311.61 70.2397 311.545 70.396C311.48 70.5523 311.385 70.6943 311.265 70.8139C311.146 70.9335 311.004 71.0284 310.847 71.0931C310.691 71.1578 310.523 71.191 310.354 71.191C310.012 71.1908 309.684 71.0549 309.443 70.8131C309.201 70.5713 309.066 70.2434 309.066 69.9017C309.066 69.5599 309.202 69.2322 309.444 68.9906C309.686 68.749 310.013 68.6134 310.355 68.6136ZM319.931 73.6079C320.666 73.6079 321.385 73.3898 321.996 72.9813C322.608 72.5727 323.085 71.9919 323.366 71.3125C323.647 70.633 323.721 69.8854 323.578 69.1641C323.434 68.4428 323.08 67.7802 322.56 67.2602C322.04 66.7402 321.377 66.386 320.656 66.2425C319.935 66.0991 319.187 66.1727 318.508 66.4541C317.828 66.7356 317.247 67.2122 316.839 67.8237C316.43 68.4352 316.212 69.1541 316.212 69.8895C316.224 71.9431 317.889 73.6079 319.931 73.6079ZM319.931 68.6136C320.1 68.6137 320.267 68.6471 320.424 68.7119C320.58 68.7767 320.722 68.8717 320.842 68.9915C320.961 69.1112 321.056 69.2533 321.121 69.4097C321.186 69.5661 321.219 69.7336 321.219 69.9029C321.219 70.0721 321.185 70.2397 321.12 70.396C321.056 70.5523 320.961 70.6943 320.841 70.8139C320.721 70.9335 320.579 71.0284 320.423 71.0931C320.266 71.1578 320.099 71.191 319.929 71.191C319.588 71.1908 319.26 71.0549 319.018 70.8131C318.777 70.5713 318.641 70.2434 318.641 69.9017C318.642 69.5599 318.777 69.2322 319.019 68.9906C319.261 68.749 319.589 68.6134 319.931 68.6136ZM353.615 72.7816C354.283 72.7816 354.83 72.2348 354.83 71.5664V68.2369C354.83 67.5685 354.283 67.0217 353.615 67.0217C352.947 67.0217 352.4 67.5685 352.4 68.2369V71.5664C352.4 72.2348 352.947 72.7816 353.615 72.7816ZM348.572 72.7816C349.24 72.7816 349.787 72.2348 349.787 71.5664V68.2369C349.787 67.5685 349.24 67.0217 348.572 67.0217C347.904 67.0217 347.357 67.5685 347.357 68.2369V71.5664C347.357 72.2348 347.904 72.7816 348.572 72.7816ZM343.529 72.7816C344.198 72.7816 344.744 72.2348 344.744 71.5664V68.2369C344.744 67.5685 344.198 67.0217 343.529 67.0217C342.861 67.0217 342.314 67.5685 342.314 68.2369V71.5664C342.314 72.2348 342.861 72.7816 343.529 72.7816ZM310.355 80.984C309.62 80.984 308.901 81.2021 308.289 81.6106C307.678 82.0192 307.201 82.6 306.92 83.2794C306.638 83.9589 306.565 84.7065 306.708 85.4278C306.852 86.1491 307.206 86.8117 307.726 87.3317C308.246 87.8517 308.908 88.2059 309.63 88.3494C310.351 88.4928 311.099 88.4192 311.778 88.1378C312.458 87.8563 313.038 87.3797 313.447 86.7682C313.855 86.1567 314.074 85.4378 314.074 84.7024C314.074 82.6488 312.397 80.984 310.355 80.984ZM310.355 85.9783C310.186 85.9782 310.018 85.9448 309.862 85.88C309.706 85.8152 309.564 85.7202 309.444 85.6004C309.324 85.4807 309.23 85.3386 309.165 85.1822C309.1 85.0259 309.067 84.8583 309.067 84.689C309.067 84.5198 309.101 84.3522 309.165 84.1959C309.23 84.0396 309.325 83.8976 309.445 83.778C309.565 83.6584 309.707 83.5635 309.863 83.4988C310.02 83.4341 310.187 83.4009 310.356 83.401C310.698 83.4011 311.026 83.537 311.267 83.7788C311.509 84.0206 311.645 84.3485 311.644 84.6902C311.644 85.032 311.508 85.3597 311.267 85.6013C311.025 85.8429 310.697 85.9785 310.355 85.9783ZM319.931 80.984C318.944 80.984 317.999 81.3757 317.301 82.0731C316.604 82.7704 316.212 83.7162 316.212 84.7024C316.212 85.6886 316.604 86.6344 317.301 87.3317C317.999 88.029 318.944 88.4208 319.931 88.4208C320.917 88.4208 321.863 88.029 322.56 87.3317C323.257 86.6344 323.649 85.6886 323.649 84.7024C323.649 83.7162 323.257 82.7704 322.56 82.0731C321.863 81.3757 320.917 80.984 319.931 80.984ZM319.931 85.9783C319.589 85.9782 319.261 85.8422 319.02 85.6004C318.778 85.3587 318.642 85.0308 318.643 84.689C318.643 84.3472 318.779 84.0195 319.02 83.778C319.262 83.5364 319.59 83.4008 319.932 83.401C320.101 83.401 320.269 83.4344 320.425 83.4993C320.581 83.5641 320.723 83.6591 320.843 83.7788C320.963 83.8985 321.057 84.0407 321.122 84.197C321.187 84.3534 321.22 84.521 321.22 84.6902C321.22 84.8595 321.186 85.027 321.122 85.1834C321.057 85.3397 320.962 85.4817 320.842 85.6013C320.722 85.7209 320.58 85.8158 320.424 85.8805C320.267 85.9451 320.1 85.9784 319.931 85.9783ZM353.615 81.8103C352.947 81.8103 352.4 82.3571 352.4 83.0255V86.355C352.4 87.0234 352.947 87.5702 353.615 87.5702C354.283 87.5702 354.83 87.0234 354.83 86.355V83.0255C354.83 82.3571 354.283 81.8103 353.615 81.8103ZM348.572 81.8103C347.904 81.8103 347.357 82.3571 347.357 83.0255V86.355C347.357 87.0234 347.904 87.5702 348.572 87.5702C349.24 87.5702 349.787 87.0234 349.787 86.355V83.0255C349.787 82.3571 349.24 81.8103 348.572 81.8103ZM343.529 81.8103C342.861 81.8103 342.314 82.3571 342.314 83.0255V86.355C342.314 87.0234 342.861 87.5702 343.529 87.5702C344.198 87.5702 344.744 87.0234 344.744 86.355V83.0255C344.744 82.3571 344.198 81.8103 343.529 81.8103Z" fill="#616161"/>
<circle cx="310.345" cy="55.052" r="2.7043" stroke="#66B0FF" stroke-width="2"/>
<circle cx="319.927" cy="55.1108" r="2.7043" stroke="#66B0FF" stroke-width="2"/>
<circle cx="310.345" cy="69.8691" r="2.7043" stroke="#66B0FF" stroke-width="2"/>
<circle cx="319.927" cy="69.8691" r="2.7043" stroke="#66B0FF" stroke-width="2"/>
<circle cx="310.345" cy="84.7451" r="2.7043" stroke="#66B0FF" stroke-width="2"/>
<circle cx="319.927" cy="84.7451" r="2.7043" stroke="#66B0FF" stroke-width="2"/>
<defs>
<clipPath id="clip0_2249_19232">
<rect width="79.2036" height="80.1465" fill="white" transform="translate(179.648 31.7705)"/>
</clipPath>
</defs>
</svg>
