<svg width="84" height="84" viewBox="0 0 84 84" fill="none" xmlns="http://www.w3.org/2000/svg">
<g clip-path="url(#clip0_1998_17916)">
<path d="M49.0348 22.7851L50.0008 22.4596V24.1501C50.0008 24.7276 50.4733 25.2001 51.0508 25.2001H55.2508C55.8283 25.2001 56.3008 24.7276 56.3008 24.1501V7.3501C56.3008 6.7726 55.8283 6.3001 55.2508 6.3001H51.0508C50.4733 6.3001 50.0008 6.7726 50.0008 7.3501V8.6941L47.9008 9.3976L45.9898 8.7571L44.7298 2.9296C44.6248 2.4466 44.1943 2.1001 43.7008 2.1001H39.5008C39.0073 2.1001 38.5768 2.4466 38.4718 2.9296L37.2118 8.7571L35.3008 9.3976L33.2008 8.6941V7.3501C33.2008 6.7726 32.7283 6.3001 32.1508 6.3001H27.9508C27.3733 6.3001 26.9008 6.7726 26.9008 7.3501V24.1501C26.9008 24.7276 27.3733 25.2001 27.9508 25.2001H32.1508C32.7283 25.2001 33.2008 24.7276 33.2008 24.1501V22.4596L34.1668 22.7851L25.4518 63.0001H14.3008V65.1001H68.9008V63.0001H57.7498L49.0348 22.7851ZM52.1008 8.4001H54.2008V23.1001H52.1008V8.4001ZM31.1008 23.1001H29.0008V8.4001H31.1008V23.1001ZM54.2638 56.8471L44.1733 52.3216L52.4788 48.5941L54.2638 56.8471ZM52.0168 46.4941L42.6508 50.6941V43.1026L51.9538 46.2106L52.0168 46.4941ZM39.5008 27.3001V10.5001H43.7008V27.3001H39.5008ZM51.4393 43.8271L44.9188 41.6536L50.5573 39.7741L51.4393 43.8271ZM50.1163 37.7056L42.6508 40.1941V34.2301L50.0848 37.5796L50.1163 37.7056ZM49.5388 35.0281L44.1628 32.6131L48.5833 30.6286L49.5388 35.0386V35.0281ZM47.5753 11.4976C47.6803 11.5291 47.7958 11.5501 47.9113 11.5501C48.0268 11.5501 48.1318 11.5291 48.2473 11.4976L50.0113 10.9096V20.2441L48.5938 20.7166L46.5148 11.1406L47.5753 11.4976ZM45.8113 17.7976L46.3783 20.4331L45.8113 20.2441V17.7976ZM45.8113 22.4596L46.9033 22.8271L47.4598 25.3786L45.8218 24.5596V22.4701L45.8113 22.4596ZM44.7613 29.4001C45.3388 29.4001 45.8113 28.9276 45.8113 28.3501V26.9011L48.0268 28.0036L48.1423 28.5181L42.6718 30.9856V29.4001H44.7718H44.7613ZM40.3513 4.2001H40.5508V6.3001H42.6508V4.2001H42.8503L43.7638 8.4001H39.4378L40.3513 4.2001ZM37.4008 17.7976V20.2441L36.8338 20.4331L37.4008 17.7976ZM37.4008 22.4596V24.5491L35.7628 25.3681L36.3193 22.8166L37.4113 22.4491L37.4008 22.4596ZM33.2008 20.2441V10.9096L34.9648 11.4976C35.0698 11.5291 35.1853 11.5501 35.3008 11.5501C35.4163 11.5501 35.5213 11.5291 35.6368 11.4976L36.6973 11.1406L34.6183 20.7166L33.2008 20.2441ZM34.6183 30.6181L39.0388 32.6026L33.6628 35.0176L34.6183 30.6076V30.6181ZM32.6338 39.7636L38.2723 41.6431L31.7518 43.8166L32.6338 39.7636ZM30.7228 48.5836L39.0283 52.3111L28.9378 56.8366L30.7228 48.5836ZM40.5508 62.9896H27.6043L28.3813 59.3776L40.5508 53.9176V62.9791V62.9896ZM40.5508 50.6836L31.1848 46.4836L31.2478 46.2001L40.5508 43.0921V50.6836ZM40.5508 40.1836L33.0853 37.6951L33.1168 37.5691L40.5508 34.2196V40.1836ZM40.5508 30.9751L35.0803 28.5076L35.1958 27.9931L37.4113 26.8906V28.3396C37.4113 28.9171 37.8838 29.3896 38.4613 29.3896H40.5613V30.9751H40.5508ZM42.6508 62.9896V53.9281L54.8203 59.3881L55.5973 63.0001H42.6508V62.9896Z" fill="#616161"/>
<path d="M12.2016 63H10.1016V65.1H12.2016V63Z" fill="#616161"/>
<path d="M73.1 63H71V65.1H73.1V63Z" fill="#616161"/>
<path d="M42.6508 12.6001H40.5508V14.7001H42.6508V12.6001Z" fill="#66B0FF"/>
<path d="M42.6508 23.1001H40.5508V25.2001H42.6508V23.1001Z" fill="#66B0FF"/>
<path d="M24.2326 20.0761L25.3771 18.3121C24.4636 17.7241 23.9281 16.7371 23.9281 15.6766C23.9281 14.6161 24.4111 13.7341 25.2406 13.1461L24.0331 11.4346C22.6576 12.4111 21.8281 13.9966 21.8281 15.6766C21.8281 17.4511 22.7311 19.0996 24.2326 20.0761Z" fill="#66B0FF"/>
<path d="M22.2497 10.0904L20.8952 8.48389C18.7637 10.2899 17.5352 12.9149 17.5352 15.6764C17.5352 18.4379 18.8267 21.2099 21.0737 23.0264L22.3967 21.3884C20.6432 19.9709 19.6352 17.8919 19.6352 15.6764C19.6352 13.4609 20.5907 11.4974 22.2497 10.0904Z" fill="#66B0FF"/>
<path d="M18.0065 25.998L19.382 24.402C16.82 22.197 15.35 19.0155 15.35 15.6765C15.35 12.3375 16.7675 9.27145 19.235 7.07695L17.8385 5.51245C14.93 8.10595 13.25 11.8125 13.25 15.6765C13.25 19.5405 14.9825 23.3835 18.0065 25.9875V25.998Z" fill="#66B0FF"/>
<path d="M57.9685 18.3541L59.176 20.0656C60.5515 19.0891 61.381 17.5036 61.381 15.8236C61.381 14.0491 60.478 12.4006 58.9765 11.4241L57.832 13.1881C58.7455 13.7761 59.281 14.7631 59.281 15.8236C59.281 16.8841 58.798 17.7661 57.9685 18.3541Z" fill="#66B0FF"/>
<path d="M65.6662 15.8234C65.6662 12.9674 64.3747 10.2899 62.1277 8.47339L60.8047 10.1114C62.5582 11.5289 63.5662 13.6079 63.5662 15.8234C63.5662 18.0389 62.6107 20.0024 60.9517 21.4094L62.3062 23.0159C64.4377 21.2099 65.6662 18.5849 65.6662 15.8234Z" fill="#66B0FF"/>
<path d="M65.1919 5.50195L63.8164 7.09795C66.3784 9.30295 67.8484 12.4845 67.8484 15.8235C67.8484 19.1625 66.4309 22.2285 63.9634 24.423L65.3599 25.9875C68.2684 23.394 69.9484 19.6875 69.9484 15.8235C69.9484 11.9595 68.2159 8.11645 65.1919 5.51245V5.50195Z" fill="#66B0FF"/>
</g>
<defs>
<clipPath id="clip0_1998_17916">
<rect width="67.2" height="84" fill="white" transform="translate(8)"/>
</clipPath>
</defs>
</svg>
