<svg width="432" height="163" viewBox="0 0 432 163" fill="none" xmlns="http://www.w3.org/2000/svg">
<path d="M241.6 72.8633C241.391 72.8633 241.186 72.9203 241.008 73.0281C240.83 73.136 240.686 73.2903 240.591 73.4741L235.25 83.8413L230.743 75.0926C230.648 74.9088 230.504 74.7544 230.326 74.6466C230.148 74.5388 229.943 74.4818 229.734 74.4818C229.525 74.4818 229.32 74.5388 229.142 74.6466C228.964 74.7544 228.82 74.9088 228.725 75.0926L226.282 79.8351H222.381C222.081 79.8351 221.793 79.9529 221.581 80.1625C221.368 80.3721 221.249 80.6564 221.249 80.9528C221.249 81.2493 221.368 81.5336 221.581 81.7432C221.793 81.9528 222.081 82.0705 222.381 82.0705H226.976C227.185 82.0705 227.39 82.0135 227.568 81.9056C227.746 81.7978 227.89 81.6435 227.985 81.4597L229.734 78.0644L234.241 86.8131C234.336 86.9969 234.48 87.1512 234.658 87.259C234.836 87.3668 235.041 87.4239 235.25 87.4239C235.459 87.4239 235.664 87.3668 235.842 87.259C236.02 87.1512 236.164 86.9969 236.259 86.8131L241.6 76.4459L244.183 81.4598C244.278 81.6436 244.422 81.798 244.6 81.9058C244.778 82.0136 244.983 82.0707 245.192 82.0707H249.787C250.087 82.0707 250.375 81.9529 250.587 81.7433C250.799 81.5337 250.918 81.2494 250.918 80.953C250.918 80.6565 250.799 80.3722 250.587 80.1626C250.375 79.953 250.087 79.8353 249.787 79.8353H245.886L242.609 73.4743C242.514 73.2904 242.37 73.136 242.192 73.0282C242.014 72.9203 241.809 72.8633 241.6 72.8633ZM222.381 69.5522H228.254C228.555 69.5522 228.842 69.4344 229.055 69.2248C229.267 69.0152 229.386 68.7309 229.386 68.4344V56.6681C229.386 56.3716 229.267 56.0873 229.055 55.8777C228.842 55.6681 228.555 55.5504 228.254 55.5504H222.381C222.081 55.5504 221.793 55.6681 221.581 55.8777C221.369 56.0873 221.25 56.3716 221.25 56.6681V68.4344C221.25 68.7309 221.369 69.0152 221.581 69.2248C221.793 69.4344 222.081 69.5522 222.381 69.5522ZM223.513 57.7858H227.123V67.3167H223.513V57.7858ZM239.06 58.7478H233.187C232.887 58.7478 232.599 58.8655 232.387 59.0751C232.175 59.2847 232.056 59.569 232.056 59.8655V68.4344C232.056 68.7309 232.175 69.0152 232.387 69.2248C232.599 69.4344 232.887 69.5522 233.187 69.5522H239.06C239.361 69.5522 239.649 69.4344 239.861 69.2248C240.073 69.0152 240.192 68.7309 240.192 68.4344V59.8655C240.192 59.569 240.073 59.2847 239.861 59.0751C239.649 58.8655 239.361 58.7478 239.06 58.7478ZM237.929 67.3167H234.319V60.9832H237.929V67.3167ZM249.787 69.5522C250.087 69.5522 250.375 69.4344 250.587 69.2248C250.799 69.0152 250.918 68.7309 250.918 68.4344V53.7181C250.918 53.4216 250.799 53.1373 250.587 52.9277C250.375 52.7181 250.087 52.6003 249.787 52.6003H243.914C243.614 52.6003 243.326 52.7181 243.113 52.9277C242.901 53.1373 242.782 53.4216 242.782 53.7181V68.4344C242.782 68.7309 242.901 69.0152 243.113 69.2248C243.326 69.4344 243.614 69.5522 243.914 69.5522H249.787ZM245.045 54.8358H248.655V67.3167H245.045V54.8358ZM204.574 65.2442H178.921C178.621 65.2442 178.333 65.362 178.121 65.5716C177.908 65.7812 177.789 66.0655 177.789 66.3619C177.789 66.6583 177.908 66.9426 178.121 67.1523C178.333 67.3619 178.621 67.4796 178.921 67.4796H204.574C204.875 67.4796 205.162 67.3619 205.375 67.1523C205.587 66.9426 205.706 66.6583 205.706 66.3619C205.706 66.0655 205.587 65.7812 205.375 65.5716C205.162 65.362 204.875 65.2442 204.574 65.2442ZM178.921 73.4171H183.512C183.812 73.4171 184.1 73.2993 184.312 73.0897C184.524 72.8801 184.643 72.5958 184.643 72.2993C184.643 72.0029 184.524 71.7186 184.312 71.509C184.1 71.2994 183.812 71.1816 183.512 71.1816H178.921C178.621 71.1816 178.333 71.2994 178.121 71.509C177.908 71.7186 177.789 72.0029 177.789 72.2993C177.789 72.5958 177.908 72.8801 178.121 73.0897C178.333 73.2993 178.621 73.4171 178.921 73.4171ZM204.574 71.1816H188.697C188.397 71.1816 188.109 71.2994 187.897 71.509C187.685 71.7186 187.566 72.0029 187.566 72.2993C187.566 72.5958 187.685 72.8801 187.897 73.0897C188.109 73.2993 188.397 73.4171 188.697 73.4171H204.574C204.875 73.4171 205.162 73.2993 205.375 73.0897C205.587 72.8801 205.706 72.5958 205.706 72.2993C205.706 72.0029 205.587 71.7186 205.375 71.509C205.162 71.2994 204.875 71.1816 204.574 71.1816ZM204.574 52.6003H178.921C178.621 52.6003 178.333 52.7181 178.121 52.9277C177.908 53.1373 177.789 53.4216 177.789 53.7181C177.789 54.0145 177.908 54.2988 178.121 54.5084C178.333 54.718 178.621 54.8358 178.921 54.8358H204.574C204.875 54.8358 205.162 54.718 205.375 54.5084C205.587 54.2988 205.706 54.0145 205.706 53.7181C205.706 53.4216 205.587 53.1373 205.375 52.9277C205.162 52.7181 204.875 52.6003 204.574 52.6003ZM178.921 60.7733H194.829C195.13 60.7733 195.417 60.6556 195.63 60.446C195.842 60.2364 195.961 59.9521 195.961 59.6556C195.961 59.3592 195.842 59.0749 195.63 58.8653C195.417 58.6557 195.13 58.5379 194.829 58.5379H178.921C178.621 58.5379 178.333 58.6557 178.121 58.8653C177.908 59.0749 177.789 59.3592 177.789 59.6556C177.789 59.9521 177.908 60.2364 178.121 60.446C178.333 60.6556 178.621 60.7733 178.921 60.7733ZM204.574 58.5379H200.015C199.715 58.5379 199.427 58.6557 199.215 58.8653C199.003 59.0749 198.883 59.3592 198.883 59.6556C198.883 59.9521 199.003 60.2364 199.215 60.446C199.427 60.6556 199.715 60.7733 200.015 60.7733H204.574C204.875 60.7733 205.162 60.6556 205.375 60.446C205.587 60.2364 205.706 59.9521 205.706 59.6556C205.706 59.3592 205.587 59.0749 205.375 58.8653C205.162 58.6557 204.875 58.5379 204.574 58.5379ZM205.706 78.1648C205.706 77.8684 205.587 77.5841 205.375 77.3745C205.162 77.1648 204.875 77.0471 204.574 77.0471H178.921C178.621 77.0471 178.333 77.1648 178.121 77.3745C177.908 77.5841 177.789 77.8684 177.789 78.1648C177.789 78.4612 177.908 78.7455 178.121 78.9551C178.333 79.1648 178.621 79.2825 178.921 79.2825H204.574C204.875 79.2825 205.162 79.1648 205.375 78.9551C205.587 78.7455 205.706 78.4612 205.706 78.1648ZM178.921 82.9531C178.621 82.9531 178.333 83.0708 178.121 83.2804C177.908 83.4901 177.789 83.7744 177.789 84.0708C177.789 84.3672 177.908 84.6515 178.121 84.8611C178.333 85.0707 178.621 85.1885 178.921 85.1885H190.993C191.293 85.1885 191.581 85.0707 191.793 84.8611C192.006 84.6515 192.125 84.3672 192.125 84.0708C192.125 83.7744 192.006 83.4901 191.793 83.2804C191.581 83.0708 191.293 82.9531 190.993 82.9531H178.921Z" fill="#616161"/>
<path d="M178.921 52.6003H204.574C204.875 52.6003 205.162 52.7181 205.375 52.9277C205.587 53.1373 205.706 53.4216 205.706 53.7181C205.706 54.0145 205.587 54.2988 205.375 54.5084C205.162 54.718 204.875 54.8358 204.574 54.8358H178.921C178.621 54.8358 178.333 54.718 178.121 54.5084C177.908 54.2988 177.789 54.0145 177.789 53.7181C177.789 53.4216 177.908 53.1373 178.121 52.9277C178.333 52.7181 178.621 52.6003 178.921 52.6003Z" fill="#66B0FF"/>
<path d="M178.121 83.2817C178.333 83.0721 178.621 82.9543 178.921 82.9543H190.993C191.293 82.9543 191.581 83.0721 191.793 83.2817C192.006 83.4913 192.125 83.7756 192.125 84.0721C192.125 84.3685 192.006 84.6528 191.793 84.8624C191.581 85.072 191.293 85.1898 190.993 85.1898H178.921C178.621 85.1898 178.333 85.072 178.121 84.8624C177.908 84.6528 177.789 84.3685 177.789 84.0721C177.789 83.7756 177.908 83.4913 178.121 83.2817Z" fill="#66B0FF"/>
<path d="M183.512 73.4188H178.921C178.621 73.4188 178.333 73.301 178.121 73.0914C177.908 72.8818 177.789 72.5975 177.789 72.3011C177.789 72.0046 177.908 71.7203 178.121 71.5107C178.333 71.3011 178.621 71.1833 178.921 71.1833H183.512C183.812 71.1833 184.1 71.3011 184.312 71.5107C184.524 71.7203 184.643 72.0046 184.643 72.3011C184.643 72.5975 184.524 72.8818 184.312 73.0914C184.1 73.301 183.812 73.4188 183.512 73.4188Z" fill="#66B0FF"/>
<path d="M200.011 58.5371H204.57C204.87 58.5371 205.158 58.6549 205.37 58.8645C205.582 59.0741 205.702 59.3584 205.702 59.6548C205.702 59.9513 205.582 60.2356 205.37 60.4452C205.158 60.6548 204.87 60.7725 204.57 60.7725H200.011C199.711 60.7725 199.423 60.6548 199.21 60.4452C198.998 60.2356 198.879 59.9513 198.879 59.6548C198.879 59.3584 198.998 59.0741 199.21 58.8645C199.423 58.6549 199.711 58.5371 200.011 58.5371Z" fill="#66B0FF"/>
<path d="M241.009 73.0284C241.187 72.9206 241.392 72.8635 241.601 72.8635C241.81 72.8635 242.014 72.9206 242.192 73.0284C242.37 73.1363 242.515 73.2907 242.609 73.4745L245.886 79.8355H249.787C250.088 79.8355 250.376 79.9533 250.588 80.1629C250.8 80.3725 250.919 80.6568 250.919 80.9532C250.919 81.2497 250.8 81.534 250.588 81.7436C250.376 81.9532 250.088 82.0709 249.787 82.0709H245.192C244.984 82.0709 244.779 82.0139 244.601 81.9061C244.423 81.7982 244.278 81.6439 244.184 81.4601L241.601 76.4462L236.26 86.8133C236.165 86.9971 236.021 87.1515 235.842 87.2593C235.664 87.3671 235.46 87.4241 235.251 87.4241C235.042 87.4241 234.837 87.3671 234.659 87.2593C234.481 87.1515 234.337 86.9971 234.242 86.8133L229.735 78.0646L227.986 81.4599C227.891 81.6437 227.746 81.7981 227.568 81.9059C227.39 82.0137 227.186 82.0708 226.977 82.0708H222.382C222.082 82.0708 221.794 81.953 221.581 81.7434C221.369 81.5338 221.25 81.2495 221.25 80.9531C221.25 80.6566 221.369 80.3723 221.581 80.1627C221.794 79.9531 222.082 79.8354 222.382 79.8354H226.283L228.726 75.0928C228.821 74.909 228.965 74.7547 229.143 74.6469C229.321 74.5391 229.526 74.482 229.735 74.482C229.944 74.482 230.148 74.5391 230.326 74.6469C230.505 74.7547 230.649 74.909 230.744 75.0928L235.251 83.8415L240.592 73.4744C240.687 73.2906 240.831 73.1362 241.009 73.0284Z" fill="#66B0FF"/>
<rect x="166.173" y="44.4645" width="98.6883" height="58.0608" rx="3.85" stroke="#616161" stroke-width="2.3"/>
<line x1="266.008" y1="92.5221" x2="166.18" y2="92.5221" stroke="#616161" stroke-width="2.3"/>
<path d="M252.082 117.025L178.953 117.025" stroke="#616161" stroke-width="2.3" stroke-linecap="round"/>
<mask id="path-10-inside-1_2249_19354" fill="white">
<rect x="196.359" y="110.64" width="39.4667" height="7.5451" rx="2"/>
</mask>
<rect x="196.359" y="110.64" width="39.4667" height="7.5451" rx="2" stroke="#616161" stroke-width="4.6" mask="url(#path-10-inside-1_2249_19354)"/>
<path d="M227.168 112.003L223.64 101.934" stroke="#616161" stroke-width="2.3"/>
<path d="M203.91 112.003L207.438 101.934" stroke="#616161" stroke-width="2.3"/>
</svg>
