<svg width="84" height="84" viewBox="0 0 84 84" fill="none" xmlns="http://www.w3.org/2000/svg">
<path d="M59.0343 24.9719V20.7131C59.0343 20.4308 58.9221 20.16 58.7224 19.9603C58.5228 19.7606 58.252 19.6484 57.9696 19.6484C55.9142 19.6512 53.914 20.3139 52.2635 21.5389C50.613 22.7638 49.3995 24.4864 48.8015 26.4529L46.6625 25.0262L46.258 18.5177C46.2411 18.247 46.1216 17.9928 45.9237 17.8072C45.7258 17.6216 45.4646 17.5185 45.1933 17.5191H43.0639V15.1938C43.7743 14.9426 44.373 14.4484 44.7542 13.7985C45.1355 13.1486 45.2747 12.3849 45.1473 11.6422C45.0199 10.8996 44.634 10.2259 44.0579 9.7403C43.4819 9.25465 42.7527 8.98828 41.9992 8.98828C41.2457 8.98828 40.5165 9.25465 39.9404 9.7403C39.3644 10.2259 38.9785 10.8996 38.8511 11.6422C38.7237 12.3849 38.8629 13.1486 39.2442 13.7985C39.6254 14.4484 40.2241 14.9426 40.9345 15.1938V17.5191H38.8051C38.5338 17.5185 38.2725 17.6216 38.0747 17.8072C37.8768 17.9928 37.7572 18.247 37.7404 18.5177L36.6161 36.5111L34.13 38.1688C33.533 36.2018 32.32 34.4786 30.6699 33.2528C29.0198 32.0271 27.0197 31.3636 24.9641 31.3601C24.6817 31.3601 24.4109 31.4722 24.2112 31.6719C24.0116 31.8716 23.8994 32.1424 23.8994 32.4248V36.6835C22.7699 36.6835 21.6867 37.1322 20.888 37.9309C20.0893 38.7296 19.6406 39.8128 19.6406 40.9423C19.6406 42.0718 20.0893 43.155 20.888 43.9537C21.6867 44.7524 22.7699 45.2011 23.8994 45.2011V49.4599C23.8994 49.7422 24.0116 50.013 24.2112 50.2127C24.4109 50.4124 24.6817 50.5246 24.9641 50.5246C27.0195 50.5218 29.0197 49.8591 30.6702 48.6341C32.3207 47.4092 33.5342 45.6866 34.1322 43.7201L36.0848 45.0222L34.6113 68.6243H29.2229C28.9405 68.6243 28.6697 68.7365 28.47 68.9362C28.2703 69.1359 28.1582 69.4067 28.1582 69.689V73.9478C28.1582 74.2302 28.2703 74.501 28.47 74.7007C28.6697 74.9003 28.9405 75.0125 29.2229 75.0125H54.7755C55.0579 75.0125 55.3287 74.9003 55.5284 74.7007C55.728 74.501 55.8402 74.2302 55.8402 73.9478V69.689C55.8402 69.4067 55.728 69.1359 55.5284 68.9362C55.3287 68.7365 55.0579 68.6243 54.7755 68.6243H49.3871L47.1672 33.0987L48.8015 32.0085C49.3995 33.975 50.613 35.6975 52.2635 36.9225C53.914 38.1475 55.9142 38.8101 57.9696 38.8129C58.252 38.8129 58.5228 38.7008 58.7224 38.5011C58.9221 38.3014 59.0343 38.0306 59.0343 37.7482V33.4895C60.1638 33.4895 61.247 33.0408 62.0457 32.2421C62.8444 31.4434 63.2931 30.3602 63.2931 29.2307C63.2931 28.1012 62.8444 27.018 62.0457 26.2193C61.247 25.4206 60.1638 24.9719 59.0343 24.9719ZM41.9992 11.1309C42.2098 11.1309 42.4156 11.1933 42.5907 11.3103C42.7658 11.4273 42.9023 11.5936 42.9828 11.7882C43.0634 11.9827 43.0845 12.1968 43.0434 12.4033C43.0023 12.6098 42.9009 12.7995 42.752 12.9484C42.6031 13.0973 42.4134 13.1987 42.2069 13.2398C42.0004 13.2809 41.7863 13.2598 41.5917 13.1792C41.3972 13.0987 41.2309 12.9622 41.1139 12.7871C40.9969 12.612 40.9345 12.4062 40.9345 12.1956C40.9345 11.9132 41.0467 11.6424 41.2463 11.4427C41.446 11.2431 41.7168 11.1309 41.9992 11.1309ZM21.77 40.9423C21.77 40.3776 21.9944 39.8359 22.3937 39.4366C22.793 39.0373 23.3347 38.8129 23.8994 38.8129V43.0717C23.3347 43.0717 22.793 42.8474 22.3937 42.448C21.9944 42.0487 21.77 41.5071 21.77 40.9423ZM40.8472 26.34L39.1245 30.5222L39.5781 23.261L40.8472 26.34ZM40.3947 19.6484H43.6037L41.9992 23.5442L40.3947 19.6484ZM41.9992 29.137L45.0698 36.5898L41.9992 41.7121L38.9286 36.5941L41.9992 29.137ZM40.7578 43.7819L38.0108 48.36L38.5294 40.0682L40.7578 43.7819ZM41.9992 45.8506L46.0578 52.6146L41.9992 58.5172L37.9406 52.6146L41.9992 45.8506ZM37.5456 55.799L40.7067 60.3975L36.9142 65.9147L37.5456 55.799ZM41.9992 62.2766L46.3644 68.6243H37.6339L41.9992 62.2766ZM43.2917 60.3975L46.4528 55.799L47.0842 65.9136L43.2917 60.3975ZM43.2406 43.7819L45.469 40.0671L45.9875 48.359L43.2406 43.7819ZM43.1512 26.34L44.4192 23.261L44.8728 30.5222L43.1512 26.34ZM26.0288 48.3196V33.5651C27.8038 33.8198 29.4274 34.706 30.6019 36.061C31.7763 37.4161 32.4228 39.1491 32.4228 40.9423C32.4228 42.7355 31.7763 44.4686 30.6019 45.8236C29.4274 47.1787 27.8038 48.0648 26.0288 48.3196ZM34.5218 41.4214C34.5304 41.2617 34.5463 41.102 34.5463 40.9423C34.5463 40.7826 34.5304 40.6229 34.5218 40.4632L36.4511 39.1771L36.2381 42.566L34.5218 41.4214ZM53.7108 72.8831H30.2876V70.7537H53.7108V72.8831ZM47.0139 30.6414L46.8297 27.6975L48.4118 28.7516C48.4033 28.9113 48.3874 29.071 48.3874 29.2307C48.3874 29.3904 48.4033 29.5501 48.4118 29.7098L47.0139 30.6414ZM56.9049 36.6037C55.1299 36.3489 53.5063 35.4628 52.3318 34.1077C51.1574 32.7527 50.5108 31.0196 50.5108 29.2264C50.5108 27.4333 51.1574 25.7002 52.3318 24.3451C53.5063 22.9901 55.1299 22.1039 56.9049 21.8492V36.6037ZM59.0343 31.3601V27.1013C59.599 27.1013 60.1407 27.3256 60.54 27.725C60.9393 28.1243 61.1637 28.6659 61.1637 29.2307C61.1637 29.7954 60.9393 30.3371 60.54 30.7364C60.1407 31.1357 59.599 31.3601 59.0343 31.3601ZM62.2284 9.00151V11.1309C65.0512 11.134 67.7574 12.2567 69.7535 14.2527C71.7495 16.2488 72.8722 18.955 72.8753 21.7778H75.0047C75.001 18.3905 73.6538 15.1429 71.2585 12.7477C68.8633 10.3524 65.6157 9.00518 62.2284 9.00151Z" fill="#616161"/>
<path d="M62.2266 13.2605V15.3899C63.9203 15.3916 65.5442 16.0652 66.7418 17.2628C67.9395 18.4604 68.613 20.0843 68.6147 21.778H70.7441C70.7416 19.5198 69.8434 17.3548 68.2466 15.758C66.6498 14.1612 64.4848 13.263 62.2266 13.2605Z" fill="#66B0FF"/>
<path d="M62.2269 17.519V19.6484C62.7916 19.6484 63.3332 19.8728 63.7326 20.2721C64.1319 20.6715 64.3563 21.2131 64.3563 21.7778H66.4856C66.4856 20.6483 66.0369 19.5651 65.2383 18.7664C64.4396 17.9677 63.3564 17.519 62.2269 17.519ZM21.7685 22.8425V20.7131C18.3811 20.7168 15.1336 22.064 12.7383 24.4593C10.3431 26.8545 8.99585 30.1021 8.99219 33.4894H11.1216C11.1247 30.6667 12.2474 27.9604 14.2434 25.9643C16.2394 23.9683 18.9457 22.8456 21.7685 22.8425Z" fill="#66B0FF"/>
<path d="M21.7715 24.9722C19.5132 24.9747 17.3482 25.8729 15.7514 27.4697C14.1546 29.0665 13.2564 31.2315 13.2539 33.4897H15.3833C15.385 31.796 16.0586 30.1721 17.2562 28.9745C18.4539 27.7768 20.0777 27.1032 21.7715 27.1016V24.9722Z" fill="#616161"/>
<path d="M21.7666 31.3601V29.2307C20.6371 29.2307 19.5539 29.6794 18.7552 30.4781C17.9565 31.2768 17.5078 32.36 17.5078 33.4895H19.6372C19.6372 32.9247 19.8615 32.3831 20.2609 31.9838C20.6602 31.5844 21.2018 31.3601 21.7666 31.3601Z" fill="#66B0FF"/>
<path d="M21.7675 24.9719C19.5093 24.9745 17.3443 25.8727 15.7475 27.4695C14.1507 29.0663 13.2525 31.2313 13.25 33.4895H15.3794C15.3811 31.7957 16.0547 30.1719 17.2523 28.9742C18.4499 27.7766 20.0738 27.103 21.7675 27.1013V24.9719Z" fill="#66B0FF"/>
<path d="M62.2266 11.1306V9.00122C65.6139 9.00488 68.8615 10.3521 71.2567 12.7474C73.652 15.1426 74.9992 18.3902 75.0029 21.7775H72.8735C72.8704 18.9548 71.7477 16.2485 69.7517 14.2524C67.7556 12.2564 65.0494 11.1337 62.2266 11.1306Z" fill="#66B0FF"/>
</svg>
