<svg width="431" height="163" viewBox="0 0 431 163" fill="none" xmlns="http://www.w3.org/2000/svg">
<path d="M180 64C180.001 62.3488 180.546 60.7439 181.551 59.4341C182.556 58.1243 183.966 57.1828 185.561 56.7557C187.156 56.3285 188.847 56.4395 190.373 57.0715C191.898 57.7035 193.172 58.8212 193.998 60.2511L196.595 58.7489C195.835 57.4331 194.799 56.2978 193.558 55.4214C192.317 54.5451 190.9 53.9485 189.406 53.6728C187.912 53.3971 186.376 53.449 184.903 53.8248C183.431 54.2006 182.058 54.8914 180.879 55.8495C179.7 56.8076 178.743 58.0102 178.073 59.3743C177.404 60.7383 177.039 62.2313 177.003 63.7503C176.967 65.2692 177.261 66.7778 177.865 68.1721C178.468 69.5663 179.368 70.8129 180.5 71.8259L182.501 69.5905C181.715 68.8865 181.086 68.0249 180.655 67.0616C180.224 66.0984 180.001 65.0552 180 64Z" fill="#66B0FF"/>
<path d="M187.499 50.5002C190.421 50.4913 193.266 51.4393 195.599 53.1994L197.401 50.8011C194.074 48.3053 189.927 47.1582 185.79 47.5894C181.653 48.0207 177.831 49.9984 175.09 53.1268C172.349 56.2552 170.89 60.3034 171.006 64.4612C171.122 68.619 172.804 72.5795 175.716 75.5502L177.858 73.4498C175.997 71.5512 174.738 69.1454 174.239 66.5342C173.74 63.923 174.023 61.2226 175.053 58.7716C176.083 56.3206 177.813 54.2282 180.027 52.7567C182.241 51.2853 184.841 50.5003 187.499 50.5002Z" fill="#66B0FF"/>
<path d="M256.501 113.5H256.172L250.688 91.5662C251.239 91.0947 251.774 90.6011 252.293 90.0854C258.004 84.4051 261.149 77.2024 261.149 69.8043C261.149 62.8583 258.301 56.1871 253.128 51.0074C252.972 50.6606 252.758 50.3431 252.494 50.0688C252.025 49.5813 251.159 49 249.7 49C245.419 49 238.188 54.0169 231.597 60.0258L223.471 55.5933C223.49 55.3983 223.501 55.2003 223.501 55C223.501 53.8133 223.149 52.6533 222.489 51.6666C221.83 50.6799 220.893 49.9109 219.797 49.4567C218.7 49.0026 217.494 48.8838 216.33 49.1153C215.166 49.3468 214.097 49.9182 213.258 50.7574C212.419 51.5965 211.847 52.6656 211.616 53.8295C211.384 54.9933 211.503 56.1997 211.957 57.2961C212.412 58.3925 213.181 59.3295 214.167 59.9888C215.154 60.6481 216.314 61 217.501 61C217.701 61 217.899 60.9897 218.094 60.9704L222.62 69.268C219.528 72.8568 216.89 76.4142 214.946 79.6369C214.019 78.2734 212.989 76.9824 211.865 75.7754C214.197 72.7096 215.924 69.8613 216.817 67.5385L214.017 66.4617C212.514 70.372 208.078 76.3032 202.441 81.9402C198.376 86.0044 194.149 89.4634 190.537 91.6795C186.468 94.1764 184.782 94.096 184.562 93.9483C184.404 93.7193 184.324 92.0324 186.821 87.9632C188.41 85.3741 190.64 82.4682 193.271 79.5331L195.214 82.7718L197.787 81.2283L195.398 77.2461C195.78 76.8498 196.167 76.4543 196.56 76.0596C197.963 74.6553 199.414 73.2998 200.911 71.9956L204.729 74.2863L206.272 71.7138L191.909 63.0959C191.746 62.2998 191.37 61.5628 190.822 60.9632C190.273 60.3635 189.573 59.9236 188.794 59.69C188.016 59.4565 187.189 59.438 186.401 59.6367C185.613 59.8353 184.894 60.2436 184.319 60.8182C183.744 61.3928 183.336 62.1123 183.137 62.9003C182.939 63.6883 182.957 64.5154 183.191 65.2937C183.424 66.0721 183.864 66.7727 184.464 67.3211C185.064 67.8695 185.8 68.2454 186.597 68.4087L191.658 76.8451C188.521 80.2707 185.883 83.6926 184.069 86.7153C181.337 91.2696 180.787 94.4149 182.436 96.0644C182.799 96.4253 183.248 96.6884 183.74 96.8294C188.312 100.836 194.193 103.031 200.273 103C200.369 103 200.466 102.999 200.562 102.998C202.476 102.978 204.383 102.743 206.245 102.299L202.885 113.5H199.501C198.308 113.501 197.164 113.976 196.32 114.82C195.477 115.663 195.002 116.807 195.001 118V127H228.001V118C228 116.807 227.525 115.663 226.681 114.82C225.838 113.976 224.694 113.501 223.501 113.5H220.288L217.61 96.0963C217.904 95.8134 218.19 95.5246 218.469 95.2298C222.605 97.3862 227.202 98.5083 231.866 98.5C231.98 98.5 232.095 98.4994 232.209 98.4981C235.531 98.4633 238.823 97.8582 241.94 96.7092L235.944 113.5H235.501C234.308 113.501 233.164 113.976 232.32 114.82C231.477 115.663 231.002 116.807 231.001 118V127H261.001V118C261 116.807 260.525 115.663 259.681 114.82C258.838 113.976 257.694 113.501 256.501 113.5ZM187.501 65.5C187.204 65.5 186.914 65.412 186.668 65.2472C186.421 65.0824 186.229 64.8481 186.115 64.574C186.002 64.2999 185.972 63.9983 186.03 63.7074C186.088 63.4164 186.23 63.1491 186.44 62.9393C186.65 62.7296 186.917 62.5867 187.208 62.5288C187.499 62.4709 187.801 62.5007 188.075 62.6142C188.349 62.7277 188.583 62.92 188.748 63.1666C188.913 63.4133 189.001 63.7033 189.001 64C189 64.3977 188.842 64.7789 188.561 65.0601C188.28 65.3413 187.899 65.4995 187.501 65.5ZM189.778 67.879C190.439 67.4892 190.99 66.9379 191.38 66.2768L198.211 70.3756C196.92 71.5268 195.662 72.7149 194.439 73.9384C194.225 74.1528 194.013 74.3682 193.801 74.5846L189.778 67.879ZM258.149 69.8041C258.149 75.0441 256.36 80.1908 253.046 84.6497C252.637 82.3798 251.988 80.1599 251.108 78.0276C253.87 74.33 256.131 70.2829 257.831 65.992C258.043 67.2516 258.15 68.5267 258.149 69.8041ZM253.077 55.4515C254.435 57.1587 255.554 59.0437 256.401 61.0542L255.983 62.3095C254.486 66.8011 252.35 71.0538 249.641 74.9365C248.433 72.7008 246.966 70.6146 245.272 68.7207C247.194 66.2989 248.946 63.7474 250.517 61.0844C251.759 58.9346 252.612 57.057 253.077 55.4515ZM248.933 80.7454C249.605 82.6796 250.073 84.679 250.328 86.7108L250.449 87.6822C250.359 87.7744 250.27 87.8671 250.178 87.9584C249.615 88.5185 249.03 89.0491 248.424 89.5503L245.219 89.8709C243.325 90.062 241.413 89.8685 239.596 89.3018C243.043 86.8372 246.178 83.9642 248.933 80.7454ZM236.417 87.8494C234.467 86.6456 232.843 84.9821 231.686 83.0048C233.982 81.0072 236.238 78.8515 238.31 76.7005C240.057 74.8878 241.74 73.0146 243.356 71.0843C245.065 73.0602 246.505 75.254 247.638 77.6086C244.447 81.5798 240.662 85.0342 236.417 87.8494ZM217.501 58C216.908 58 216.327 57.8241 215.834 57.4944C215.341 57.1648 214.956 56.6962 214.729 56.1481C214.502 55.5999 214.443 54.9967 214.559 54.4147C214.674 53.8328 214.96 53.2982 215.38 52.8787C215.799 52.4591 216.334 52.1734 216.916 52.0576C217.498 51.9419 218.101 52.0013 218.649 52.2284C219.197 52.4554 219.666 52.8399 219.995 53.3333C220.325 53.8266 220.501 54.4067 220.501 55C220.5 55.7954 220.184 56.5579 219.621 57.1203C219.059 57.6828 218.296 57.9991 217.501 58ZM220.936 59.9149C221.511 59.5114 222.012 59.0106 222.416 58.435L229.297 62.1882C228.413 63.0434 227.545 63.914 226.692 64.7995C226.026 65.4911 225.374 66.1856 224.737 66.883L220.936 59.9149ZM204.562 84.0616C206.538 82.0863 208.358 80.0926 209.972 78.1514C211.22 79.5336 212.334 81.0312 213.3 82.624C212.673 83.8513 212.174 85.1396 211.81 86.4689C209.381 88.9251 206.69 91.1069 203.785 92.9751C202.159 91.77 200.822 90.2185 199.87 88.4329C201.486 87.0324 203.051 85.5743 204.562 84.0616ZM213.958 92.3076C214.56 92.783 215.179 93.2326 215.813 93.6563C215.687 93.7817 215.562 93.9079 215.433 94.0309C214.845 94.5893 214.227 95.1138 213.58 95.602C211.243 95.8795 208.874 95.5465 206.704 94.6354C208.522 93.3848 210.256 92.0155 211.894 90.5367C212.048 90.8664 212.255 91.1685 212.507 91.4311C212.908 91.8417 213.408 92.1434 213.958 92.3076ZM187.997 96.3276C189.313 95.8082 190.581 95.1737 191.786 94.4314C193.784 93.2098 195.7 91.8587 197.521 90.3867C198.442 91.9843 199.625 93.4158 201.021 94.6214C198.156 96.2005 195.135 97.4773 192.006 98.431C190.6 97.8724 189.256 97.1674 187.997 96.3276ZM200.529 99.9985C200.443 99.9996 200.359 100 200.274 100C199.229 100 198.186 99.9284 197.151 99.7853C199.42 98.8619 201.618 97.774 203.729 96.5303C205.268 97.4064 206.937 98.0312 208.674 98.3811C206.084 99.4243 203.321 99.9729 200.529 99.9985ZM209.707 101.201C211.554 100.462 213.305 99.5021 214.92 98.341L217.252 113.5H206.017L209.707 101.201ZM223.501 116.5C223.899 116.501 224.28 116.659 224.561 116.94C224.842 117.221 225 117.602 225.001 118V124H198.001V118C198.001 117.602 198.16 117.221 198.441 116.94C198.722 116.659 199.103 116.501 199.501 116.5H223.501ZM215.302 89.5C215.287 89.5 215.273 89.4993 215.259 89.4991C215.005 89.2883 214.756 89.0729 214.511 88.8528C214.429 87.9503 214.816 85.8393 217.083 81.9166C218.825 78.9001 221.261 75.5269 224.158 72.0874L226.684 76.7183L229.318 75.2817L226.258 69.6721C227.095 68.7396 227.96 67.8089 228.853 66.8802C229.935 65.7562 231.003 64.6937 232.055 63.6927L237.783 66.8168L239.219 64.1832L234.381 61.5439C241.352 55.3124 247.183 52 249.7 52C250.006 52 250.243 52.0559 250.334 52.1496C250.638 52.4665 250.849 54.5118 247.919 59.5834C245.299 64.1185 241.119 69.4583 236.149 74.6198C226.841 84.2849 218.461 89.5 215.302 89.5ZM218.512 91.8158C221.638 90.6533 225.486 88.1086 229.363 84.9597C230.482 86.7484 231.924 88.3132 233.616 89.5743C230.327 91.4525 226.832 92.9454 223.201 94.0236C221.568 93.4477 219.997 92.708 218.512 91.8158ZM232.175 95.4983C232.071 95.4994 231.969 95.5 231.867 95.5C230.789 95.4998 229.713 95.4336 228.643 95.3016C231.383 94.2025 234.024 92.8735 236.54 91.3287C238.618 92.3046 240.872 92.8496 243.167 92.9311C239.736 94.584 235.983 95.4605 232.175 95.4981V95.4983ZM245.744 94.9793C246.547 94.5408 247.33 94.0636 248.091 93.5476L253.08 113.5H239.13L245.744 94.9793ZM258.001 124H234.001V118C234.001 117.602 234.16 117.221 234.441 116.94C234.722 116.659 235.103 116.501 235.501 116.5H256.501C256.899 116.501 257.28 116.659 257.561 116.94C257.842 117.221 258 117.602 258.001 118V124Z" fill="#616161"/>
<path d="M217.501 46.0001C218.952 46.0012 220.381 46.3525 221.667 47.0242C222.953 47.6959 224.058 48.6681 224.888 49.8583L227.349 48.1419C226.346 46.7018 225.039 45.4991 223.521 44.6188C222.003 43.7384 220.31 43.2017 218.562 43.0465C216.814 42.8913 215.053 43.1215 213.403 43.7206C211.754 44.3198 210.256 45.2735 209.015 46.5145C207.774 47.7554 206.82 49.2534 206.221 50.9029C205.622 52.5524 205.392 54.3133 205.547 56.0614C205.702 57.8095 206.239 59.5022 207.119 61.0204C208 62.5386 209.202 63.8452 210.642 64.8481L212.359 62.3876C210.786 61.2928 209.604 59.7246 208.984 57.9114C208.364 56.0981 208.34 54.1344 208.913 52.3061C209.487 50.4778 210.629 48.8803 212.174 47.7461C213.718 46.6119 215.584 46.0002 217.501 46.0001Z" fill="#66B0FF"/>
<path d="M207.147 69.7265L208.874 67.2737C207.066 66.0022 205.56 64.3467 204.466 62.4256C203.372 60.5044 202.716 58.3652 202.545 56.1609C202.374 53.9567 202.692 51.7419 203.477 49.675C204.262 47.6082 205.494 45.7404 207.085 44.2053C208.677 42.6702 210.587 41.5058 212.681 40.7954C214.775 40.085 216.999 39.8461 219.196 40.0959C221.393 40.3456 223.507 41.0779 225.388 42.2402C227.269 43.4025 228.869 44.9662 230.075 46.8193L232.588 45.1809C231.141 42.9576 229.22 41.0817 226.963 39.6873C224.707 38.2929 222.169 37.4146 219.534 37.1151C216.898 36.8156 214.228 37.1024 211.716 37.9549C209.204 38.8074 206.912 40.2046 205.003 42.0465C203.093 43.8884 201.615 46.1295 200.673 48.6094C199.731 51.0894 199.349 53.7468 199.554 56.3917C199.759 59.0365 200.546 61.6034 201.858 63.9087C203.171 66.214 204.977 68.2006 207.147 69.7265Z" fill="#66B0FF"/>
</svg>
