<svg width="45" height="49" viewBox="0 0 45 49" fill="none" xmlns="http://www.w3.org/2000/svg">
<g filter="url(#filter0_d_1482_18591)">
<mask id="path-1-outside-1_1482_18591" maskUnits="userSpaceOnUse" x="4" y="0" width="37" height="41" fill="black">
<rect fill="white" x="4" width="37" height="41"/>
<path fill-rule="evenodd" clip-rule="evenodd" d="M25.4581 34.8451C33.2115 33.4707 39.0998 26.6979 39.0998 18.5499C39.0998 9.40964 31.6901 2 22.5499 2C13.4096 2 6 9.40964 6 18.5499C6 26.8414 12.0974 33.7087 20.0529 34.9126L22.7595 38.0008L25.4581 34.8451Z"/>
</mask>
<path fill-rule="evenodd" clip-rule="evenodd" d="M25.4581 34.8451C33.2115 33.4707 39.0998 26.6979 39.0998 18.5499C39.0998 9.40964 31.6901 2 22.5499 2C13.4096 2 6 9.40964 6 18.5499C6 26.8414 12.0974 33.7087 20.0529 34.9126L22.7595 38.0008L25.4581 34.8451Z" fill="url(#paint0_linear_1482_18591)" fill-opacity="0.7" shape-rendering="crispEdges"/>
<path d="M25.4581 34.8451L25.1963 33.3681L24.6672 33.4619L24.318 33.8702L25.4581 34.8451ZM20.0529 34.9126L21.1809 33.924L20.8195 33.5116L20.2773 33.4295L20.0529 34.9126ZM22.7595 38.0008L21.6315 38.9895L22.7735 40.2925L23.8995 38.9757L22.7595 38.0008ZM37.5998 18.5499C37.5998 25.9579 32.246 32.1185 25.1963 33.3681L25.7199 36.3221C34.1771 34.8229 40.5998 27.438 40.5998 18.5499H37.5998ZM22.5499 3.5C30.8617 3.5 37.5998 10.2381 37.5998 18.5499H40.5998C40.5998 8.58121 32.5186 0.5 22.5499 0.5V3.5ZM7.5 18.5499C7.5 10.2381 14.2381 3.5 22.5499 3.5V0.5C12.5812 0.5 4.5 8.58121 4.5 18.5499H7.5ZM20.2773 33.4295C13.0442 32.3349 7.5 26.0885 7.5 18.5499H4.5C4.5 27.5942 11.1506 35.0825 19.8284 36.3958L20.2773 33.4295ZM23.8876 37.0121L21.1809 33.924L18.9248 35.9013L21.6315 38.9895L23.8876 37.0121ZM24.318 33.8702L21.6195 37.026L23.8995 38.9757L26.5981 35.82L24.318 33.8702Z" fill="white" mask="url(#path-1-outside-1_1482_18591)"/>
</g>
<circle cx="22.5506" cy="18.5486" r="13.1717" fill="url(#paint1_linear_1482_18591)" stroke="#277D86"/>
<path fill-rule="evenodd" clip-rule="evenodd" d="M18.2619 20.9877H18.3327L17.7002 29.0059C18.0523 28.9142 18.4084 28.8364 18.7663 28.766L19.1692 23.6595L21.5375 26.3436L19.5186 28.6316C20.0285 28.5536 20.5434 28.5008 21.0609 28.4668L22.236 27.1352L23.411 28.4668C23.9285 28.5008 24.4433 28.5535 24.9531 28.6315L22.9344 26.3437L25.2719 23.6946L25.6546 28.7566C26.0121 28.8258 26.3675 28.9029 26.7193 28.9934L26.2283 22.4975C26.2451 22.4068 26.238 22.3133 26.2077 22.2261L25.8744 17.8164L25.8667 17.7922V17.7147L25.8611 17.6404H25.8667V16.6086L25.8718 16.5884H25.7816L25.54 13.3924C25.5396 13.3878 25.5387 13.3834 25.5378 13.379C25.5371 13.3755 25.5363 13.372 25.5359 13.3683C25.5338 13.3512 25.5309 13.3344 25.5271 13.3175C25.5235 13.3009 25.5191 13.2848 25.5139 13.2688C25.5089 13.2535 25.5033 13.2385 25.4969 13.2237C25.4901 13.2078 25.4826 13.1926 25.4743 13.1777C25.4666 13.1636 25.4585 13.15 25.4494 13.1366C25.4396 13.1221 25.4289 13.1086 25.4178 13.0952C25.4078 13.0832 25.3978 13.0714 25.3866 13.0603C25.3728 13.0468 25.3583 13.0342 25.3432 13.0223C25.3397 13.0196 25.3365 13.0166 25.3334 13.0136C25.3291 13.0096 25.3249 13.0056 25.3201 13.0022C25.3183 13.0009 25.3164 12.9999 25.3145 12.999C25.3128 12.9981 25.311 12.9972 25.3094 12.9961C25.2919 12.9848 25.2738 12.9745 25.2551 12.9654C25.2511 12.9633 25.2472 12.9612 25.2432 12.959C25.2357 12.9549 25.2282 12.9508 25.2205 12.9475C25.2022 12.9404 25.1835 12.9344 25.1646 12.9294C25.16 12.928 25.1554 12.9265 25.1509 12.925C25.1422 12.9222 25.1335 12.9194 25.1246 12.9175C25.1132 12.9152 25.1015 12.9142 25.0898 12.9131C25.0849 12.9127 25.08 12.9123 25.0751 12.9117C25.0703 12.9112 25.0654 12.9106 25.0606 12.91C25.0486 12.9085 25.0366 12.907 25.0246 12.9069L25.0196 12.9064H22.7579V10.4473C23.1061 10.3242 23.3996 10.0819 23.5865 9.76332C23.7734 9.44473 23.8417 9.07033 23.7792 8.70628C23.7167 8.34224 23.5276 8.012 23.2452 7.77392C22.9628 7.53585 22.6053 7.40527 22.236 7.40527C21.8666 7.40527 21.5091 7.53585 21.2267 7.77392C20.9443 8.012 20.7552 8.34224 20.6927 8.70628C20.6303 9.07033 20.6985 9.44473 20.8854 9.76332C21.0723 10.0819 21.3658 10.3242 21.714 10.4473V12.9064H19.4587C19.3772 12.9047 19.2966 12.9229 19.2237 12.9594C19.192 12.975 19.1619 12.9939 19.134 13.0157C19.0708 13.0645 19.0196 13.1272 18.9844 13.1989C18.9576 13.2537 18.9404 13.3128 18.9337 13.3734L18.9336 13.3748C18.9329 13.3814 18.9322 13.388 18.9317 13.3945L18.6271 17.2557L18.6341 17.2661L18.5249 18.3576H18.5401L18.4157 19.9357H18.3671L18.2619 20.9877ZM19.4215 22.3624L22.2359 25.5521L25.0504 22.3624L22.236 18.3323L19.4215 22.3624ZM22.8743 17.4183L25.0311 20.5066L24.6096 14.9334L22.8743 17.4183ZM22.5293 8.52192C22.4423 8.46462 22.3402 8.43446 22.236 8.43527C22.097 8.43598 21.9641 8.49175 21.8662 8.59036C21.7684 8.68897 21.7137 8.82237 21.714 8.96128C21.714 9.0655 21.745 9.16736 21.803 9.25396C21.861 9.34055 21.9434 9.40797 22.0397 9.44766C22.1361 9.48735 22.2421 9.49753 22.3442 9.4769C22.4464 9.45627 22.5401 9.40576 22.6135 9.33179C22.6869 9.25781 22.7367 9.1637 22.7565 9.06139C22.7763 8.95908 22.7653 8.85318 22.7249 8.75714C22.6844 8.66109 22.6164 8.57923 22.5293 8.52192ZM22.2359 16.5043L24.0139 13.9584H20.4579L22.2359 16.5043ZM21.5977 17.4183L19.858 14.9272L19.4149 20.5438L21.5977 17.4183Z" fill="white"/>
<defs>
<filter id="filter0_d_1482_18591" x="0.5" y="0.5" width="44.0996" height="47.793" filterUnits="userSpaceOnUse" color-interpolation-filters="sRGB">
<feFlood flood-opacity="0" result="BackgroundImageFix"/>
<feColorMatrix in="SourceAlpha" type="matrix" values="0 0 0 0 0 0 0 0 0 0 0 0 0 0 0 0 0 0 127 0" result="hardAlpha"/>
<feOffset dy="4"/>
<feGaussianBlur stdDeviation="2"/>
<feComposite in2="hardAlpha" operator="out"/>
<feColorMatrix type="matrix" values="0 0 0 0 0 0 0 0 0 0 0 0 0 0 0 0 0 0 0.25 0"/>
<feBlend mode="normal" in2="BackgroundImageFix" result="effect1_dropShadow_1482_18591"/>
<feBlend mode="normal" in="SourceGraphic" in2="effect1_dropShadow_1482_18591" result="shape"/>
</filter>
<linearGradient id="paint0_linear_1482_18591" x1="22.5499" y1="2" x2="22.5499" y2="38.0008" gradientUnits="userSpaceOnUse">
<stop stop-color="#828097"/>
<stop offset="1" stop-color="#575663"/>
</linearGradient>
<linearGradient id="paint1_linear_1482_18591" x1="22.5506" y1="4.87695" x2="22.5506" y2="32.2203" gradientUnits="userSpaceOnUse">
<stop stop-color="#54C3CF"/>
<stop offset="1" stop-color="#3A8189"/>
</linearGradient>
</defs>
</svg>
