<svg width="24" height="24" viewBox="0 0 24 24" fill="none" xmlns="http://www.w3.org/2000/svg">
<g clip-path="url(#clip0_1045_12437)">
<path d="M17.7031 12.3941C17.7633 12.6092 17.7416 12.839 17.642 13.039C17.5425 13.239 17.3723 13.3949 17.1644 13.4765C16.9416 13.5632 16.6936 13.5578 16.4748 13.4617C16.2559 13.3656 16.0842 13.1865 15.9974 12.9638C15.7559 12.3069 15.4151 11.691 14.9867 11.1376C14.6027 10.6466 14.1294 10.2324 13.5918 9.91693C13.0529 9.60832 12.4602 9.40506 11.8454 9.31797C11.1629 9.22272 10.4697 9.23591 9.79134 9.35703H9.76042C9.53589 9.38447 9.30927 9.32636 9.12565 9.19427C9.03011 9.12632 8.94918 9.03988 8.88767 8.94007C8.82616 8.84026 8.78533 8.72911 8.76758 8.61322V8.57253C8.74005 8.34749 8.79815 8.12032 8.93034 7.93613C8.99871 7.84115 9.08529 7.76072 9.18505 7.69952C9.2848 7.63832 9.39574 7.59759 9.51139 7.57969H9.53255C10.407 7.4337 11.2989 7.42601 12.1758 7.5569C12.9943 7.67943 13.7824 7.95554 14.4984 8.37071C15.2177 8.79334 15.8528 9.34512 16.3717 9.99831C16.9285 10.7054 17.3727 11.4944 17.6885 12.3372C17.6964 12.3575 17.7014 12.3789 17.7031 12.4007V12.3941ZM2 20.2327V18.6686L4.34701 16.2695C4.48069 16.1401 4.60625 16.0026 4.72298 15.8577C4.81668 15.7418 4.89694 15.6157 4.96224 15.4817C5.01843 15.3643 5.04789 15.2359 5.0485 15.1057C5.05306 14.9839 5.02496 14.8631 4.96712 14.7558C4.91077 14.6614 4.8224 14.5904 4.7181 14.5556C4.5788 14.5111 4.43293 14.4908 4.28678 14.4954H2.12207V12.928C2.44759 12.8531 2.8252 12.7848 3.23372 12.7197C3.70695 12.6515 4.18467 12.6194 4.66276 12.6236C5.14351 12.6022 5.62321 12.6849 6.06901 12.8661C6.39221 13.0096 6.65202 13.2659 6.7998 13.5872C6.95562 13.9565 7.03001 14.3551 7.0179 14.7558C7.02055 15.0627 6.97496 15.368 6.88281 15.6607C6.79432 15.9321 6.66596 16.1888 6.50195 16.4225C6.32442 16.6764 6.12509 16.9144 5.90625 17.1337L4.60417 18.4619H7.22298V20.2294L2 20.2327ZM10.138 20.2848C9.7543 20.3102 9.37215 20.2159 9.04441 20.0147C8.71668 19.8135 8.45955 19.5154 8.30859 19.1617C8.13604 18.7759 8.02142 18.3668 7.96842 17.9475C7.90287 17.4588 7.87078 16.9661 7.8724 16.4729C7.86868 15.94 7.90842 15.4076 7.99121 14.8811C8.05277 14.4509 8.19761 14.0368 8.41764 13.662C8.62983 13.3189 8.93912 13.0464 9.30632 12.8792C9.78171 12.6795 10.295 12.5862 10.8102 12.6057C11.1547 12.6029 11.4992 12.6181 11.8421 12.6513C12.1158 12.6785 12.3876 12.7225 12.6559 12.7831C12.9066 12.8401 13.1686 12.9068 13.4388 12.9817V14.5149C13.2907 14.4889 13.1003 14.4645 12.8691 14.4449C12.638 14.4254 12.3809 14.4075 12.0977 14.3945C11.8145 14.3814 11.5117 14.3733 11.1927 14.3733C10.8882 14.3541 10.5841 14.4171 10.3122 14.5556C10.2091 14.6298 10.1226 14.7245 10.0579 14.8337C9.99317 14.9429 9.95175 15.0644 9.9362 15.1904C9.86663 15.6136 9.83612 16.0424 9.84505 16.4713C9.84064 16.8127 9.85749 17.1541 9.89551 17.4934C9.91313 17.7028 9.96826 17.9074 10.0583 18.0973C10.1225 18.2266 10.2286 18.3305 10.3594 18.3919C10.4973 18.45 10.646 18.4777 10.7956 18.4732C11.0196 18.475 11.2436 18.463 11.4661 18.4374C11.6631 18.4146 11.8112 18.3919 11.9137 18.3723V17.3958H10.8721V15.8333C11.0202 15.8121 11.1976 15.7958 11.4059 15.7828C11.6143 15.7698 11.8242 15.7568 12.0456 15.747C12.2669 15.7372 12.4671 15.7324 12.6494 15.7324C12.8936 15.7324 13.1084 15.7324 13.3005 15.7324C13.4925 15.7324 13.6569 15.7324 13.8132 15.747V20.2278H12.3255L12.0602 19.7395C11.8193 19.8826 11.564 19.9999 11.2985 20.0895C10.9265 20.2235 10.5334 20.2897 10.138 20.2848ZM21.9577 11.0318C22.0271 11.2558 22.0067 11.4981 21.9007 11.7073C21.8478 11.8131 21.7743 11.9073 21.6846 11.9844C21.5949 12.0615 21.4908 12.12 21.3783 12.1565C21.151 12.2304 20.9038 12.2123 20.6898 12.1061C20.5835 12.0527 20.489 11.9787 20.4116 11.8885C20.3342 11.7982 20.2755 11.6935 20.2389 11.5803V11.5673C19.8379 10.3101 19.2378 9.12537 18.4616 8.05821C17.7826 7.13255 16.915 6.36146 15.916 5.79584C14.9117 5.24763 13.8019 4.92023 12.6608 4.83555C11.3328 4.74182 9.99828 4.85994 8.70736 5.18548C8.59375 5.21263 8.47591 5.21712 8.36056 5.19869C8.24522 5.18026 8.13464 5.13927 8.03516 5.07806C7.83185 4.95262 7.68533 4.75299 7.62663 4.52142V4.49538C7.57504 4.2684 7.61541 4.03023 7.73893 3.83294C7.86515 3.63273 8.06312 3.48833 8.29232 3.4293H8.31836C9.80802 3.05705 11.3482 2.92898 12.8789 3.05007C14.2489 3.16612 15.5795 3.56751 16.7852 4.22845C17.9848 4.90148 19.0292 5.81989 19.8499 6.92376C20.7493 8.14286 21.4457 9.49934 21.9121 10.9407C21.9328 10.9677 21.9478 10.9988 21.9561 11.0318H21.9577Z" fill="#424242"/>
</g>
<defs>
<clipPath id="clip0_1045_12437">
<rect width="20" height="17.2852" fill="white" transform="translate(2 3)"/>
</clipPath>
</defs>
</svg>
