<svg width="16" height="16" viewBox="0 0 16 16" fill="none" xmlns="http://www.w3.org/2000/svg">
<path d="M14.9187 6.40343L3.92561 2.32531L3.90999 2.31968C3.68833 2.24299 3.44957 2.23021 3.22099 2.28281C2.99242 2.3354 2.78325 2.45124 2.6174 2.61709C2.45155 2.78294 2.33571 2.99211 2.28311 3.22069C2.23052 3.44926 2.2433 3.68802 2.31999 3.90968L2.32561 3.92531L6.40374 14.9184C6.49019 15.1616 6.64978 15.372 6.86061 15.5209C7.07144 15.6697 7.32317 15.7496 7.58124 15.7497H7.60311C7.86674 15.7451 8.12216 15.6573 8.33287 15.4988C8.54357 15.3403 8.69876 15.1192 8.77624 14.8672L8.78186 14.8491L10.1087 10.1084L14.8494 8.78156L14.8675 8.77593C15.1195 8.69928 15.3408 8.54499 15.4999 8.33507C15.659 8.12515 15.7478 7.87033 15.7534 7.607C15.7591 7.34366 15.6815 7.08525 15.5316 6.86867C15.3817 6.65208 15.1672 6.48838 14.9187 6.40093V6.40343ZM9.29811 8.77843C9.17408 8.81316 9.06108 8.87925 8.97 8.97032C8.87893 9.0614 8.81284 9.1744 8.77811 9.29843L7.54811 13.6916L3.92499 3.92468L13.6912 7.54968L9.29811 8.77843Z" fill="#424242"/>
</svg>
