<svg width="16" height="16" viewBox="0 0 16 16" fill="none" xmlns="http://www.w3.org/2000/svg">
<g clip-path="url(#clip0_522_21684)">
<path d="M7.46938 6.78016C7.53905 6.85008 7.62185 6.90556 7.71301 6.94341C7.80418 6.98127 7.90192 7.00075 8.00063 7.00075C8.09934 7.00075 8.19708 6.98127 8.28824 6.94341C8.3794 6.90556 8.4622 6.85008 8.53188 6.78016L10.9069 4.40516C10.9768 4.33548 11.0323 4.25269 11.0701 4.16153C11.108 4.07036 11.1275 3.97262 11.1275 3.87391C11.1275 3.7752 11.108 3.67746 11.0701 3.5863C11.0323 3.49513 10.9768 3.41234 10.9069 3.34266L8.53188 0.967662C8.4622 0.897742 8.3794 0.842264 8.28824 0.80441C8.19708 0.766556 8.09934 0.74707 8.00063 0.74707C7.90192 0.74707 7.80418 0.766556 7.71301 0.80441C7.62185 0.842264 7.53905 0.897742 7.46938 0.967662L5.09438 3.34266C5.02446 3.41234 4.96898 3.49513 4.93113 3.5863C4.89327 3.67746 4.87379 3.7752 4.87379 3.87391C4.87379 3.97262 4.89327 4.07036 4.93113 4.16153C4.96898 4.25269 5.02446 4.33548 5.09438 4.40516L7.46938 6.78016ZM8 2.56204L9.3125 3.87454L8 5.18704L6.6875 3.87454L8 2.56204ZM8.53063 9.22079C8.46095 9.15087 8.37815 9.09539 8.28699 9.05754C8.19583 9.01968 8.09809 9.0002 7.99938 9.0002C7.90067 9.0002 7.80293 9.01968 7.71176 9.05754C7.6206 9.09539 7.5378 9.15087 7.46813 9.22079L5.09313 11.5958C5.02321 11.6655 4.96773 11.7483 4.92987 11.8394C4.89202 11.9306 4.87254 12.0283 4.87254 12.127C4.87254 12.2257 4.89202 12.3235 4.92987 12.4147C4.96773 12.5058 5.02321 12.5886 5.09313 12.6583L7.46813 15.0333C7.5378 15.1032 7.6206 15.1587 7.71176 15.1965C7.80293 15.2344 7.90067 15.2539 7.99938 15.2539C8.09809 15.2539 8.19583 15.2344 8.28699 15.1965C8.37815 15.1587 8.46095 15.1032 8.53063 15.0333L10.9056 12.6583C10.9755 12.5886 11.031 12.5058 11.0689 12.4147C11.1067 12.3235 11.1262 12.2257 11.1262 12.127C11.1262 12.0283 11.1067 11.9306 11.0689 11.8394C11.031 11.7483 10.9755 11.6655 10.9056 11.5958L8.53063 9.22079ZM8 13.437L6.6875 12.1245L8 10.812L9.3125 12.1245L8 13.437ZM6.78063 7.46704L4.40563 5.09204C4.33595 5.02212 4.25315 4.96664 4.16199 4.92879C4.07083 4.89093 3.97309 4.87145 3.87438 4.87145C3.77567 4.87145 3.67793 4.89093 3.58676 4.92879C3.4956 4.96664 3.4128 5.02212 3.34313 5.09204L0.968127 7.46704C0.898207 7.53672 0.84273 7.61951 0.804875 7.71067C0.767021 7.80184 0.747536 7.89958 0.747536 7.99829C0.747536 8.097 0.767021 8.19474 0.804875 8.2859C0.84273 8.37706 0.898207 8.45986 0.968127 8.52954L3.34313 10.9045C3.4128 10.9745 3.4956 11.0299 3.58676 11.0678C3.67793 11.1056 3.77567 11.1251 3.87438 11.1251C3.97309 11.1251 4.07083 11.1056 4.16199 11.0678C4.25315 11.0299 4.33595 10.9745 4.40563 10.9045L6.78063 8.52954C6.92127 8.38889 7.00028 8.19813 7.00028 7.99923C7.00028 7.80032 6.92127 7.60956 6.78063 7.46891V7.46704ZM3.875 9.31204L2.5625 7.99954L3.875 6.68704L5.1875 7.99954L3.875 9.31204ZM15.0306 7.46704L12.6556 5.09204C12.5859 5.02212 12.5032 4.96664 12.412 4.92879C12.3208 4.89093 12.2231 4.87145 12.1244 4.87145C12.0257 4.87145 11.9279 4.89093 11.8368 4.92879C11.7456 4.96664 11.6628 5.02212 11.5931 5.09204L9.21813 7.46704C9.14821 7.53672 9.09273 7.61951 9.05487 7.71067C9.01702 7.80184 8.99753 7.89958 8.99753 7.99829C8.99753 8.097 9.01702 8.19474 9.05487 8.2859C9.09273 8.37706 9.14821 8.45986 9.21813 8.52954L11.5931 10.9045C11.6628 10.9745 11.7456 11.0299 11.8368 11.0678C11.9279 11.1056 12.0257 11.1251 12.1244 11.1251C12.2231 11.1251 12.3208 11.1056 12.412 11.0678C12.5032 11.0299 12.5859 10.9745 12.6556 10.9045L15.0306 8.52954C15.1713 8.38889 15.2503 8.19813 15.2503 7.99923C15.2503 7.80032 15.1713 7.60956 15.0306 7.46891V7.46704ZM12.125 9.31204L10.8125 7.99954L12.125 6.68704L13.4375 7.99954L12.125 9.31204Z" fill="#424242"/>
</g>
<defs>
<clipPath id="clip0_522_21684">
<rect width="16" height="16" fill="white"/>
</clipPath>
</defs>
</svg>
