<svg width="18" height="18" viewBox="0 0 18 18" fill="none" xmlns="http://www.w3.org/2000/svg">
<path d="M2.82235 3.29589C2.73051 3.3755 2.65695 3.47402 2.60671 3.5847C2.55646 3.69537 2.53073 3.8156 2.53126 3.93714V15.7496C2.53126 15.9734 2.62015 16.188 2.77839 16.3463C2.93662 16.5045 3.15123 16.5934 3.37501 16.5934C3.59878 16.5934 3.8134 16.5045 3.97163 16.3463C4.12986 16.188 4.21876 15.9734 4.21876 15.7496V12.7768C5.8247 11.5731 7.17891 12.1356 9.18845 13.1284C10.3296 13.6909 11.6311 14.3378 13.0416 14.3378C14.0766 14.3378 15.1706 13.9904 16.3027 13.0103C16.3938 12.9313 16.4669 12.8337 16.5171 12.724C16.5674 12.6144 16.5935 12.4952 16.5938 12.3746V3.93714C16.5938 3.77536 16.5473 3.61699 16.4599 3.48088C16.3724 3.34477 16.2477 3.23668 16.1005 3.16947C15.9534 3.10226 15.79 3.07878 15.6299 3.10182C15.4697 3.12486 15.3196 3.19344 15.1974 3.29941C13.4599 4.8048 12.0663 4.23527 9.93657 3.18128C7.95868 2.19831 5.49634 0.979799 2.82235 3.29589ZM14.9063 11.971C13.3003 13.1755 11.9461 12.6116 9.93657 11.6195C8.30813 10.8109 6.35134 9.84339 4.21876 10.8186V4.33722C5.8247 3.13347 7.17891 3.69597 9.18845 4.68878C10.3296 5.25128 11.6311 5.89816 13.0416 5.89816C13.6854 5.89912 14.3218 5.75971 14.9063 5.48964V11.971Z" fill="#007BFF"/>
</svg>
