<svg width="24" height="24" viewBox="0 0 24 24" fill="none" xmlns="http://www.w3.org/2000/svg">
    <path d="M10.8118 12.3357C10.8118 11.9534 11.1217 11.6436 11.5039 11.6436C11.8862 11.6436 12.1961 11.9534 12.1961 12.3357V21.4327C12.1961 21.815 11.8862 22.1249 11.5039 22.1249C11.1217 22.1249 10.8118 21.815 10.8118 21.4327V12.3357Z"
          fill="#616161"/>
    <path d="M13.1846 11.1497C13.1846 12.0781 12.432 12.8307 11.5036 12.8307C10.5752 12.8307 9.82263 12.0781 9.82263 11.1497C9.82263 10.2213 10.5752 9.46875 11.5036 9.46875C12.432 9.46875 13.1846 10.2213 13.1846 11.1497Z"
          fill="#616161"/>
    <path fill-rule="evenodd" clip-rule="evenodd" d="M11.7379 7.19505C11.0721 7.18864 10.4167 7.35769 9.83887 7.68458C9.26102 8.01144 8.78155 8.48424 8.44889 9.0542C8.11625 9.62412 7.94214 10.271 7.94391 10.9289C7.94569 11.5868 8.12329 12.2328 8.45901 12.8009C8.65348 13.1301 8.54433 13.5545 8.21522 13.749C7.88612 13.9434 7.46167 13.8343 7.2672 13.5052C6.80635 12.7253 6.56203 11.8375 6.55959 10.9327C6.55715 10.0278 6.79667 9.13875 7.25331 8.35638L7.8511 8.70529L7.25331 8.35638C7.70993 7.57405 8.36712 6.92663 9.15729 6.47966C9.94743 6.03271 10.8425 5.80203 11.7512 5.81079C12.6599 5.81954 13.5504 6.06742 14.3317 6.52954C15.113 6.99167 15.7574 7.65168 16.1987 8.4427C16.6399 9.23376 16.862 10.1273 16.8419 11.0319C16.8218 11.9366 16.5601 12.8194 16.0841 13.5903C15.8833 13.9155 15.4568 14.0164 15.1315 13.8155C14.8063 13.6147 14.7054 13.1882 14.9063 12.8629C15.2531 12.3013 15.4433 11.6589 15.4579 11.0011C15.4726 10.3434 15.3111 9.69326 14.9897 9.11708C14.6683 8.54087 14.1982 8.05896 13.6269 7.72105C13.0556 7.38311 12.4037 7.20147 11.7379 7.19505Z"
          fill="#616161"/>
    <path fill-rule="evenodd" clip-rule="evenodd" d="M15.4785 4.66998C14.277 3.95588 12.8922 3.59718 11.4891 3.63737C10.0859 3.67756 8.72473 4.1149 7.56742 4.89641C6.41019 5.67786 5.50593 6.77023 4.96096 8.04261C4.41602 9.31492 4.25287 10.7145 4.49051 12.0751C4.72815 13.4358 5.35684 14.7016 6.30302 15.7214C6.56302 16.0016 6.54661 16.4396 6.26637 16.6996C5.98614 16.9596 5.54819 16.9432 5.28819 16.6629C4.16134 15.4484 3.4107 13.9387 3.12682 12.3133C2.84293 10.6878 3.03801 9.01618 3.68844 7.49758C4.33883 5.97907 5.41674 4.67832 6.7927 3.74916C8.16857 2.82006 9.78491 2.30128 11.4494 2.25361C13.114 2.20594 14.7579 2.63133 16.1857 3.47998C17.6137 4.32868 18.766 5.56532 19.5043 7.04384C20.2427 8.52244 20.5356 10.18 20.3476 11.8191C20.1596 13.4581 19.4988 15.0084 18.445 16.2857C18.2017 16.5805 17.7654 16.6223 17.4705 16.3791C17.1757 16.1358 17.1339 15.6995 17.3772 15.4047C18.2617 14.3326 18.8149 13.0333 18.9723 11.6613C19.1296 10.2895 18.8846 8.9015 18.2658 7.66231C17.6469 6.42303 16.6799 5.38404 15.4785 4.66998Z"
          fill="#616161"/>
</svg>
