<svg width="24" height="24" viewBox="0 0 24 24" fill="none" xmlns="http://www.w3.org/2000/svg">
<g clip-path="url(#clip0_1565_15252)">
<path fill-rule="evenodd" clip-rule="evenodd" d="M13.2552 13.9965L12.976 12.7178C14.1729 12.9411 16.0938 15.3795 16.7155 16.487C17.0504 17.0897 17.3253 17.7237 17.5364 18.38C17.9887 20.0664 17.5531 21.6449 15.7234 22.0116C14.5787 22.2424 12.44 22.2573 11.2357 22.1977C9.93271 22.1307 7.9336 22.1326 7.41056 20.8017C6.5655 18.6444 8.11416 16.0868 9.52693 14.5214C9.70875 14.3195 9.90072 14.1269 10.1021 13.9444C10.6158 13.494 11.1705 12.9579 11.8313 12.7345L11.1929 13.9239L12.1235 12.6936H12.6112L13.2571 13.9965H13.2552ZM6.21184 18.2404C6.1973 18.2118 6.1805 18.1845 6.16158 18.1585C6.07782 18.0208 5.9922 17.8831 5.90844 17.7267C5.82468 17.5703 5.73533 17.3991 5.65343 17.2632C5.57153 17.1273 5.50825 16.9356 5.44496 16.7662C5.38167 16.5969 5.32956 16.4517 5.25882 16.2525C5.2178 16.117 5.13511 15.9978 5.02251 15.9119C4.9099 15.8261 4.77311 15.7778 4.63154 15.7741H2.80927C2.75197 15.7759 2.69493 15.7657 2.64175 15.7444C2.59408 15.7216 2.55162 15.6893 2.51703 15.6494C2.47949 15.6127 2.44751 15.5707 2.4221 15.5247C2.39878 15.4714 2.38796 15.4135 2.39046 15.3553V13.0658C2.38999 13.0123 2.39752 12.959 2.4128 12.9076C2.43916 12.8527 2.47509 12.8029 2.5189 12.7606C2.55283 12.7223 2.59566 12.6929 2.64361 12.675C2.6974 12.6534 2.75508 12.6433 2.81299 12.6452H4.48822C4.64784 12.6446 4.80231 12.5886 4.92522 12.4868C5.04813 12.3849 5.13183 12.2435 5.16203 12.0868C5.20298 11.9006 5.24579 11.7387 5.28674 11.5898C5.32769 11.4409 5.39284 11.264 5.45613 11.0947C5.51294 10.9298 5.57881 10.7683 5.65343 10.6107C5.72789 10.4432 5.81351 10.2961 5.8861 10.1491C5.95591 10.0214 5.9824 9.87458 5.96159 9.73058C5.94078 9.58658 5.87379 9.45323 5.7707 9.35056L4.46774 8.03272C4.45844 8.03272 4.45844 8.03272 4.44541 8.03272C4.40741 7.99684 4.37592 7.95464 4.35234 7.90801C4.33234 7.86174 4.32464 7.81108 4.33 7.76096C4.32765 7.70644 4.33851 7.65216 4.36165 7.60274C4.385 7.54609 4.42134 7.49572 4.46774 7.4557L6.07782 5.85492C6.11889 5.80967 6.16898 5.77353 6.22487 5.74882C6.27451 5.72635 6.32863 5.71553 6.38309 5.71718C6.43751 5.71604 6.49151 5.72684 6.5413 5.74882C6.59163 5.77354 6.63804 5.80553 6.67904 5.84375H6.68835L7.88707 7.02572C7.99945 7.13744 8.14752 7.2061 8.30539 7.21971C8.46327 7.23332 8.6209 7.19101 8.75074 7.10018C8.88848 7.01641 9.02436 6.93265 9.18072 6.84889L9.65537 6.60505C9.81358 6.5306 9.98297 6.458 10.1505 6.39658C10.318 6.33515 10.4669 6.28118 10.6661 6.21044C10.8009 6.16572 10.9181 6.07953 11.001 5.96421C11.0839 5.84888 11.1283 5.7103 11.1277 5.56827V3.74786C11.1254 3.68974 11.1362 3.63184 11.1593 3.57847C11.1829 3.53537 11.209 3.49372 11.2375 3.45376C11.2723 3.41599 11.3157 3.38724 11.3641 3.37C11.4167 3.34664 11.4741 3.33581 11.5316 3.33836H13.3353C13.3928 3.33627 13.45 3.34708 13.5028 3.37C13.551 3.38642 13.5941 3.41532 13.6275 3.45376C13.6592 3.4931 13.6878 3.53479 13.7131 3.57847C13.7349 3.63221 13.745 3.68993 13.7429 3.74786V5.56827C13.7436 5.7118 13.7897 5.85143 13.8746 5.96713C13.9596 6.08283 14.079 6.16866 14.2157 6.2123C14.4149 6.27373 14.588 6.33702 14.7294 6.38913C14.8709 6.44125 15.0664 6.52688 15.2264 6.59947C15.3865 6.67206 15.5317 6.75768 15.6992 6.84145C15.8667 6.92521 15.9933 7.01083 16.1311 7.09459C16.2606 7.18614 16.4184 7.22889 16.5765 7.21526C16.7346 7.20163 16.8827 7.13251 16.9947 7.02014L18.1841 5.83072C18.2239 5.79143 18.2706 5.75987 18.3219 5.73766C18.3712 5.71408 18.4255 5.70321 18.4801 5.70601C18.5346 5.70381 18.5888 5.71466 18.6383 5.73766C18.6946 5.7617 18.7448 5.79794 18.7854 5.84375L20.3954 7.44453C20.4407 7.48559 20.4768 7.53569 20.5015 7.59158C20.5253 7.6408 20.5361 7.69523 20.5332 7.74979C20.5384 7.79991 20.5307 7.85052 20.5108 7.89684C20.4864 7.94296 20.455 7.98502 20.4178 8.02155C20.4066 8.02155 20.4066 8.02155 20.3954 8.02155L19.0925 9.33753C18.989 9.44033 18.9217 9.57403 18.9009 9.71842C18.8801 9.86282 18.9068 10.0101 18.9771 10.1379C19.0515 10.2831 19.1372 10.4302 19.2079 10.5995C19.2905 10.7596 19.3638 10.9243 19.4275 11.0928C19.489 11.2603 19.5429 11.4185 19.5951 11.5879C19.6472 11.7573 19.6807 11.9025 19.7216 12.083C19.7515 12.24 19.8351 12.3815 19.9581 12.4835C20.0811 12.5854 20.2357 12.6412 20.3954 12.6415H22.0707C22.1288 12.6393 22.1866 12.6501 22.2401 12.6731C22.2886 12.6888 22.3318 12.7179 22.3648 12.7569C22.4068 12.8007 22.4425 12.8502 22.4709 12.9039C22.4838 12.9563 22.4907 13.01 22.4913 13.064V15.359C22.4931 15.417 22.4829 15.4746 22.4616 15.5284C22.4365 15.5746 22.4044 15.6167 22.3666 15.6531C22.3326 15.6932 22.29 15.725 22.2419 15.7462C22.1885 15.7694 22.1306 15.7802 22.0725 15.7779H20.2521C20.1078 15.775 19.9662 15.8182 19.8481 15.9012C19.7299 15.9842 19.6413 16.1027 19.5951 16.2395C19.5336 16.4405 19.4703 16.6117 19.4089 16.7551C19.3475 16.8984 19.2712 17.092 19.1986 17.2502C19.0404 17.5629 18.8896 17.8589 18.7035 18.1548C18.6848 18.1827 18.6681 18.2088 18.6532 18.2367H20.2465C20.3135 18.1027 20.3805 17.9575 20.4513 17.8086C20.535 17.6225 20.6188 17.4363 20.6933 17.2409C20.7026 17.2092 20.7249 17.1664 20.7361 17.1348H22.0856C22.3191 17.1369 22.5509 17.0946 22.7687 17.0101C22.9855 16.92 23.1823 16.7878 23.3476 16.6211C23.5179 16.4577 23.6512 16.2596 23.7384 16.0403C23.8218 15.8223 23.8641 15.5906 23.8632 15.3572V13.064C23.861 12.8326 23.8142 12.6038 23.7254 12.3902C23.6416 12.1768 23.5149 11.983 23.3531 11.8206C23.1946 11.6552 23.0048 11.523 22.7947 11.4316C22.5794 11.3375 22.3465 11.2906 22.1116 11.2938H20.9632C20.9617 11.2649 20.9547 11.2365 20.9427 11.2101C20.8794 11.0109 20.8161 10.8099 20.7417 10.62C20.6672 10.4302 20.5834 10.231 20.4997 10.0616C20.4835 10.035 20.4697 10.007 20.4587 9.97784L21.4062 9.01924C21.5784 8.8643 21.715 8.67377 21.8064 8.46083C21.8946 8.24381 21.9407 8.01198 21.9422 7.77771C21.9453 7.543 21.899 7.31026 21.8064 7.09459C21.7125 6.88267 21.58 6.69013 21.4155 6.52688L19.8054 4.9261C19.6389 4.75954 19.4416 4.6268 19.2246 4.53522C19.0081 4.44551 18.7759 4.39933 18.5415 4.39933C18.3071 4.39933 18.075 4.44551 17.8584 4.53522C17.6395 4.62316 17.4415 4.75636 17.2777 4.9261L16.4345 5.72277L16.3712 5.69112C16.2018 5.59619 16.0119 5.50499 15.8128 5.41564C15.6136 5.3263 15.4405 5.24812 15.2543 5.17366C15.2227 5.16436 15.1799 5.14202 15.1483 5.12899V3.77764C15.1504 3.54408 15.1081 3.31225 15.0235 3.09452C14.9333 2.87737 14.8003 2.68053 14.6327 2.51564C14.4638 2.34838 14.2641 2.21561 14.0445 2.12475C13.8259 2.04085 13.5936 1.99855 13.3595 2.00004H11.5149C11.2814 1.99874 11.0497 2.04104 10.8317 2.12475C10.6154 2.2175 10.4184 2.3501 10.251 2.51564C10.0839 2.6806 9.95158 2.87745 9.86198 3.09452C9.7761 3.31193 9.73312 3.5439 9.7354 3.77764V5.12527C9.70376 5.13644 9.66095 5.15691 9.62931 5.16994C9.44317 5.2444 9.25703 5.32816 9.0709 5.41192C8.88476 5.49568 8.68187 5.59805 8.51249 5.6874L8.44548 5.72277L7.62462 4.91121C7.46072 4.74147 7.26282 4.60827 7.04387 4.52032C6.82754 4.42981 6.59525 4.3836 6.36075 4.38445C6.12604 4.38138 5.8933 4.42767 5.67763 4.52032C5.46016 4.61038 5.26228 4.74187 5.09502 4.90749L3.48494 6.50826H3.47564C3.31236 6.67214 3.18051 6.86456 3.08661 7.07598C2.99326 7.29084 2.94632 7.52299 2.94887 7.75724C2.95013 7.99171 2.99691 8.22371 3.08661 8.44036C3.17874 8.65238 3.31446 8.84264 3.48494 8.99877L4.43424 9.95551C4.42242 9.98489 4.40875 10.0135 4.39329 10.0411C4.30953 10.218 4.23321 10.4134 4.14945 10.5995C4.06569 10.7857 4.01357 10.9886 3.95028 11.1896C3.93831 11.2161 3.93077 11.2444 3.92795 11.2734H2.77949C2.54415 11.27 2.31075 11.3163 2.0945 11.4092C1.88496 11.5024 1.69537 11.6351 1.53609 11.8001H1.52679C1.3665 11.9594 1.2399 12.1493 1.15452 12.3585C1.05569 12.5808 1.00313 12.8208 1.00002 13.064V15.3572C0.998899 15.5907 1.04119 15.8223 1.12473 16.0403C1.21197 16.2596 1.34527 16.4577 1.51562 16.6211C1.68058 16.7882 1.87744 16.9205 2.0945 17.0101C2.31288 17.0946 2.54532 17.1369 2.77949 17.1348H4.12525C4.13642 17.1664 4.1569 17.2092 4.16993 17.2409C4.24438 17.427 4.32814 17.6132 4.4119 17.8086C4.4845 17.9612 4.54964 18.1046 4.61665 18.2367H6.21184V18.2404ZM12.6577 15.0128V15.3721C12.8673 15.3911 13.073 15.4406 13.2683 15.5191C13.4404 15.5941 13.5928 15.7082 13.7131 15.8523C13.807 15.9565 13.8854 16.0738 13.9458 16.2004C13.9965 16.3031 14.0251 16.4154 14.0296 16.5298C14.0301 16.5836 14.0197 16.637 13.9989 16.6866C13.9781 16.7362 13.9474 16.7811 13.9086 16.8184C13.8706 16.8579 13.8249 16.8892 13.7743 16.9103C13.7237 16.9315 13.6693 16.942 13.6145 16.9412C13.5128 16.9442 13.4135 16.9099 13.3353 16.8447C13.2571 16.7796 13.2055 16.6881 13.1901 16.5875C13.1598 16.4558 13.0949 16.3345 13.0019 16.2363C12.9089 16.1381 12.7914 16.0666 12.6615 16.0291V17.4121C12.9351 17.4884 13.1566 17.5573 13.3185 17.6187C13.4809 17.6797 13.63 17.7714 13.7578 17.8886C13.8942 18.0098 14.0028 18.159 14.0761 18.3261C14.1512 18.5026 14.1892 18.6927 14.1878 18.8845C14.1867 19.1334 14.1227 19.378 14.0017 19.5955C13.8791 19.8199 13.6976 20.0065 13.4767 20.1353C13.2261 20.2824 12.9441 20.3679 12.654 20.3847V20.824C12.6592 20.9206 12.6459 21.0172 12.6149 21.1088C12.6007 21.1402 12.5767 21.166 12.5465 21.1825C12.5162 21.1989 12.4815 21.2051 12.4474 21.2C12.4156 21.2033 12.3835 21.1984 12.3541 21.1857C12.3248 21.1729 12.2992 21.1529 12.2799 21.1274C12.2423 21.0579 12.2255 20.9791 12.2315 20.9003V20.3959C11.9961 20.373 11.7663 20.31 11.5521 20.2098C11.3709 20.1276 11.2067 20.012 11.0681 19.8691C10.9479 19.7425 10.8509 19.5957 10.7815 19.4354C10.7217 19.296 10.6901 19.146 10.6884 18.9943C10.6888 18.9406 10.7001 18.8875 10.7215 18.8382C10.7429 18.789 10.7741 18.7445 10.8131 18.7076C10.8531 18.6657 10.9014 18.6327 10.955 18.6105C11.0085 18.5884 11.0661 18.5777 11.124 18.5792C11.2134 18.5762 11.3016 18.6002 11.3771 18.6481C11.4457 18.6959 11.4962 18.7654 11.5205 18.8454C11.5638 18.9872 11.6154 19.1265 11.6749 19.2623C11.7239 19.3633 11.7929 19.4533 11.8778 19.5266C11.9813 19.6149 12.1035 19.6786 12.2352 19.7128V18.1604C11.9789 18.0924 11.7296 18.0001 11.4907 17.8849C11.2925 17.786 11.1247 17.6356 11.0049 17.4494C10.8584 17.1885 10.7976 16.8883 10.831 16.5911C10.8644 16.2938 10.9903 16.0146 11.191 15.7927C11.4804 15.53 11.8539 15.3789 12.2445 15.3665V15.0128C12.2445 14.8267 12.3153 14.7336 12.4549 14.7336C12.5945 14.7336 12.6671 14.8248 12.6671 15.0072L12.6577 15.0128ZM12.2352 17.2949V16.0217C12.0747 16.0614 11.9248 16.1358 11.7959 16.2395C11.6987 16.3523 11.6453 16.4963 11.6453 16.6453C11.6453 16.7942 11.6987 16.9382 11.7959 17.051C11.9283 17.1596 12.0798 17.2423 12.2427 17.2949H12.2352ZM12.6577 18.2833V19.7407C12.8557 19.7098 13.0381 19.615 13.1771 19.4708C13.2971 19.3427 13.3637 19.1736 13.3632 18.998C13.3677 18.9144 13.3533 18.8308 13.321 18.7534C13.2888 18.6761 13.2396 18.607 13.1771 18.5513C13.0235 18.4262 12.8453 18.3348 12.654 18.2833H12.6577ZM11.4423 10.8899C11.2319 10.2664 11.0402 9.63535 10.8839 8.99504C11.4832 8.33798 13.7969 8.42547 14.4633 8.99504L13.8434 10.4506C14.1748 10.0151 14.2864 9.83638 14.4837 9.5944C14.5661 9.65101 14.6445 9.7132 14.7183 9.78054C14.909 9.9215 15.0414 10.1274 15.0905 10.3594C15.1002 10.4473 15.0904 10.5362 15.0618 10.6199C15.0331 10.7035 14.9864 10.7799 14.9249 10.8434L13.5103 12.4907C13.3297 12.4614 13.1521 12.416 12.9798 12.3548C13.0598 12.1687 13.1659 11.9602 13.2366 11.7703L12.721 12.3287C12.26 12.2127 11.7723 12.2724 11.3529 12.4963L9.90851 10.7671C9.8329 10.6822 9.78943 10.5735 9.78566 10.4599C9.78566 10.043 10.4074 9.68375 10.7312 9.54787L11.4423 10.8899Z" fill="#007BFF"/>
</g>
<defs>
<clipPath id="clip0_1565_15252">
<rect width="22.8724" height="20.22" fill="white" transform="translate(1 2)"/>
</clipPath>
</defs>
</svg>
