<svg width="64" height="64" viewBox="0 0 64 64" fill="none" xmlns="http://www.w3.org/2000/svg">
<path d="M61.9998 31.9993C62.0123 36.7623 60.4671 41.3987 57.5998 45.2018C57.4419 45.412 57.2441 45.5889 57.0178 45.7226C56.7915 45.8563 56.5411 45.9441 56.2808 45.981C56.0206 46.0179 55.7556 46.0032 55.5011 45.9377C55.2465 45.8722 55.0074 45.7573 54.7973 45.5993C54.5872 45.4414 54.4102 45.2437 54.2765 45.0174C54.1428 44.7911 54.055 44.5406 54.0181 44.2804C53.9812 44.0202 53.9959 43.7552 54.0614 43.5007C54.1269 43.2461 54.2419 43.007 54.3998 42.7968C56.7468 39.6875 58.0112 35.8951 57.9998 31.9993C57.9998 27.2254 56.1033 22.6471 52.7277 19.2714C49.352 15.8958 44.7737 13.9993 39.9998 13.9993C35.2259 13.9993 30.6475 15.8958 27.2718 19.2714C23.8962 22.6471 21.9998 27.2254 21.9998 31.9993C21.9998 32.5298 21.7891 33.0385 21.414 33.4136C21.0389 33.7886 20.5302 33.9993 19.9998 33.9993C19.4693 33.9993 18.9606 33.7886 18.5856 33.4136C18.2105 33.0385 17.9998 32.5298 17.9998 31.9993C17.9988 29.981 18.2756 27.9722 18.8223 26.0293C18.5498 25.9993 18.2748 25.9993 17.9998 25.9993C14.8172 25.9993 11.7649 27.2636 9.51449 29.5141C7.26405 31.7645 5.99977 34.8167 5.99977 37.9993C5.99977 41.1819 7.26405 44.2342 9.51449 46.4846C11.7649 48.7351 14.8172 49.9993 17.9998 49.9993H23.9998C24.5302 49.9993 25.0389 50.21 25.414 50.5851C25.7891 50.9602 25.9998 51.4689 25.9998 51.9993C25.9998 52.5298 25.7891 53.0385 25.414 53.4136C25.0389 53.7886 24.5302 53.9993 23.9998 53.9993H17.9998C15.8002 53.9998 13.6242 53.5468 11.6075 52.6686C9.59093 51.7903 7.77705 50.5057 6.2792 48.895C4.78135 47.2842 3.63171 45.3819 2.90206 43.3069C2.17242 41.2319 1.87845 39.0287 2.03852 36.835C2.19858 34.6413 2.80925 32.5041 3.83237 30.557C4.85549 28.6098 6.2691 26.8946 7.9849 25.5183C9.7007 24.1421 11.6818 23.1343 13.8046 22.5581C15.9273 21.9819 18.1461 21.8496 20.3223 22.1693C22.5383 17.7372 26.1856 14.183 30.6736 12.0824C35.1615 9.98181 40.2272 9.45783 45.0501 10.5954C49.873 11.7329 54.1706 14.4653 57.2469 18.35C60.3231 22.2347 61.9979 27.0441 61.9998 31.9993ZM39.4148 30.5843C39.229 30.3984 39.0084 30.2509 38.7657 30.1502C38.5229 30.0496 38.2626 29.9978 37.9998 29.9978C37.7369 29.9978 37.4767 30.0496 37.2339 30.1502C36.9911 30.2509 36.7705 30.3984 36.5848 30.5843L28.5848 38.5843C28.3989 38.7702 28.2515 38.9908 28.151 39.2335C28.0504 39.4763 27.9987 39.7365 27.9987 39.9993C27.9987 40.2621 28.0504 40.5223 28.151 40.7651C28.2515 41.0079 28.3989 41.2285 28.5848 41.4143C28.96 41.7896 29.469 42.0005 29.9998 42.0005C30.2626 42.0005 30.5228 41.9487 30.7656 41.8481C31.0083 41.7476 31.229 41.6002 31.4148 41.4143L35.9998 36.8268V51.9993C35.9998 52.5298 36.2105 53.0385 36.5856 53.4136C36.9606 53.7886 37.4693 53.9993 37.9998 53.9993C38.5302 53.9993 39.0389 53.7886 39.414 53.4136C39.7891 53.0385 39.9998 52.5298 39.9998 51.9993V36.8268L44.5848 41.4143C44.7706 41.6002 44.9912 41.7476 45.234 41.8481C45.4768 41.9487 45.737 42.0005 45.9998 42.0005C46.2626 42.0005 46.5228 41.9487 46.7656 41.8481C47.0084 41.7476 47.229 41.6002 47.4148 41.4143C47.6006 41.2285 47.748 41.0079 47.8486 40.7651C47.9491 40.5223 48.0009 40.2621 48.0009 39.9993C48.0009 39.7365 47.9491 39.4763 47.8486 39.2335C47.748 38.9908 47.6006 38.7702 47.4148 38.5843L39.4148 30.5843Z" fill="#007BFF"/>
</svg>
