<svg width="19" height="19" viewBox="0 0 19 19" fill="none" xmlns="http://www.w3.org/2000/svg">
<path d="M15.0986 7.42953L9.4736 13.0545C9.42136 13.1068 9.35932 13.1483 9.29103 13.1766C9.22275 13.2049 9.14955 13.2195 9.07563 13.2195C9.00171 13.2195 8.92851 13.2049 8.86023 13.1766C8.79194 13.1483 8.7299 13.1068 8.67766 13.0545L3.05266 7.42953C2.94711 7.32398 2.88782 7.18083 2.88782 7.03156C2.88782 6.8823 2.94711 6.73914 3.05266 6.63359C3.15821 6.52805 3.30136 6.46875 3.45063 6.46875C3.5999 6.46875 3.74305 6.52805 3.8486 6.63359L9.07563 11.8613L14.3027 6.63359C14.3549 6.58133 14.417 6.53988 14.4853 6.51159C14.5535 6.48331 14.6267 6.46875 14.7006 6.46875C14.7745 6.46875 14.8477 6.48331 14.916 6.51159C14.9843 6.53988 15.0463 6.58133 15.0986 6.63359C15.1509 6.68586 15.1923 6.7479 15.2206 6.81618C15.2489 6.88447 15.2634 6.95765 15.2634 7.03156C15.2634 7.10547 15.2489 7.17866 15.2206 7.24694C15.1923 7.31523 15.1509 7.37727 15.0986 7.42953Z" fill="#007BFF"/>
</svg>
