<svg width="18" height="18" viewBox="0 0 18 18" fill="none" xmlns="http://www.w3.org/2000/svg">
<path d="M5.625 4.5C5.625 4.35082 5.68426 4.20774 5.78975 4.10225C5.89524 3.99676 6.03832 3.9375 6.1875 3.9375H15.1875C15.3367 3.9375 15.4798 3.99676 15.5852 4.10225C15.6907 4.20774 15.75 4.35082 15.75 4.5C15.75 4.64918 15.6907 4.79226 15.5852 4.89775C15.4798 5.00324 15.3367 5.0625 15.1875 5.0625H6.1875C6.03832 5.0625 5.89524 5.00324 5.78975 4.89775C5.68426 4.79226 5.625 4.64918 5.625 4.5ZM15.1875 8.4375H6.1875C6.03832 8.4375 5.89524 8.49676 5.78975 8.60225C5.68426 8.70774 5.625 8.85082 5.625 9C5.625 9.14918 5.68426 9.29226 5.78975 9.39775C5.89524 9.50324 6.03832 9.5625 6.1875 9.5625H15.1875C15.3367 9.5625 15.4798 9.50324 15.5852 9.39775C15.6907 9.29226 15.75 9.14918 15.75 9C15.75 8.85082 15.6907 8.70774 15.5852 8.60225C15.4798 8.49676 15.3367 8.4375 15.1875 8.4375ZM15.1875 12.9375H6.1875C6.03832 12.9375 5.89524 12.9968 5.78975 13.1023C5.68426 13.2077 5.625 13.3508 5.625 13.5C5.625 13.6492 5.68426 13.7923 5.78975 13.8977C5.89524 14.0032 6.03832 14.0625 6.1875 14.0625H15.1875C15.3367 14.0625 15.4798 14.0032 15.5852 13.8977C15.6907 13.7923 15.75 13.6492 15.75 13.5C15.75 13.3508 15.6907 13.2077 15.5852 13.1023C15.4798 12.9968 15.3367 12.9375 15.1875 12.9375ZM3.09375 3.65625C2.92687 3.65625 2.76374 3.70574 2.62499 3.79845C2.48623 3.89116 2.37809 4.02294 2.31423 4.17711C2.25037 4.33129 2.23366 4.50094 2.26621 4.66461C2.29877 4.82828 2.37913 4.97862 2.49713 5.09662C2.61513 5.21462 2.76547 5.29498 2.92914 5.32754C3.09281 5.36009 3.26246 5.34338 3.41664 5.27952C3.57081 5.21566 3.70259 5.10752 3.7953 4.96876C3.88802 4.83001 3.9375 4.66688 3.9375 4.5C3.9375 4.27622 3.84861 4.06161 3.69037 3.90338C3.53214 3.74514 3.31753 3.65625 3.09375 3.65625ZM3.09375 8.15625C2.92687 8.15625 2.76374 8.20573 2.62499 8.29845C2.48623 8.39116 2.37809 8.52294 2.31423 8.67711C2.25037 8.83129 2.23366 9.00094 2.26621 9.16461C2.29877 9.32828 2.37913 9.47862 2.49713 9.59662C2.61513 9.71462 2.76547 9.79498 2.92914 9.82754C3.09281 9.86009 3.26246 9.84338 3.41664 9.77952C3.57081 9.71566 3.70259 9.60752 3.7953 9.46876C3.88802 9.33001 3.9375 9.16688 3.9375 9C3.9375 8.77622 3.84861 8.56161 3.69037 8.40338C3.53214 8.24514 3.31753 8.15625 3.09375 8.15625ZM3.09375 12.6562C2.92687 12.6562 2.76374 12.7057 2.62499 12.7984C2.48623 12.8912 2.37809 13.0229 2.31423 13.1771C2.25037 13.3313 2.23366 13.5009 2.26621 13.6646C2.29877 13.8283 2.37913 13.9786 2.49713 14.0966C2.61513 14.2146 2.76547 14.295 2.92914 14.3275C3.09281 14.3601 3.26246 14.3434 3.41664 14.2795C3.57081 14.2157 3.70259 14.1075 3.7953 13.9688C3.88802 13.83 3.9375 13.6669 3.9375 13.5C3.9375 13.2762 3.84861 13.0616 3.69037 12.9034C3.53214 12.7451 3.31753 12.6562 3.09375 12.6562Z" fill="#616161"/>
</svg>
