<svg width="45" height="49" viewBox="0 0 45 49" fill="none" xmlns="http://www.w3.org/2000/svg">
<g opacity="0.5">
<g filter="url(#filter0_d_1498_38133)">
<mask id="path-1-outside-1_1498_38133" maskUnits="userSpaceOnUse" x="4" y="0" width="37" height="41" fill="black">
<rect fill="white" x="4" width="37" height="41"/>
<path fill-rule="evenodd" clip-rule="evenodd" d="M25.4574 34.8442C33.2107 33.4699 39.0988 26.6973 39.0988 18.5494C39.0988 9.40942 31.6894 2 22.5494 2C13.4094 2 6 9.40942 6 18.5494C6 26.8404 12.0969 33.7075 20.0519 34.9116L22.7587 38L25.4574 34.8442Z"/>
</mask>
<path fill-rule="evenodd" clip-rule="evenodd" d="M25.4574 34.8442C33.2107 33.4699 39.0988 26.6973 39.0988 18.5494C39.0988 9.40942 31.6894 2 22.5494 2C13.4094 2 6 9.40942 6 18.5494C6 26.8404 12.0969 33.7075 20.0519 34.9116L22.7587 38L25.4574 34.8442Z" fill="url(#paint0_linear_1498_38133)" fill-opacity="0.7" shape-rendering="crispEdges"/>
<path d="M25.4574 34.8442L25.1956 33.3672L24.6665 33.461L24.3174 33.8693L25.4574 34.8442ZM20.0519 34.9116L21.1799 33.9229L20.8185 33.5106L20.2764 33.4285L20.0519 34.9116ZM22.7587 38L21.6307 38.9887L22.7727 40.2917L23.8987 38.9749L22.7587 38ZM37.5988 18.5494C37.5988 25.9572 32.2451 32.1176 25.1956 33.3672L25.7192 36.3212C34.1762 34.8221 40.5988 27.4373 40.5988 18.5494H37.5988ZM22.5494 3.5C30.861 3.5 37.5988 10.2379 37.5988 18.5494H40.5988C40.5988 8.581 32.5178 0.5 22.5494 0.5V3.5ZM7.5 18.5494C7.5 10.2379 14.2379 3.5 22.5494 3.5V0.5C12.581 0.5 4.5 8.581 4.5 18.5494H7.5ZM20.2764 33.4285C13.0438 32.3337 7.5 26.0876 7.5 18.5494H4.5C4.5 27.5933 11.1501 35.0812 19.8274 36.3947L20.2764 33.4285ZM23.8868 37.0113L21.1799 33.9229L18.9238 35.9003L21.6307 38.9887L23.8868 37.0113ZM24.3174 33.8693L21.6187 37.0251L23.8987 38.9749L26.5974 35.819L24.3174 33.8693Z" fill="white" mask="url(#path-1-outside-1_1498_38133)"/>
</g>
<circle cx="22.5502" cy="18.5502" r="13.1713" fill="url(#paint1_linear_1498_38133)" stroke="#14141A"/>
<path d="M21.6953 18.793C21.6953 18.5179 21.9183 18.2949 22.1934 18.2949C22.4684 18.2949 22.6914 18.5179 22.6914 18.793V25.3386C22.6914 25.6137 22.4684 25.8367 22.1934 25.8367C21.9183 25.8367 21.6953 25.6137 21.6953 25.3386V18.793Z" fill="white"/>
<path d="M23.4034 17.938C23.4034 18.606 22.8619 19.1476 22.1939 19.1476C21.5259 19.1476 20.9844 18.606 20.9844 17.938C20.9844 17.27 21.5259 16.7285 22.1939 16.7285C22.8619 16.7285 23.4034 17.27 23.4034 17.938Z" fill="white"/>
<path fill-rule="evenodd" clip-rule="evenodd" d="M22.3627 15.0939C21.8836 15.0892 21.4121 15.2109 20.9963 15.4461C20.5805 15.6813 20.2355 16.0215 19.9962 16.4316C19.7568 16.8417 19.6315 17.3071 19.6328 17.7805C19.6341 18.2539 19.7619 18.7187 20.0034 19.1275C20.1434 19.3643 20.0648 19.6697 19.828 19.8097C19.5912 19.9496 19.2858 19.8711 19.1459 19.6343C18.8143 19.0731 18.6385 18.4343 18.6367 17.7832C18.635 17.1321 18.8073 16.4924 19.1359 15.9295L19.566 16.1805L19.1359 15.9295C19.4644 15.3666 19.9373 14.9007 20.5059 14.5791C21.0744 14.2575 21.7185 14.0915 22.3723 14.0978C23.0262 14.1041 23.6669 14.2825 24.229 14.615C24.7912 14.9475 25.2549 15.4224 25.5724 15.9916C25.89 16.5608 26.0498 17.2037 26.0353 17.8546C26.0208 18.5056 25.8325 19.1408 25.49 19.6955C25.3455 19.9295 25.0386 20.0021 24.8046 19.8576C24.5706 19.713 24.498 19.4062 24.6425 19.1721C24.892 18.768 25.0289 18.3057 25.0394 17.8325C25.05 17.3592 24.9338 16.8914 24.7025 16.4768C24.4713 16.0622 24.133 15.7155 23.7219 15.4723C23.3108 15.2292 22.8418 15.0985 22.3627 15.0939Z" fill="white"/>
<path fill-rule="evenodd" clip-rule="evenodd" d="M25.053 13.2764C24.1885 12.7626 23.1921 12.5045 22.1824 12.5334C21.1728 12.5623 20.1934 12.877 19.3607 13.4394C18.528 14.0016 17.8773 14.7876 17.4852 15.7032C17.0931 16.6186 16.9757 17.6257 17.1467 18.6047C17.3177 19.5838 17.7701 20.4946 18.4509 21.2284C18.638 21.43 18.6261 21.7451 18.4245 21.9322C18.2229 22.1193 17.9077 22.1075 17.7207 21.9058C16.9098 21.0319 16.3697 19.9457 16.1655 18.7761C15.9612 17.6065 16.1016 16.4037 16.5696 15.311C17.0376 14.2184 17.8132 13.2824 18.8032 12.6139C19.7932 11.9453 20.9562 11.5721 22.1539 11.5378C23.3516 11.5035 24.5345 11.8095 25.5619 12.4202C26.5894 13.0308 27.4185 13.9207 27.9497 14.9845C28.481 16.0484 28.6918 17.2411 28.5565 18.4205C28.4212 19.5999 27.9458 20.7153 27.1875 21.6344C27.0124 21.8465 26.6985 21.8766 26.4864 21.7016C26.2742 21.5265 26.2441 21.2126 26.4192 21.0005C27.0556 20.2291 27.4537 19.2941 27.5669 18.307C27.6801 17.3199 27.5038 16.3212 27.0586 15.4295C26.6133 14.5378 25.9174 13.7902 25.053 13.2764Z" fill="white"/>
</g>
<defs>
<filter id="filter0_d_1498_38133" x="0.5" y="0.5" width="44.0977" height="47.791" filterUnits="userSpaceOnUse" color-interpolation-filters="sRGB">
<feFlood flood-opacity="0" result="BackgroundImageFix"/>
<feColorMatrix in="SourceAlpha" type="matrix" values="0 0 0 0 0 0 0 0 0 0 0 0 0 0 0 0 0 0 127 0" result="hardAlpha"/>
<feOffset dy="4"/>
<feGaussianBlur stdDeviation="2"/>
<feComposite in2="hardAlpha" operator="out"/>
<feColorMatrix type="matrix" values="0 0 0 0 0 0 0 0 0 0 0 0 0 0 0 0 0 0 0.25 0"/>
<feBlend mode="normal" in2="BackgroundImageFix" result="effect1_dropShadow_1498_38133"/>
<feBlend mode="normal" in="SourceGraphic" in2="effect1_dropShadow_1498_38133" result="shape"/>
</filter>
<linearGradient id="paint0_linear_1498_38133" x1="22.5494" y1="2" x2="22.5494" y2="38" gradientUnits="userSpaceOnUse">
<stop stop-color="#828097"/>
<stop offset="1" stop-color="#575663"/>
</linearGradient>
<linearGradient id="paint1_linear_1498_38133" x1="22.5502" y1="4.87891" x2="22.5502" y2="32.2214" gradientUnits="userSpaceOnUse">
<stop stop-color="#58586F"/>
<stop offset="1" stop-color="#14141A"/>
</linearGradient>
</defs>
</svg>
