<svg width="45" height="49" viewBox="0 0 45 49" fill="none" xmlns="http://www.w3.org/2000/svg">
<g opacity="0.4">
<g filter="url(#filter0_d_1498_39871)">
<mask id="path-1-outside-1_1498_39871" maskUnits="userSpaceOnUse" x="4" y="0" width="37" height="41" fill="black">
<rect fill="white" x="4" width="37" height="41"/>
<path fill-rule="evenodd" clip-rule="evenodd" d="M25.4581 34.8451C33.2115 33.4707 39.0998 26.6979 39.0998 18.5499C39.0998 9.40964 31.6901 2 22.5499 2C13.4096 2 6 9.40964 6 18.5499C6 26.8414 12.0974 33.7087 20.0529 34.9126L22.7595 38.0008L25.4581 34.8451Z"/>
</mask>
<path fill-rule="evenodd" clip-rule="evenodd" d="M25.4581 34.8451C33.2115 33.4707 39.0998 26.6979 39.0998 18.5499C39.0998 9.40964 31.6901 2 22.5499 2C13.4096 2 6 9.40964 6 18.5499C6 26.8414 12.0974 33.7087 20.0529 34.9126L22.7595 38.0008L25.4581 34.8451Z" fill="url(#paint0_linear_1498_39871)" fill-opacity="0.7" shape-rendering="crispEdges"/>
<path d="M25.4581 34.8451L25.1963 33.3681L24.6672 33.4619L24.318 33.8702L25.4581 34.8451ZM20.0529 34.9126L21.1809 33.924L20.8195 33.5116L20.2773 33.4295L20.0529 34.9126ZM22.7595 38.0008L21.6315 38.9895L22.7735 40.2925L23.8995 38.9757L22.7595 38.0008ZM37.5998 18.5499C37.5998 25.9579 32.246 32.1185 25.1963 33.3681L25.7199 36.3221C34.1771 34.8229 40.5998 27.438 40.5998 18.5499H37.5998ZM22.5499 3.5C30.8617 3.5 37.5998 10.2381 37.5998 18.5499H40.5998C40.5998 8.58121 32.5186 0.5 22.5499 0.5V3.5ZM7.5 18.5499C7.5 10.2381 14.2381 3.5 22.5499 3.5V0.5C12.5812 0.5 4.5 8.58121 4.5 18.5499H7.5ZM20.2773 33.4295C13.0442 32.3349 7.5 26.0885 7.5 18.5499H4.5C4.5 27.5942 11.1506 35.0825 19.8284 36.3958L20.2773 33.4295ZM23.8876 37.0121L21.1809 33.924L18.9248 35.9013L21.6315 38.9895L23.8876 37.0121ZM24.318 33.8702L21.6195 37.026L23.8995 38.9757L26.5981 35.82L24.318 33.8702Z" fill="white" mask="url(#path-1-outside-1_1498_39871)"/>
</g>
<circle cx="22.5506" cy="18.5486" r="13.1717" fill="url(#paint1_linear_1498_39871)" stroke="#14141A"/>
<path fill-rule="evenodd" clip-rule="evenodd" d="M18.2609 20.9887H18.3317L17.6992 29.0069C18.0514 28.9152 18.4074 28.8374 18.7653 28.767L19.1682 23.6605L21.5365 26.3446L19.5176 28.6326C20.0275 28.5545 20.5424 28.5018 21.06 28.4678L22.235 27.1361L23.41 28.4678C23.9275 28.5018 24.4423 28.5545 24.9521 28.6325L22.9334 26.3446L25.2709 23.6956L25.6536 28.7576C26.0111 28.8268 26.3666 28.9039 26.7184 28.9943L26.2274 22.4985C26.2441 22.4078 26.237 22.3143 26.2067 22.2271L25.8734 17.8174L25.8657 17.7931V17.7157L25.8601 17.6414H25.8657V16.6096L25.8708 16.5894H25.7806L25.539 13.3934C25.5387 13.3888 25.5377 13.3844 25.5368 13.38C25.5361 13.3764 25.5353 13.3729 25.5349 13.3693C25.5328 13.3522 25.5299 13.3354 25.5262 13.3185C25.5225 13.3019 25.5181 13.2858 25.5129 13.2698C25.5079 13.2544 25.5024 13.2395 25.496 13.2246C25.4891 13.2088 25.4816 13.1936 25.4734 13.1786C25.4656 13.1646 25.4575 13.1509 25.4484 13.1375C25.4386 13.1231 25.428 13.1095 25.4168 13.0962C25.4068 13.0842 25.3968 13.0724 25.3856 13.0612C25.3719 13.0478 25.3574 13.0351 25.3422 13.0233C25.3387 13.0205 25.3356 13.0175 25.3324 13.0145C25.3282 13.0106 25.324 13.0066 25.3191 13.0031C25.3173 13.0019 25.3154 13.0009 25.3135 12.9999C25.3118 12.9991 25.3101 12.9982 25.3084 12.9971C25.291 12.9858 25.2728 12.9755 25.2541 12.9663C25.2501 12.9643 25.2462 12.9621 25.2423 12.96C25.2348 12.9559 25.2273 12.9518 25.2195 12.9485C25.2012 12.9414 25.1826 12.9353 25.1636 12.9303C25.159 12.929 25.1545 12.9275 25.1499 12.926C25.1412 12.9232 25.1325 12.9203 25.1236 12.9185C25.1123 12.9162 25.1006 12.9151 25.0888 12.9141C25.0839 12.9137 25.079 12.9133 25.0741 12.9127C25.0693 12.9122 25.0645 12.9116 25.0596 12.911C25.0476 12.9095 25.0356 12.908 25.0236 12.9078L25.0186 12.9074H22.7569V10.4483C23.1051 10.3251 23.3986 10.0829 23.5855 9.7643C23.7724 9.44571 23.8407 9.0713 23.7782 8.70726C23.7158 8.34322 23.5266 8.01297 23.2442 7.7749C22.9618 7.53683 22.6043 7.40625 22.235 7.40625C21.8656 7.40625 21.5082 7.53683 21.2258 7.7749C20.9434 8.01297 20.7542 8.34322 20.6918 8.70726C20.6293 9.0713 20.6975 9.44571 20.8844 9.7643C21.0713 10.0829 21.3648 10.3251 21.7131 10.4483V12.9074H19.4577C19.3762 12.9057 19.2956 12.9239 19.2227 12.9604C19.191 12.976 19.1609 12.9949 19.133 13.0167C19.0698 13.0655 19.0186 13.1282 18.9834 13.1999C18.9566 13.2547 18.9394 13.3138 18.9327 13.3744L18.9326 13.3758C18.9319 13.3824 18.9312 13.389 18.9307 13.3955L18.6261 17.2567L18.6331 17.2671L18.5239 18.3586H18.5392L18.4147 19.9366H18.3661L18.2609 20.9887ZM19.4205 22.3634L22.235 25.5531L25.0495 22.3634L22.235 18.3333L19.4205 22.3634ZM22.8733 17.4193L25.0301 20.5076L24.6087 14.9344L22.8733 17.4193ZM22.5283 8.5229C22.4413 8.46559 22.3392 8.43544 22.235 8.43625C22.0961 8.43695 21.9631 8.49273 21.8653 8.59134C21.7674 8.68995 21.7127 8.82335 21.7131 8.96226C21.7131 9.06647 21.744 9.16834 21.802 9.25493C21.86 9.34153 21.9424 9.40895 22.0387 9.44864C22.1351 9.48833 22.2411 9.49851 22.3432 9.47788C22.4454 9.45725 22.5391 9.40674 22.6125 9.33276C22.6859 9.25878 22.7357 9.16467 22.7555 9.06236C22.7753 8.96005 22.7643 8.85416 22.7239 8.75812C22.6834 8.66207 22.6154 8.5802 22.5283 8.5229ZM22.235 16.5053L24.013 13.9593H20.457L22.235 16.5053ZM21.5967 17.4192L19.8571 14.9281L19.414 20.5448L21.5967 17.4192Z" fill="white"/>
</g>
<defs>
<filter id="filter0_d_1498_39871" x="0.5" y="0.5" width="44.1016" height="47.793" filterUnits="userSpaceOnUse" color-interpolation-filters="sRGB">
<feFlood flood-opacity="0" result="BackgroundImageFix"/>
<feColorMatrix in="SourceAlpha" type="matrix" values="0 0 0 0 0 0 0 0 0 0 0 0 0 0 0 0 0 0 127 0" result="hardAlpha"/>
<feOffset dy="4"/>
<feGaussianBlur stdDeviation="2"/>
<feComposite in2="hardAlpha" operator="out"/>
<feColorMatrix type="matrix" values="0 0 0 0 0 0 0 0 0 0 0 0 0 0 0 0 0 0 0.25 0"/>
<feBlend mode="normal" in2="BackgroundImageFix" result="effect1_dropShadow_1498_39871"/>
<feBlend mode="normal" in="SourceGraphic" in2="effect1_dropShadow_1498_39871" result="shape"/>
</filter>
<linearGradient id="paint0_linear_1498_39871" x1="22.5499" y1="2" x2="22.5499" y2="38.0008" gradientUnits="userSpaceOnUse">
<stop stop-color="#828097"/>
<stop offset="1" stop-color="#575663"/>
</linearGradient>
<linearGradient id="paint1_linear_1498_39871" x1="22.5506" y1="4.87695" x2="22.5506" y2="32.2203" gradientUnits="userSpaceOnUse">
<stop stop-color="#58586F"/>
<stop offset="1" stop-color="#14141A"/>
</linearGradient>
</defs>
</svg>
