<svg width="45" height="49" viewBox="0 0 45 49" fill="none" xmlns="http://www.w3.org/2000/svg">
<g filter="url(#filter0_d_1047_14169)">
<mask id="path-1-outside-1_1047_14169" maskUnits="userSpaceOnUse" x="4" y="0" width="37" height="41" fill="black">
<rect fill="white" x="4" width="37" height="41"/>
<path fill-rule="evenodd" clip-rule="evenodd" d="M25.4575 34.8442C33.2107 33.4698 39.0988 26.6972 39.0988 18.5494C39.0988 9.40943 31.6894 2 22.5494 2C13.4094 2 6 9.40943 6 18.5494C6 26.8404 12.0968 33.7074 20.0517 34.9116L22.7587 38.0002L25.4575 34.8442Z"/>
</mask>
<path fill-rule="evenodd" clip-rule="evenodd" d="M25.4575 34.8442C33.2107 33.4698 39.0988 26.6972 39.0988 18.5494C39.0988 9.40943 31.6894 2 22.5494 2C13.4094 2 6 9.40943 6 18.5494C6 26.8404 12.0968 33.7074 20.0517 34.9116L22.7587 38.0002L25.4575 34.8442Z" fill="url(#paint0_linear_1047_14169)" fill-opacity="0.7" shape-rendering="crispEdges"/>
<path d="M25.4575 34.8442L25.1957 33.3672L24.6667 33.461L24.3175 33.8693L25.4575 34.8442ZM20.0517 34.9116L21.1798 33.9229L20.8184 33.5106L20.2762 33.4285L20.0517 34.9116ZM22.7587 38.0002L21.6307 38.9888L22.7727 40.2918L23.8987 38.975L22.7587 38.0002ZM37.5988 18.5494C37.5988 25.9572 32.2452 32.1176 25.1957 33.3672L25.7193 36.3211C34.1763 34.822 40.5988 27.4373 40.5988 18.5494H37.5988ZM22.5494 3.5C30.861 3.5 37.5988 10.2379 37.5988 18.5494H40.5988C40.5988 8.581 32.5178 0.5 22.5494 0.5V3.5ZM7.5 18.5494C7.5 10.2379 14.2379 3.5 22.5494 3.5V0.5C12.581 0.5 4.5 8.581 4.5 18.5494H7.5ZM20.2762 33.4285C13.0437 32.3336 7.5 26.0876 7.5 18.5494H4.5C4.5 27.5932 11.15 35.0811 19.8272 36.3947L20.2762 33.4285ZM23.8868 37.0115L21.1798 33.9229L18.9237 35.9003L21.6307 38.9888L23.8868 37.0115ZM24.3175 33.8693L21.6187 37.0253L23.8987 38.975L26.5975 35.819L24.3175 33.8693Z" fill="white" mask="url(#path-1-outside-1_1047_14169)"/>
</g>
<path d="M35.7207 18.5482C35.7207 25.8225 29.8237 31.7195 22.5494 31.7195C15.2751 31.7195 9.37817 25.8225 9.37817 18.5482C9.37817 11.2739 15.2751 5.37695 22.5494 5.37695C29.8237 5.37695 35.7207 11.2739 35.7207 18.5482Z" fill="url(#paint1_linear_1047_14169)" stroke="#14141A"/>
<path d="M26.1529 12.0137H18.2316C18.0215 12.0137 17.82 12.0971 17.6714 12.2457C17.5229 12.3942 17.4394 12.5957 17.4394 12.8058V15.1822C17.4394 15.3923 17.5229 15.5938 17.6714 15.7423C17.82 15.8909 18.0215 15.9743 18.2316 15.9743H26.1529C26.3629 15.9743 26.5644 15.8909 26.713 15.7423C26.8615 15.5938 26.945 15.3923 26.945 15.1822V12.8058C26.945 12.5957 26.8615 12.3942 26.713 12.2457C26.5644 12.0971 26.3629 12.0137 26.1529 12.0137ZM24.7666 14.5881C24.6491 14.5881 24.5343 14.5533 24.4366 14.488C24.3389 14.4227 24.2627 14.3299 24.2177 14.2213C24.1728 14.1128 24.161 13.9933 24.1839 13.8781C24.2069 13.7628 24.2634 13.657 24.3465 13.5739C24.4296 13.4908 24.5355 13.4342 24.6507 13.4113C24.766 13.3884 24.8854 13.4002 24.994 13.4451C25.1025 13.4901 25.1953 13.5662 25.2606 13.6639C25.3259 13.7616 25.3607 13.8765 25.3607 13.994C25.3607 14.1516 25.2981 14.3027 25.1867 14.4141C25.0753 14.5255 24.9242 14.5881 24.7666 14.5881Z" fill="white"/>
<path d="M26.1529 16.7676H18.2316C18.0215 16.7676 17.82 16.851 17.6714 16.9996C17.5229 17.1481 17.4394 17.3496 17.4394 17.5597V19.9361C17.4394 20.1462 17.5229 20.3477 17.6714 20.4962C17.82 20.6448 18.0215 20.7282 18.2316 20.7282H26.1529C26.3629 20.7282 26.5644 20.6448 26.713 20.4962C26.8615 20.3477 26.945 20.1462 26.945 19.9361V17.5597C26.945 17.3496 26.8615 17.1481 26.713 16.9996C26.5644 16.851 26.3629 16.7676 26.1529 16.7676ZM24.7666 19.342C24.6491 19.342 24.5343 19.3072 24.4366 19.2419C24.3389 19.1766 24.2627 19.0838 24.2177 18.9753C24.1728 18.8667 24.161 18.7472 24.1839 18.632C24.2069 18.5168 24.2634 18.4109 24.3465 18.3278C24.4296 18.2447 24.5355 18.1881 24.6507 18.1652C24.766 18.1423 24.8854 18.1541 24.994 18.199C25.1025 18.244 25.1953 18.3201 25.2606 18.4178C25.3259 18.5155 25.3607 18.6304 25.3607 18.7479C25.3607 18.9055 25.2981 19.0566 25.1867 19.168C25.0753 19.2794 24.9242 19.342 24.7666 19.342Z" fill="white"/>
<path d="M26.1529 21.4414H18.2316C18.0215 21.4414 17.82 21.5249 17.6714 21.6734C17.5229 21.822 17.4394 22.0235 17.4394 22.2335V24.6099C17.4394 24.82 17.5229 25.0215 17.6714 25.17C17.82 25.3186 18.0215 25.4021 18.2316 25.4021H26.1529C26.3629 25.4021 26.5644 25.3186 26.713 25.17C26.8615 25.0215 26.945 24.82 26.945 24.6099V22.2335C26.945 22.0235 26.8615 21.822 26.713 21.6734C26.5644 21.5249 26.3629 21.4414 26.1529 21.4414ZM24.7666 24.0158C24.6491 24.0158 24.5343 23.981 24.4366 23.9157C24.3389 23.8504 24.2627 23.7576 24.2177 23.6491C24.1728 23.5405 24.161 23.4211 24.1839 23.3058C24.2069 23.1906 24.2634 23.0847 24.3465 23.0016C24.4296 22.9186 24.5355 22.862 24.6507 22.839C24.766 22.8161 24.8854 22.8279 24.994 22.8729C25.1025 22.9178 25.1953 22.994 25.2606 23.0917C25.3259 23.1894 25.3607 23.3042 25.3607 23.4217C25.3607 23.5793 25.2981 23.7304 25.1867 23.8418C25.0753 23.9532 24.9242 24.0158 24.7666 24.0158Z" fill="white"/>
<defs>
<filter id="filter0_d_1047_14169" x="0.5" y="0.5" width="44.0988" height="47.791" filterUnits="userSpaceOnUse" color-interpolation-filters="sRGB">
<feFlood flood-opacity="0" result="BackgroundImageFix"/>
<feColorMatrix in="SourceAlpha" type="matrix" values="0 0 0 0 0 0 0 0 0 0 0 0 0 0 0 0 0 0 127 0" result="hardAlpha"/>
<feOffset dy="4"/>
<feGaussianBlur stdDeviation="2"/>
<feComposite in2="hardAlpha" operator="out"/>
<feColorMatrix type="matrix" values="0 0 0 0 0 0 0 0 0 0 0 0 0 0 0 0 0 0 0.25 0"/>
<feBlend mode="normal" in2="BackgroundImageFix" result="effect1_dropShadow_1047_14169"/>
<feBlend mode="normal" in="SourceGraphic" in2="effect1_dropShadow_1047_14169" result="shape"/>
</filter>
<linearGradient id="paint0_linear_1047_14169" x1="22.5494" y1="2" x2="22.5494" y2="38" gradientUnits="userSpaceOnUse">
<stop stop-color="#828097"/>
<stop offset="1" stop-color="#575663"/>
</linearGradient>
<linearGradient id="paint1_linear_1047_14169" x1="22.5494" y1="4.87695" x2="22.5494" y2="32.2195" gradientUnits="userSpaceOnUse">
<stop stop-color="#58586F"/>
<stop offset="1" stop-color="#14141A"/>
</linearGradient>
</defs>
</svg>
