<svg width="20" height="20" viewBox="0 0 20 20" fill="none" xmlns="http://www.w3.org/2000/svg">
<path d="M16.0675 15.1828C16.1256 15.2409 16.1717 15.3098 16.2031 15.3857C16.2345 15.4616 16.2507 15.5429 16.2507 15.625C16.2507 15.7071 16.2345 15.7884 16.2031 15.8643C16.1717 15.9402 16.1256 16.0091 16.0675 16.0672C16.0095 16.1253 15.9405 16.1713 15.8647 16.2027C15.7888 16.2342 15.7075 16.2503 15.6253 16.2503C15.5432 16.2503 15.4619 16.2342 15.386 16.2027C15.3102 16.1713 15.2412 16.1253 15.1832 16.0672L10.0003 10.8836L4.81753 16.0672C4.70026 16.1845 4.5412 16.2503 4.37535 16.2503C4.2095 16.2503 4.05044 16.1845 3.93316 16.0672C3.81588 15.9499 3.75 15.7908 3.75 15.625C3.75 15.4591 3.81588 15.3001 3.93316 15.1828L9.11675 10L3.93316 4.81718C3.81588 4.69991 3.75 4.54085 3.75 4.375C3.75 4.20914 3.81588 4.05008 3.93316 3.93281C4.05044 3.81553 4.2095 3.74965 4.37535 3.74965C4.5412 3.74965 4.70026 3.81553 4.81753 3.93281L10.0003 9.1164L15.1832 3.93281C15.3004 3.81553 15.4595 3.74965 15.6253 3.74965C15.7912 3.74965 15.9503 3.81553 16.0675 3.93281C16.1848 4.05008 16.2507 4.20914 16.2507 4.375C16.2507 4.54085 16.1848 4.69991 16.0675 4.81718L10.8839 10L16.0675 15.1828Z" fill="#757575"/>
</svg>
