<svg width="16" height="16" viewBox="0 0 16 16" fill="none" xmlns="http://www.w3.org/2000/svg">
<path d="M13.5306 10.5307C13.4609 10.6006 13.3781 10.656 13.287 10.6939C13.1958 10.7318 13.0981 10.7512 12.9993 10.7512C12.9006 10.7512 12.8029 10.7318 12.7117 10.6939C12.6206 10.656 12.5378 10.6006 12.4681 10.5307L7.99997 6.06252L3.5306 10.5307C3.3897 10.6715 3.19861 10.7507 2.99935 10.7507C2.80009 10.7507 2.60899 10.6715 2.4681 10.5307C2.3272 10.3898 2.24805 10.1987 2.24805 9.9994C2.24805 9.80014 2.3272 9.60905 2.4681 9.46815L7.4681 4.46815C7.53778 4.39823 7.62057 4.34275 7.71173 4.3049C7.8029 4.26704 7.90064 4.24756 7.99935 4.24756C8.09806 4.24756 8.1958 4.26704 8.28696 4.3049C8.37813 4.34275 8.46092 4.39823 8.5306 4.46815L13.5306 9.46815C13.6005 9.53783 13.656 9.62062 13.6938 9.71179C13.7317 9.80295 13.7512 9.90069 13.7512 9.9994C13.7512 10.0981 13.7317 10.1959 13.6938 10.287C13.656 10.3782 13.6005 10.461 13.5306 10.5307Z" fill="#3E4DCE"/>
</svg>
