<svg width="20" height="20" viewBox="0 0 20 20" fill="none" xmlns="http://www.w3.org/2000/svg">
<path d="M9.55733 8.56719C9.61537 8.6253 9.6843 8.6714 9.76018 8.70285C9.83605 8.73431 9.91738 8.7505 9.99952 8.7505C10.0816 8.7505 10.163 8.73431 10.2389 8.70285C10.3147 8.6714 10.3837 8.6253 10.4417 8.56719L13.5667 5.44219C13.6248 5.38415 13.6709 5.31522 13.7024 5.23934C13.7338 5.16347 13.75 5.08214 13.75 5C13.75 4.91787 13.7338 4.83654 13.7024 4.76067C13.6709 4.68479 13.6248 4.61586 13.5667 4.55782L10.4417 1.43282C10.3837 1.37471 10.3147 1.32861 10.2389 1.29715C10.163 1.2657 10.0816 1.24951 9.99952 1.24951C9.91738 1.24951 9.83605 1.2657 9.76018 1.29715C9.6843 1.32861 9.61537 1.37471 9.55733 1.43282L6.43233 4.55782C6.37422 4.61586 6.32812 4.68479 6.29667 4.76067C6.26521 4.83654 6.24902 4.91787 6.24902 5C6.24902 5.08214 6.26521 5.16347 6.29667 5.23934C6.32812 5.31522 6.37422 5.38415 6.43233 5.44219L9.55733 8.56719ZM9.99952 2.7586L12.2409 5L9.99952 7.24141L7.75811 5L9.99952 2.7586ZM10.4417 11.4305C10.3837 11.3724 10.3147 11.3263 10.2389 11.2948C10.163 11.2634 10.0816 11.2472 9.99952 11.2472C9.91738 11.2472 9.83605 11.2634 9.76018 11.2948C9.6843 11.3263 9.61537 11.3724 9.55733 11.4305L6.43233 14.5555C6.37422 14.6135 6.32812 14.6824 6.29667 14.7583C6.26521 14.8342 6.24902 14.9155 6.24902 14.9977C6.24902 15.0798 6.26521 15.1611 6.29667 15.237C6.32812 15.3129 6.37422 15.3818 6.43233 15.4398L9.55733 18.5648C9.61537 18.623 9.6843 18.6691 9.76018 18.7005C9.83605 18.732 9.91738 18.7482 9.99952 18.7482C10.0816 18.7482 10.163 18.732 10.2389 18.7005C10.3147 18.6691 10.3837 18.623 10.4417 18.5648L13.5667 15.4398C13.6248 15.3818 13.6709 15.3129 13.7024 15.237C13.7338 15.1611 13.75 15.0798 13.75 14.9977C13.75 14.9155 13.7338 14.8342 13.7024 14.7583C13.6709 14.6824 13.6248 14.6135 13.5667 14.5555L10.4417 11.4305ZM9.99952 17.2414L7.75811 15L9.99952 12.7586L12.2409 15L9.99952 17.2414ZM18.5667 9.55782L15.4417 6.43282C15.3837 6.37471 15.3147 6.32861 15.2389 6.29715C15.163 6.2657 15.0816 6.24951 14.9995 6.24951C14.9174 6.24951 14.8361 6.2657 14.7602 6.29715C14.6843 6.32861 14.6154 6.37471 14.5573 6.43282L11.4323 9.55782C11.3742 9.61586 11.3281 9.68479 11.2967 9.76067C11.2652 9.83654 11.249 9.91787 11.249 10C11.249 10.0821 11.2652 10.1635 11.2967 10.2393C11.3281 10.3152 11.3742 10.3841 11.4323 10.4422L14.5573 13.5672C14.6154 13.6253 14.6843 13.6714 14.7602 13.7029C14.8361 13.7343 14.9174 13.7505 14.9995 13.7505C15.0816 13.7505 15.163 13.7343 15.2389 13.7029C15.3147 13.6714 15.3837 13.6253 15.4417 13.5672L18.5667 10.4422C18.6248 10.3841 18.6709 10.3152 18.7024 10.2393C18.7338 10.1635 18.75 10.0821 18.75 10C18.75 9.91787 18.7338 9.83654 18.7024 9.76067C18.6709 9.68479 18.6248 9.61586 18.5667 9.55782ZM14.9995 12.2414L12.7581 10L14.9995 7.7586L17.2409 10L14.9995 12.2414ZM8.5667 9.55782L5.4417 6.43282C5.38366 6.37471 5.31473 6.32861 5.23885 6.29715C5.16298 6.2657 5.08165 6.24951 4.99952 6.24951C4.91738 6.24951 4.83605 6.2657 4.76018 6.29715C4.6843 6.32861 4.61537 6.37471 4.55733 6.43282L1.43233 9.55782C1.37422 9.61586 1.32812 9.68479 1.29667 9.76067C1.26521 9.83654 1.24902 9.91787 1.24902 10C1.24902 10.0821 1.26521 10.1635 1.29667 10.2393C1.32812 10.3152 1.37422 10.3841 1.43233 10.4422L4.55733 13.5672C4.61537 13.6253 4.6843 13.6714 4.76018 13.7029C4.83605 13.7343 4.91738 13.7505 4.99952 13.7505C5.08165 13.7505 5.16298 13.7343 5.23885 13.7029C5.31473 13.6714 5.38366 13.6253 5.4417 13.5672L8.5667 10.4422C8.62481 10.3841 8.67091 10.3152 8.70236 10.2393C8.73382 10.1635 8.75001 10.0821 8.75001 10C8.75001 9.91787 8.73382 9.83654 8.70236 9.76067C8.67091 9.68479 8.62481 9.61586 8.5667 9.55782ZM4.99952 12.2414L2.75811 10L4.99952 7.7586L7.24092 10L4.99952 12.2414Z" fill="black"/>
</svg>
