<svg width="18" height="18" viewBox="0 0 18 18" fill="none" xmlns="http://www.w3.org/2000/svg">
<path d="M2.82235 3.29638C2.73051 3.37599 2.65695 3.47451 2.60671 3.58518C2.55646 3.69586 2.53073 3.81609 2.53126 3.93763V15.7501C2.53126 15.9739 2.62015 16.1885 2.77839 16.3468C2.93662 16.505 3.15123 16.5939 3.37501 16.5939C3.59878 16.5939 3.8134 16.505 3.97163 16.3468C4.12986 16.1885 4.21876 15.9739 4.21876 15.7501V12.7773C5.8247 11.5736 7.17891 12.1361 9.18845 13.1289C10.3296 13.6914 11.6311 14.3383 13.0416 14.3383C14.0766 14.3383 15.1706 13.9909 16.3027 13.0108C16.3938 12.9318 16.4669 12.8342 16.5171 12.7245C16.5674 12.6149 16.5935 12.4957 16.5938 12.3751V3.93763C16.5938 3.77585 16.5473 3.61747 16.4599 3.48137C16.3724 3.34526 16.2477 3.23717 16.1005 3.16996C15.9534 3.10275 15.79 3.07927 15.6299 3.10231C15.4697 3.12534 15.3196 3.19393 15.1974 3.2999C13.4599 4.80529 12.0663 4.23576 9.93657 3.18177C7.95868 2.1988 5.49634 0.980287 2.82235 3.29638ZM14.9063 11.9715C13.3003 13.176 11.9461 12.6121 9.93657 11.62C8.30813 10.8114 6.35134 9.84388 4.21876 10.8191V4.33771C5.8247 3.13396 7.17891 3.69646 9.18845 4.68927C10.3296 5.25177 11.6311 5.89865 13.0416 5.89865C13.6854 5.89961 14.3218 5.7602 14.9063 5.49013V11.9715Z" fill="#007BFF"/>
</svg>
