<svg width="16" height="16" viewBox="0 0 16 16" fill="none" xmlns="http://www.w3.org/2000/svg">
<g clip-path="url(#clip0_370_4401)">
<path d="M7.4694 6.78065C7.53908 6.85057 7.62187 6.90605 7.71304 6.9439C7.8042 6.98176 7.90194 7.00124 8.00065 7.00124C8.09936 7.00124 8.1971 6.98176 8.28826 6.9439C8.37943 6.90605 8.46222 6.85057 8.5319 6.78065L10.9069 4.40565C10.9768 4.33597 11.0323 4.25318 11.0702 4.16201C11.108 4.07085 11.1275 3.97311 11.1275 3.8744C11.1275 3.77569 11.108 3.67795 11.0702 3.58679C11.0323 3.49562 10.9768 3.41283 10.9069 3.34315L8.5319 0.96815C8.46222 0.89823 8.37943 0.842752 8.28826 0.804898C8.1971 0.767044 8.09936 0.747559 8.00065 0.747559C7.90194 0.747559 7.8042 0.767044 7.71304 0.804898C7.62187 0.842752 7.53908 0.89823 7.4694 0.96815L5.0944 3.34315C5.02448 3.41283 4.969 3.49562 4.93115 3.58679C4.89329 3.67795 4.87381 3.77569 4.87381 3.8744C4.87381 3.97311 4.89329 4.07085 4.93115 4.16201C4.969 4.25318 5.02448 4.33597 5.0944 4.40565L7.4694 6.78065ZM8.00002 2.56253L9.31252 3.87503L8.00002 5.18753L6.68752 3.87503L8.00002 2.56253ZM8.53065 9.22128C8.46097 9.15136 8.37818 9.09588 8.28701 9.05802C8.19585 9.02017 8.09811 9.00068 7.9994 9.00068C7.90069 9.00068 7.80295 9.02017 7.71179 9.05802C7.62062 9.09588 7.53783 9.15136 7.46815 9.22128L5.09315 11.5963C5.02323 11.666 4.96775 11.7487 4.9299 11.8399C4.89204 11.9311 4.87256 12.0288 4.87256 12.1275C4.87256 12.2262 4.89204 12.324 4.9299 12.4151C4.96775 12.5063 5.02323 12.5891 5.09315 12.6588L7.46815 15.0338C7.53783 15.1037 7.62062 15.1592 7.71179 15.197C7.80295 15.2349 7.90069 15.2544 7.9994 15.2544C8.09811 15.2544 8.19585 15.2349 8.28701 15.197C8.37818 15.1592 8.46097 15.1037 8.53065 15.0338L10.9056 12.6588C10.9756 12.5891 11.031 12.5063 11.0689 12.4151C11.1068 12.324 11.1262 12.2262 11.1262 12.1275C11.1262 12.0288 11.1068 11.9311 11.0689 11.8399C11.031 11.7487 10.9756 11.666 10.9056 11.5963L8.53065 9.22128ZM8.00002 13.4375L6.68752 12.125L8.00002 10.8125L9.31252 12.125L8.00002 13.4375ZM6.78065 7.46753L4.40565 5.09253C4.33597 5.02261 4.25318 4.96713 4.16201 4.92927C4.07085 4.89142 3.97311 4.87193 3.8744 4.87193C3.77569 4.87193 3.67795 4.89142 3.58679 4.92927C3.49562 4.96713 3.41283 5.02261 3.34315 5.09253L0.96815 7.46753C0.89823 7.5372 0.842752 7.62 0.804898 7.71116C0.767044 7.80233 0.747559 7.90007 0.747559 7.99878C0.747559 8.09749 0.767044 8.19523 0.804898 8.28639C0.842752 8.37755 0.89823 8.46035 0.96815 8.53003L3.34315 10.905C3.41283 10.9749 3.49562 11.0304 3.58679 11.0683C3.67795 11.1061 3.77569 11.1256 3.8744 11.1256C3.97311 11.1256 4.07085 11.1061 4.16201 11.0683C4.25318 11.0304 4.33597 10.9749 4.40565 10.905L6.78065 8.53003C6.92129 8.38937 7.0003 8.19862 7.0003 7.99971C7.0003 7.80081 6.92129 7.61005 6.78065 7.4694V7.46753ZM3.87502 9.31253L2.56252 8.00003L3.87502 6.68753L5.18752 8.00003L3.87502 9.31253ZM15.0306 7.46753L12.6556 5.09253C12.586 5.02261 12.5032 4.96713 12.412 4.92927C12.3208 4.89142 12.2231 4.87193 12.1244 4.87193C12.0257 4.87193 11.9279 4.89142 11.8368 4.92927C11.7456 4.96713 11.6628 5.02261 11.5931 5.09253L9.21815 7.46753C9.14823 7.5372 9.09275 7.62 9.0549 7.71116C9.01704 7.80233 8.99756 7.90007 8.99756 7.99878C8.99756 8.09749 9.01704 8.19523 9.0549 8.28639C9.09275 8.37755 9.14823 8.46035 9.21815 8.53003L11.5931 10.905C11.6628 10.9749 11.7456 11.0304 11.8368 11.0683C11.9279 11.1061 12.0257 11.1256 12.1244 11.1256C12.2231 11.1256 12.3208 11.1061 12.412 11.0683C12.5032 11.0304 12.586 10.9749 12.6556 10.905L15.0306 8.53003C15.1713 8.38937 15.2503 8.19862 15.2503 7.99971C15.2503 7.80081 15.1713 7.61005 15.0306 7.4694V7.46753ZM12.125 9.31253L10.8125 8.00003L12.125 6.68753L13.4375 8.00003L12.125 9.31253Z" fill="#424242"/>
</g>
<defs>
<clipPath id="clip0_370_4401">
<rect width="16" height="16" fill="white"/>
</clipPath>
</defs>
</svg>
