<svg width="16" height="16" viewBox="0 0 16 16" fill="none" xmlns="http://www.w3.org/2000/svg">
<path d="M14.9189 6.40392L3.92579 2.32579L3.91017 2.32017C3.68851 2.24348 3.44975 2.2307 3.22117 2.2833C2.9926 2.33589 2.78343 2.45173 2.61758 2.61758C2.45173 2.78343 2.33589 2.9926 2.2833 3.22117C2.2307 3.44975 2.24348 3.68851 2.32017 3.91017L2.32579 3.92579L6.40392 14.9189C6.49037 15.1621 6.64997 15.3725 6.86079 15.5214C7.07162 15.6702 7.32335 15.7501 7.58142 15.7502H7.60329C7.86692 15.7456 8.12235 15.6578 8.33305 15.4993C8.54375 15.3408 8.69894 15.1197 8.77642 14.8677L8.78204 14.8495L10.1089 10.1089L14.8495 8.78204L14.8677 8.77642C15.1197 8.69977 15.341 8.54547 15.5001 8.33555C15.6592 8.12564 15.7479 7.87082 15.7536 7.60748C15.7593 7.34415 15.6817 7.08574 15.5318 6.86916C15.3819 6.65257 15.1674 6.48887 14.9189 6.40142V6.40392ZM9.29829 8.77892C9.17426 8.81365 9.06126 8.87973 8.97019 8.97081C8.87911 9.06189 8.81302 9.17489 8.77829 9.29892L7.54829 13.692L3.92517 3.92517L13.6914 7.55017L9.29829 8.77892Z" fill="#424242"/>
</svg>
