<svg width="18" height="18" viewBox="0 0 18 18" fill="none" xmlns="http://www.w3.org/2000/svg">
<path d="M8.55782 7.56719C8.61586 7.6253 8.68479 7.6714 8.76067 7.70285C8.83654 7.73431 8.91787 7.7505 9 7.7505C9.08214 7.7505 9.16347 7.73431 9.23934 7.70285C9.31522 7.6714 9.38415 7.6253 9.44219 7.56719L12.5672 4.44219C12.6253 4.38415 12.6714 4.31522 12.7029 4.23934C12.7343 4.16347 12.7505 4.08214 12.7505 4C12.7505 3.91787 12.7343 3.83654 12.7029 3.76067C12.6714 3.68479 12.6253 3.61586 12.5672 3.55782L9.44219 0.432816C9.38415 0.374706 9.31522 0.328606 9.23934 0.297153C9.16347 0.265701 9.08214 0.249512 9 0.249512C8.91787 0.249512 8.83654 0.265701 8.76067 0.297153C8.68479 0.328606 8.61586 0.374706 8.55782 0.432816L5.43282 3.55782C5.37471 3.61586 5.32861 3.68479 5.29715 3.76067C5.2657 3.83654 5.24951 3.91787 5.24951 4C5.24951 4.08214 5.2657 4.16347 5.29715 4.23934C5.32861 4.31522 5.37471 4.38415 5.43282 4.44219L8.55782 7.56719ZM9 1.7586L11.2414 4L9 6.24141L6.7586 4L9 1.7586ZM9.44219 10.4305C9.38415 10.3724 9.31522 10.3263 9.23934 10.2948C9.16347 10.2634 9.08214 10.2472 9 10.2472C8.91787 10.2472 8.83654 10.2634 8.76067 10.2948C8.68479 10.3263 8.61586 10.3724 8.55782 10.4305L5.43282 13.5555C5.37471 13.6135 5.32861 13.6824 5.29715 13.7583C5.2657 13.8342 5.24951 13.9155 5.24951 13.9977C5.24951 14.0798 5.2657 14.1611 5.29715 14.237C5.32861 14.3129 5.37471 14.3818 5.43282 14.4398L8.55782 17.5648C8.61586 17.623 8.68479 17.6691 8.76067 17.7005C8.83654 17.732 8.91787 17.7482 9 17.7482C9.08214 17.7482 9.16347 17.732 9.23934 17.7005C9.31522 17.6691 9.38415 17.623 9.44219 17.5648L12.5672 14.4398C12.6253 14.3818 12.6714 14.3129 12.7029 14.237C12.7343 14.1611 12.7505 14.0798 12.7505 13.9977C12.7505 13.9155 12.7343 13.8342 12.7029 13.7583C12.6714 13.6824 12.6253 13.6135 12.5672 13.5555L9.44219 10.4305ZM9 16.2414L6.7586 14L9 11.7586L11.2414 14L9 16.2414ZM17.5672 8.55782L14.4422 5.43282C14.3841 5.37471 14.3152 5.32861 14.2393 5.29715C14.1635 5.2657 14.0821 5.24951 14 5.24951C13.9179 5.24951 13.8365 5.2657 13.7607 5.29715C13.6848 5.32861 13.6159 5.37471 13.5578 5.43282L10.4328 8.55782C10.3747 8.61586 10.3286 8.68479 10.2972 8.76067C10.2657 8.83654 10.2495 8.91787 10.2495 9C10.2495 9.08214 10.2657 9.16347 10.2972 9.23934C10.3286 9.31522 10.3747 9.38415 10.4328 9.44219L13.5578 12.5672C13.6159 12.6253 13.6848 12.6714 13.7607 12.7029C13.8365 12.7343 13.9179 12.7505 14 12.7505C14.0821 12.7505 14.1635 12.7343 14.2393 12.7029C14.3152 12.6714 14.3841 12.6253 14.4422 12.5672L17.5672 9.44219C17.6253 9.38415 17.6714 9.31522 17.7029 9.23934C17.7343 9.16347 17.7505 9.08214 17.7505 9C17.7505 8.91787 17.7343 8.83654 17.7029 8.76067C17.6714 8.68479 17.6253 8.61586 17.5672 8.55782ZM14 11.2414L11.7586 9L14 6.7586L16.2414 9L14 11.2414ZM7.56719 8.55782L4.44219 5.43282C4.38415 5.37471 4.31522 5.32861 4.23934 5.29715C4.16347 5.2657 4.08214 5.24951 4 5.24951C3.91787 5.24951 3.83654 5.2657 3.76067 5.29715C3.68479 5.32861 3.61586 5.37471 3.55782 5.43282L0.432816 8.55782C0.374706 8.61586 0.328606 8.68479 0.297153 8.76067C0.265701 8.83654 0.249512 8.91787 0.249512 9C0.249512 9.08214 0.265701 9.16347 0.297153 9.23934C0.328606 9.31522 0.374706 9.38415 0.432816 9.44219L3.55782 12.5672C3.61586 12.6253 3.68479 12.6714 3.76067 12.7029C3.83654 12.7343 3.91787 12.7505 4 12.7505C4.08214 12.7505 4.16347 12.7343 4.23934 12.7029C4.31522 12.6714 4.38415 12.6253 4.44219 12.5672L7.56719 9.44219C7.6253 9.38415 7.6714 9.31522 7.70285 9.23934C7.73431 9.16347 7.75049 9.08214 7.75049 9C7.75049 8.91787 7.73431 8.83654 7.70285 8.76067C7.6714 8.68479 7.6253 8.61586 7.56719 8.55782ZM4 11.2414L1.7586 9L4 6.7586L6.24141 9L4 11.2414Z" fill="#007BFF"/>
</svg>
