<svg width="24" height="24" viewBox="0 0 24 24" fill="none" xmlns="http://www.w3.org/2000/svg">
<path d="M11.4695 10.2807C11.5391 10.3505 11.6218 10.4058 11.7129 10.4435C11.8039 10.4813 11.9015 10.5007 12.0001 10.5007C12.0987 10.5007 12.1963 10.4813 12.2873 10.4435C12.3784 10.4058 12.4611 10.3505 12.5307 10.2807L16.2807 6.53073C16.3505 6.46107 16.4058 6.37836 16.4435 6.28731C16.4813 6.19626 16.5007 6.09866 16.5007 6.0001C16.5007 5.90154 16.4813 5.80395 16.4435 5.7129C16.4058 5.62185 16.3505 5.53913 16.2807 5.46948L12.5307 1.71948C12.4611 1.64974 12.3784 1.59443 12.2873 1.55668C12.1963 1.51894 12.0987 1.49951 12.0001 1.49951C11.9015 1.49951 11.8039 1.51894 11.7129 1.55668C11.6218 1.59443 11.5391 1.64974 11.4695 1.71948L7.71948 5.46948C7.64974 5.53913 7.59443 5.62185 7.55668 5.7129C7.51894 5.80395 7.49951 5.90154 7.49951 6.0001C7.49951 6.09866 7.51894 6.19626 7.55668 6.28731C7.59443 6.37836 7.64974 6.46107 7.71948 6.53073L11.4695 10.2807ZM12.0001 3.31041L14.6898 6.0001L12.0001 8.68979L9.31041 6.0001L12.0001 3.31041ZM12.5307 13.7167C12.4611 13.6469 12.3784 13.5916 12.2873 13.5539C12.1963 13.5161 12.0987 13.4967 12.0001 13.4967C11.9015 13.4967 11.8039 13.5161 11.7129 13.5539C11.6218 13.5916 11.5391 13.6469 11.4695 13.7167L7.71948 17.4667C7.64974 17.5363 7.59443 17.619 7.55668 17.7101C7.51894 17.8011 7.49951 17.8987 7.49951 17.9973C7.49951 18.0959 7.51894 18.1934 7.55668 18.2845C7.59443 18.3755 7.64974 18.4583 7.71948 18.5279L11.4695 22.2779C11.5391 22.3476 11.6218 22.403 11.7129 22.4407C11.8039 22.4785 11.9015 22.4979 12.0001 22.4979C12.0987 22.4979 12.1963 22.4785 12.2873 22.4407C12.3784 22.403 12.4611 22.3476 12.5307 22.2779L16.2807 18.5279C16.3505 18.4583 16.4058 18.3755 16.4435 18.2845C16.4813 18.1934 16.5007 18.0959 16.5007 17.9973C16.5007 17.8987 16.4813 17.8011 16.4435 17.7101C16.4058 17.619 16.3505 17.5363 16.2807 17.4667L12.5307 13.7167ZM12.0001 20.6898L9.31041 18.0001L12.0001 15.3104L14.6898 18.0001L12.0001 20.6898ZM22.2807 11.4695L18.5307 7.71948C18.4611 7.64974 18.3784 7.59443 18.2873 7.55668C18.1963 7.51894 18.0987 7.49951 18.0001 7.49951C17.9015 7.49951 17.8039 7.51894 17.7129 7.55668C17.6218 7.59443 17.5391 7.64974 17.4695 7.71948L13.7195 11.4695C13.6497 11.5391 13.5944 11.6218 13.5567 11.7129C13.5189 11.8039 13.4995 11.9015 13.4995 12.0001C13.4995 12.0987 13.5189 12.1963 13.5567 12.2873C13.5944 12.3784 13.6497 12.4611 13.7195 12.5307L17.4695 16.2807C17.5391 16.3505 17.6218 16.4058 17.7129 16.4435C17.8039 16.4813 17.9015 16.5007 18.0001 16.5007C18.0987 16.5007 18.1963 16.4813 18.2873 16.4435C18.3784 16.4058 18.4611 16.3505 18.5307 16.2807L22.2807 12.5307C22.3505 12.4611 22.4058 12.3784 22.4435 12.2873C22.4813 12.1963 22.5007 12.0987 22.5007 12.0001C22.5007 11.9015 22.4813 11.8039 22.4435 11.7129C22.4058 11.6218 22.3505 11.5391 22.2807 11.4695ZM18.0001 14.6898L15.3104 12.0001L18.0001 9.31041L20.6898 12.0001L18.0001 14.6898ZM10.2807 11.4695L6.53073 7.71948C6.46107 7.64974 6.37836 7.59443 6.28731 7.55668C6.19626 7.51894 6.09866 7.49951 6.0001 7.49951C5.90154 7.49951 5.80395 7.51894 5.7129 7.55668C5.62185 7.59443 5.53913 7.64974 5.46948 7.71948L1.71948 11.4695C1.64974 11.5391 1.59443 11.6218 1.55668 11.7129C1.51894 11.8039 1.49951 11.9015 1.49951 12.0001C1.49951 12.0987 1.51894 12.1963 1.55668 12.2873C1.59443 12.3784 1.64974 12.4611 1.71948 12.5307L5.46948 16.2807C5.53913 16.3505 5.62185 16.4058 5.7129 16.4435C5.80395 16.4813 5.90154 16.5007 6.0001 16.5007C6.09866 16.5007 6.19626 16.4813 6.28731 16.4435C6.37836 16.4058 6.46107 16.3505 6.53073 16.2807L10.2807 12.5307C10.3505 12.4611 10.4058 12.3784 10.4435 12.2873C10.4813 12.1963 10.5007 12.0987 10.5007 12.0001C10.5007 11.9015 10.4813 11.8039 10.4435 11.7129C10.4058 11.6218 10.3505 11.5391 10.2807 11.4695ZM6.0001 14.6898L3.31041 12.0001L6.0001 9.31041L8.68979 12.0001L6.0001 14.6898Z" fill="white"/>
</svg>
