<svg width="23" height="21" viewBox="0 0 23 21" fill="none" xmlns="http://www.w3.org/2000/svg">
<g clip-path="url(#clip0_529_9972)">
<path fill-rule="evenodd" clip-rule="evenodd" d="M12.2552 11.9965L11.976 10.7178C13.1729 10.9411 15.0938 13.3795 15.7155 14.487C16.0504 15.0897 16.3253 15.7237 16.5364 16.38C16.9887 18.0664 16.5531 19.6449 14.7234 20.0116C13.5787 20.2424 11.44 20.2573 10.2357 20.1977C8.93271 20.1307 6.9336 20.1326 6.41056 18.8017C5.5655 16.6444 7.11416 14.0868 8.52693 12.5214C8.70875 12.3195 8.90072 12.1269 9.10209 11.9444C9.61583 11.494 10.1705 10.9579 10.8313 10.7345L10.1929 11.9239L11.1235 10.6936H11.6112L12.2571 11.9965H12.2552ZM5.21184 16.2404C5.1973 16.2118 5.1805 16.1845 5.16158 16.1585C5.07782 16.0208 4.9922 15.8831 4.90844 15.7267C4.82468 15.5703 4.73533 15.3991 4.65343 15.2632C4.57153 15.1273 4.50825 14.9356 4.44496 14.7662C4.38167 14.5969 4.32956 14.4517 4.25882 14.2525C4.2178 14.117 4.13511 13.9978 4.02251 13.9119C3.9099 13.8261 3.77311 13.7778 3.63154 13.7741H1.80927C1.75197 13.7759 1.69493 13.7657 1.64175 13.7444C1.59408 13.7216 1.55162 13.6893 1.51703 13.6494C1.47949 13.6127 1.44751 13.5707 1.4221 13.5247C1.39878 13.4714 1.38796 13.4135 1.39046 13.3553V11.0658C1.38999 11.0123 1.39752 10.959 1.4128 10.9076C1.43916 10.8527 1.47509 10.8029 1.5189 10.7606C1.55283 10.7223 1.59566 10.6929 1.64361 10.675C1.6974 10.6534 1.75508 10.6433 1.81299 10.6452H3.48822C3.64784 10.6446 3.80231 10.5886 3.92522 10.4868C4.04813 10.3849 4.13183 10.2435 4.16203 10.0868C4.20298 9.90063 4.24579 9.7387 4.28674 9.58979C4.32769 9.44088 4.39284 9.26405 4.45613 9.09466C4.51294 8.92984 4.57881 8.76827 4.65343 8.61071C4.72789 8.44318 4.81351 8.29614 4.8861 8.14909C4.95591 8.02144 4.9824 7.87458 4.96159 7.73058C4.94078 7.58658 4.87379 7.45323 4.7707 7.35056L3.46774 6.03272C3.45844 6.03272 3.45844 6.03272 3.44541 6.03272C3.40741 5.99684 3.37592 5.95464 3.35234 5.90801C3.33234 5.86174 3.32464 5.81108 3.33 5.76096C3.32765 5.70644 3.33851 5.65216 3.36165 5.60274C3.385 5.54609 3.42134 5.49572 3.46774 5.4557L5.07782 3.85492C5.11889 3.80967 5.16898 3.77353 5.22487 3.74882C5.27451 3.72635 5.32863 3.71553 5.38309 3.71718C5.43751 3.71604 5.49151 3.72684 5.5413 3.74882C5.59163 3.77354 5.63804 3.80553 5.67904 3.84375H5.68835L6.88707 5.02572C6.99945 5.13744 7.14752 5.2061 7.30539 5.21971C7.46327 5.23332 7.6209 5.19101 7.75074 5.10018C7.88848 5.01641 8.02436 4.93265 8.18072 4.84889L8.65537 4.60505C8.81358 4.5306 8.98297 4.458 9.15049 4.39658C9.31801 4.33515 9.46692 4.28118 9.66609 4.21044C9.80089 4.16572 9.91812 4.07953 10.001 3.96421C10.0839 3.84888 10.1283 3.7103 10.1277 3.56827V1.74786C10.1254 1.68974 10.1362 1.63184 10.1593 1.57847C10.1829 1.53537 10.209 1.49372 10.2375 1.45376C10.2723 1.41599 10.3157 1.38724 10.3641 1.37C10.4167 1.34664 10.4741 1.33581 10.5316 1.33836H12.3353C12.3928 1.33627 12.45 1.34708 12.5028 1.37C12.551 1.38642 12.5941 1.41532 12.6275 1.45376C12.6592 1.4931 12.6878 1.53479 12.7131 1.57847C12.7349 1.63221 12.745 1.68993 12.7429 1.74786V3.56827C12.7436 3.7118 12.7897 3.85143 12.8746 3.96713C12.9596 4.08283 13.079 4.16866 13.2157 4.2123C13.4149 4.27373 13.588 4.33702 13.7294 4.38913C13.8709 4.44125 14.0664 4.52688 14.2264 4.59947C14.3865 4.67206 14.5317 4.75768 14.6992 4.84145C14.8667 4.92521 14.9933 5.01083 15.1311 5.09459C15.2606 5.18614 15.4184 5.22889 15.5765 5.21526C15.7346 5.20163 15.8827 5.13251 15.9947 5.02014L17.1841 3.83072C17.2239 3.79143 17.2706 3.75987 17.3219 3.73766C17.3712 3.71408 17.4255 3.70321 17.4801 3.70601C17.5346 3.70381 17.5888 3.71466 17.6383 3.73766C17.6946 3.7617 17.7448 3.79794 17.7854 3.84375L19.3954 5.44453C19.4407 5.48559 19.4768 5.53569 19.5015 5.59158C19.5253 5.6408 19.5361 5.69523 19.5332 5.74979C19.5384 5.79991 19.5307 5.85052 19.5108 5.89684C19.4864 5.94296 19.455 5.98502 19.4178 6.02155C19.4066 6.02155 19.4066 6.02155 19.3954 6.02155L18.0925 7.33753C17.989 7.44033 17.9217 7.57403 17.9009 7.71842C17.8801 7.86282 17.9068 8.01007 17.9771 8.13792C18.0515 8.28311 18.1372 8.43016 18.2079 8.59954C18.2905 8.75962 18.3638 8.92431 18.4275 9.0928C18.489 9.26032 18.5429 9.41854 18.5951 9.58792C18.6472 9.75731 18.6807 9.90249 18.7216 10.083C18.7515 10.24 18.8351 10.3815 18.9581 10.4835C19.0811 10.5854 19.2357 10.6412 19.3954 10.6415H21.0707C21.1288 10.6393 21.1866 10.6501 21.2401 10.6731C21.2886 10.6888 21.3318 10.7179 21.3648 10.7569C21.4068 10.8007 21.4425 10.8502 21.4709 10.9039C21.4838 10.9563 21.4907 11.01 21.4913 11.064V13.359C21.4931 13.417 21.4829 13.4746 21.4616 13.5284C21.4365 13.5746 21.4044 13.6167 21.3666 13.6531C21.3326 13.6932 21.29 13.725 21.2419 13.7462C21.1885 13.7694 21.1306 13.7802 21.0725 13.7779H19.2521C19.1078 13.775 18.9662 13.8182 18.8481 13.9012C18.7299 13.9842 18.6413 14.1027 18.5951 14.2395C18.5336 14.4405 18.4703 14.6117 18.4089 14.7551C18.3475 14.8984 18.2712 15.092 18.1986 15.2502C18.0404 15.5629 17.8896 15.8589 17.7035 16.1548C17.6848 16.1827 17.6681 16.2088 17.6532 16.2367H19.2465C19.3135 16.1027 19.3805 15.9575 19.4513 15.8086C19.535 15.6225 19.6188 15.4363 19.6933 15.2409C19.7026 15.2092 19.7249 15.1664 19.7361 15.1348H21.0856C21.3191 15.1369 21.5509 15.0946 21.7687 15.0101C21.9855 14.92 22.1823 14.7878 22.3476 14.6211C22.5179 14.4577 22.6512 14.2596 22.7384 14.0403C22.8218 13.8223 22.8641 13.5906 22.8632 13.3572V11.064C22.861 10.8326 22.8142 10.6038 22.7254 10.3902C22.6416 10.1768 22.5149 9.98299 22.3531 9.82059C22.1946 9.65521 22.0048 9.52297 21.7947 9.43157C21.5794 9.33752 21.3465 9.29056 21.1116 9.29383H19.9632C19.9617 9.26487 19.9547 9.23645 19.9427 9.21007C19.8794 9.0109 19.8161 8.80987 19.7417 8.62002C19.6672 8.43016 19.5834 8.23099 19.4997 8.06161C19.4835 8.03501 19.4697 8.00697 19.4587 7.97784L20.4062 7.01924C20.5784 6.8643 20.715 6.67377 20.8064 6.46083C20.8946 6.24381 20.9407 6.01198 20.9422 5.77771C20.9453 5.543 20.899 5.31026 20.8064 5.09459C20.7125 4.88267 20.58 4.69013 20.4155 4.52688L18.8054 2.9261C18.6389 2.75954 18.4416 2.6268 18.2246 2.53522C18.0081 2.44551 17.7759 2.39933 17.5415 2.39933C17.3071 2.39933 17.075 2.44551 16.8584 2.53522C16.6395 2.62316 16.4415 2.75636 16.2777 2.9261L15.4345 3.72277L15.3712 3.69112C15.2018 3.59619 15.0119 3.50499 14.8128 3.41564C14.6136 3.3263 14.4405 3.24812 14.2543 3.17366C14.2227 3.16436 14.1799 3.14202 14.1483 3.12899V1.77764C14.1504 1.54408 14.1081 1.31225 14.0235 1.09452C13.9333 0.877368 13.8003 0.680526 13.6327 0.515636C13.4638 0.348379 13.2641 0.215611 13.0445 0.124749C12.8259 0.0408502 12.5936 -0.00144695 12.3595 3.77727e-05H10.5149C10.2814 -0.00125864 10.0497 0.0410361 9.83175 0.124749C9.61538 0.217497 9.41838 0.350095 9.251 0.515636C9.08387 0.680599 8.95158 0.877455 8.86198 1.09452C8.7761 1.31193 8.73312 1.5439 8.7354 1.77764V3.12527C8.70376 3.13644 8.66095 3.15691 8.62931 3.16994C8.44317 3.2444 8.25703 3.32816 8.0709 3.41192C7.88476 3.49568 7.68187 3.59805 7.51249 3.6874L7.44548 3.72277L6.62462 2.91121C6.46072 2.74147 6.26282 2.60827 6.04387 2.52032C5.82754 2.42981 5.59525 2.3836 5.36075 2.38445C5.12604 2.38138 4.8933 2.42767 4.67763 2.52032C4.46016 2.61038 4.26228 2.74187 4.09502 2.90749L2.48494 4.50826H2.47564C2.31236 4.67214 2.18051 4.86456 2.08661 5.07598C1.99326 5.29084 1.94632 5.52299 1.94887 5.75724C1.95013 5.99171 1.99691 6.22371 2.08661 6.44036C2.17874 6.65238 2.31446 6.84264 2.48494 6.99877L3.43424 7.95551C3.42242 7.98489 3.40875 8.01349 3.39329 8.04113C3.30953 8.21796 3.23321 8.4134 3.14945 8.59954C3.06569 8.78568 3.01357 8.98856 2.95028 9.18959C2.93831 9.2161 2.93077 9.2444 2.92795 9.27335H1.77949C1.54415 9.27003 1.31075 9.31632 1.0945 9.40923C0.884965 9.50241 0.695365 9.63513 0.536095 9.80012H0.526788C0.366499 9.9594 0.239896 10.1493 0.154515 10.3585C0.0556899 10.5808 0.0031255 10.8208 2.1776e-05 11.064V13.3572C-0.0011008 13.5907 0.0411881 13.8223 0.124733 14.0403C0.211968 14.2596 0.345266 14.4577 0.51562 14.6211C0.680583 14.7882 0.877439 14.9205 1.0945 15.0101C1.31288 15.0946 1.54532 15.1369 1.77949 15.1348H3.12525C3.13642 15.1664 3.1569 15.2092 3.16993 15.2409C3.24438 15.427 3.32814 15.6132 3.4119 15.8086C3.4845 15.9612 3.54964 16.1046 3.61665 16.2367H5.21184V16.2404ZM11.6577 13.0128V13.3721C11.8673 13.3911 12.073 13.4406 12.2683 13.5191C12.4404 13.5941 12.5928 13.7082 12.7131 13.8523C12.807 13.9565 12.8854 14.0738 12.9458 14.2004C12.9965 14.3031 13.0251 14.4154 13.0296 14.5298C13.0301 14.5836 13.0197 14.637 12.9989 14.6866C12.9781 14.7362 12.9474 14.7811 12.9086 14.8184C12.8706 14.8579 12.8249 14.8892 12.7743 14.9103C12.7237 14.9315 12.6693 14.942 12.6145 14.9412C12.5128 14.9442 12.4135 14.9099 12.3353 14.8447C12.2571 14.7796 12.2055 14.6881 12.1901 14.5875C12.1598 14.4558 12.0949 14.3345 12.0019 14.2363C11.9089 14.1381 11.7914 14.0666 11.6615 14.0291V15.4121C11.9351 15.4884 12.1566 15.5573 12.3185 15.6187C12.4809 15.6797 12.63 15.7714 12.7578 15.8886C12.8942 16.0098 13.0028 16.159 13.0761 16.3261C13.1512 16.5026 13.1892 16.6927 13.1878 16.8845C13.1867 17.1334 13.1227 17.378 13.0017 17.5955C12.8791 17.8199 12.6976 18.0065 12.4767 18.1353C12.2261 18.2824 11.9441 18.3679 11.654 18.3847V18.824C11.6592 18.9206 11.6459 19.0172 11.6149 19.1088C11.6007 19.1402 11.5767 19.166 11.5465 19.1825C11.5162 19.1989 11.4815 19.2051 11.4474 19.2C11.4156 19.2033 11.3835 19.1984 11.3541 19.1857C11.3248 19.1729 11.2992 19.1529 11.2799 19.1274C11.2423 19.0579 11.2255 18.9791 11.2315 18.9003V18.3959C10.9961 18.373 10.7663 18.31 10.5521 18.2098C10.3709 18.1276 10.2067 18.012 10.0681 17.8691C9.9479 17.7425 9.85087 17.5957 9.78149 17.4354C9.72172 17.296 9.69009 17.146 9.68842 16.9943C9.68881 16.9406 9.70005 16.8875 9.72149 16.8382C9.74292 16.789 9.77409 16.7445 9.81314 16.7076C9.85312 16.6657 9.90143 16.6327 9.95497 16.6105C10.0085 16.5884 10.0661 16.5777 10.124 16.5792C10.2134 16.5762 10.3016 16.6002 10.3771 16.6481C10.4457 16.6959 10.4962 16.7654 10.5205 16.8454C10.5638 16.9872 10.6154 17.1265 10.6749 17.2623C10.7239 17.3633 10.7929 17.4533 10.8778 17.5266C10.9813 17.6149 11.1035 17.6786 11.2352 17.7128V16.1604C10.9789 16.0924 10.7296 16.0001 10.4907 15.8849C10.2925 15.786 10.1247 15.6356 10.0049 15.4494C9.85843 15.1885 9.79762 14.8883 9.83102 14.5911C9.86442 14.2938 9.99034 14.0146 10.191 13.7927C10.4804 13.53 10.8539 13.3789 11.2445 13.3665V13.0128C11.2445 12.8267 11.3153 12.7336 11.4549 12.7336C11.5945 12.7336 11.6671 12.8248 11.6671 13.0072L11.6577 13.0128ZM11.2352 15.2949V14.0217C11.0747 14.0614 10.9248 14.1358 10.7959 14.2395C10.6987 14.3523 10.6453 14.4963 10.6453 14.6453C10.6453 14.7942 10.6987 14.9382 10.7959 15.051C10.9283 15.1596 11.0798 15.2423 11.2427 15.2949H11.2352ZM11.6577 16.2833V17.7407C11.8557 17.7098 12.0381 17.615 12.1771 17.4708C12.2971 17.3427 12.3637 17.1736 12.3632 16.998C12.3677 16.9144 12.3533 16.8308 12.321 16.7534C12.2888 16.6761 12.2396 16.607 12.1771 16.5513C12.0235 16.4262 11.8453 16.3348 11.654 16.2833H11.6577ZM10.4423 8.88991C10.2319 8.26636 10.0402 7.63535 9.88387 6.99504C10.4832 6.33798 12.7969 6.42547 13.4633 6.99504L12.8434 8.45063C13.1748 8.01507 13.2864 7.83638 13.4837 7.5944C13.5661 7.65101 13.6445 7.7132 13.7183 7.78054C13.909 7.9215 14.0414 8.12744 14.0905 8.35942C14.1002 8.44731 14.0904 8.53625 14.0618 8.6199C14.0331 8.70355 13.9864 8.77985 13.9249 8.84338L12.5103 10.4907C12.3297 10.4614 12.1521 10.416 11.9798 10.3548C12.0598 10.1687 12.1659 9.9602 12.2366 9.77034L11.721 10.3287C11.26 10.2127 10.7723 10.2724 10.3529 10.4963L8.90851 8.76706C8.8329 8.68221 8.78943 8.57353 8.78566 8.45994C8.78566 8.04299 9.40736 7.68375 9.73123 7.54787L10.4423 8.88991Z" fill="#007BFF"/>
</g>
<defs>
<clipPath id="clip0_529_9972">
<rect width="22.8724" height="20.22" fill="white"/>
</clipPath>
</defs>
</svg>
