<svg width="20" height="20" viewBox="0 0 20 20" fill="none" xmlns="http://www.w3.org/2000/svg">
<path d="M16.6923 12.058L10.4423 5.80795C10.3842 5.74984 10.3153 5.70374 10.2394 5.67229C10.1636 5.64084 10.0822 5.62465 10.0001 5.62465C9.91797 5.62465 9.83664 5.64084 9.76077 5.67229C9.68489 5.70374 9.61596 5.74984 9.55792 5.80795L3.30792 12.058C3.19064 12.1752 3.12476 12.3343 3.12476 12.5001C3.12476 12.666 3.19064 12.8251 3.30792 12.9423C3.42519 13.0596 3.58425 13.1255 3.7501 13.1255C3.91596 13.1255 4.07502 13.0596 4.19229 12.9423L10.0001 7.13373L15.8079 12.9423C15.866 13.0004 15.9349 13.0465 16.0108 13.0779C16.0867 13.1093 16.168 13.1255 16.2501 13.1255C16.3322 13.1255 16.4135 13.1093 16.4894 13.0779C16.5653 13.0465 16.6342 13.0004 16.6923 12.9423C16.7504 12.8843 16.7964 12.8153 16.8278 12.7395C16.8593 12.6636 16.8755 12.5823 16.8755 12.5001C16.8755 12.418 16.8593 12.3367 16.8278 12.2608C16.7964 12.185 16.7504 12.116 16.6923 12.058Z" fill="white"/>
</svg>
