<svg width="40" height="40" viewBox="0 0 40 40" fill="none" xmlns="http://www.w3.org/2000/svg">
<circle opacity="0.2" cx="20" cy="20" r="20" fill="#18D3CC"/>
<circle cx="20" cy="20" r="12" fill="#18D3CC"/>
<path d="M19.0098 20.2799C19.0098 19.9614 19.268 19.7031 19.5866 19.7031C19.9051 19.7031 20.1634 19.9614 20.1634 20.2799V27.8608C20.1634 28.1793 19.9051 28.4376 19.5866 28.4376C19.268 28.4376 19.0098 28.1793 19.0098 27.8608V20.2799Z" fill="white"/>
<path d="M20.9872 19.2914C20.9872 20.0651 20.36 20.6922 19.5864 20.6922C18.8127 20.6922 18.1855 20.0651 18.1855 19.2914C18.1855 18.5178 18.8127 17.8906 19.5864 17.8906C20.36 17.8906 20.9872 18.5178 20.9872 19.2914Z" fill="white"/>
<path fill-rule="evenodd" clip-rule="evenodd" d="M19.7816 15.9956C19.2267 15.9902 18.6806 16.1311 18.1991 16.4035C17.7175 16.6759 17.318 17.0699 17.0407 17.5448C16.7635 18.0198 16.6184 18.5589 16.6199 19.1071C16.6214 19.6554 16.7694 20.1937 17.0492 20.6671C17.2112 20.9414 17.1203 21.2951 16.846 21.4571C16.5718 21.6192 16.2181 21.5282 16.056 21.254C15.672 20.6041 15.4684 19.8643 15.4663 19.1102C15.4643 18.3561 15.6639 17.6153 16.0444 16.9633L16.5426 17.2541L16.0444 16.9633C16.4249 16.3114 16.9726 15.7719 17.6311 15.3994C18.2895 15.0269 19.0354 14.8347 19.7927 14.842C20.55 14.8493 21.292 15.0559 21.943 15.441C22.5941 15.8261 23.1312 16.3761 23.4989 17.0353C23.8666 17.6945 24.0517 18.4391 24.0349 19.1929C24.0181 19.9468 23.8001 20.6825 23.4034 21.3249C23.2361 21.5959 22.8807 21.68 22.6096 21.5126C22.3386 21.3452 22.2545 20.9898 22.4219 20.7188C22.7109 20.2508 22.8694 19.7154 22.8816 19.1673C22.8938 18.6191 22.7593 18.0774 22.4914 17.5972C22.2236 17.1171 21.8318 16.7155 21.3558 16.4339C20.8796 16.1523 20.3364 16.0009 19.7816 15.9956Z" fill="white"/>
<path fill-rule="evenodd" clip-rule="evenodd" d="M22.8987 13.8917C21.8975 13.2966 20.7435 12.9977 19.5742 13.0311C18.4049 13.0646 17.2706 13.4291 16.3062 14.0803C15.3418 14.7316 14.5883 15.6419 14.1341 16.7022C13.68 17.7624 13.5441 18.9287 13.7421 20.0626C13.9401 21.1965 14.464 22.2513 15.2525 23.1012C15.4692 23.3347 15.4555 23.6997 15.222 23.9163C14.9884 24.133 14.6235 24.1193 14.4068 23.8858C13.4678 22.8736 12.8423 21.6156 12.6057 20.2611C12.3691 18.9065 12.5317 17.5135 13.0737 16.248C13.6157 14.9826 14.514 13.8986 15.6606 13.1243C16.8071 12.35 18.1541 11.9177 19.5412 11.878C20.9283 11.8383 22.2982 12.1928 23.4881 12.9C24.6781 13.6072 25.6383 14.6378 26.2536 15.8699C26.8689 17.102 27.113 18.4833 26.9563 19.8492C26.7997 21.2151 26.249 22.507 25.3708 23.5714C25.1681 23.8171 24.8045 23.852 24.5588 23.6492C24.3131 23.4465 24.2782 23.0829 24.481 22.8372C25.2181 21.9439 25.6791 20.861 25.8102 19.7178C25.9414 18.5746 25.7372 17.4179 25.2215 16.3853C24.7058 15.3525 23.8999 14.4867 22.8987 13.8917Z" fill="white"/>
</svg>
