<svg width="40" height="40" viewBox="0 0 40 40" fill="none" xmlns="http://www.w3.org/2000/svg">
<circle opacity="0.2" cx="20" cy="20" r="20" fill="#18D3CC"/>
<circle cx="20" cy="20" r="12" fill="#18D3CC"/>
<path d="M28.75 26.2498H27.5V17.4998C27.5 17.1683 27.3683 16.8504 27.1339 16.616C26.8995 16.3815 26.5815 16.2498 26.25 16.2498H21.25V12.4998C21.2501 12.2735 21.1888 12.0513 21.0726 11.8571C20.9563 11.6629 20.7895 11.5039 20.59 11.397C20.3904 11.2902 20.1656 11.2395 19.9395 11.2505C19.7134 11.2614 19.4945 11.3336 19.3063 11.4592L13.0562 15.6248C12.8848 15.7392 12.7443 15.8942 12.6472 16.0761C12.5502 16.2579 12.4996 16.4609 12.5 16.667V26.2498H11.25C11.0842 26.2498 10.9253 26.3157 10.8081 26.4329C10.6908 26.5501 10.625 26.7091 10.625 26.8748C10.625 27.0406 10.6908 27.1996 10.8081 27.3168C10.9253 27.434 11.0842 27.4998 11.25 27.4998H28.75C28.9158 27.4998 29.0747 27.434 29.1919 27.3168C29.3092 27.1996 29.375 27.0406 29.375 26.8748C29.375 26.7091 29.3092 26.5501 29.1919 26.4329C29.0747 26.3157 28.9158 26.2498 28.75 26.2498ZM26.25 17.4998V26.2498H21.25V17.4998H26.25ZM13.75 16.667L20 12.4998V26.2498H13.75V16.667ZM18.75 18.7498V19.9998C18.75 20.1656 18.6842 20.3246 18.5669 20.4418C18.4497 20.559 18.2908 20.6248 18.125 20.6248C17.9592 20.6248 17.8003 20.559 17.6831 20.4418C17.5658 20.3246 17.5 20.1656 17.5 19.9998V18.7498C17.5 18.5841 17.5658 18.4251 17.6831 18.3079C17.8003 18.1907 17.9592 18.1248 18.125 18.1248C18.2908 18.1248 18.4497 18.1907 18.5669 18.3079C18.6842 18.4251 18.75 18.5841 18.75 18.7498ZM16.25 18.7498V19.9998C16.25 20.1656 16.1842 20.3246 16.0669 20.4418C15.9497 20.559 15.7908 20.6248 15.625 20.6248C15.4592 20.6248 15.3003 20.559 15.1831 20.4418C15.0658 20.3246 15 20.1656 15 19.9998V18.7498C15 18.5841 15.0658 18.4251 15.1831 18.3079C15.3003 18.1907 15.4592 18.1248 15.625 18.1248C15.7908 18.1248 15.9497 18.1907 16.0669 18.3079C16.1842 18.4251 16.25 18.5841 16.25 18.7498ZM16.25 23.1248V24.3748C16.25 24.5406 16.1842 24.6996 16.0669 24.8168C15.9497 24.934 15.7908 24.9998 15.625 24.9998C15.4592 24.9998 15.3003 24.934 15.1831 24.8168C15.0658 24.6996 15 24.5406 15 24.3748V23.1248C15 22.9591 15.0658 22.8001 15.1831 22.6829C15.3003 22.5657 15.4592 22.4998 15.625 22.4998C15.7908 22.4998 15.9497 22.5657 16.0669 22.6829C16.1842 22.8001 16.25 22.9591 16.25 23.1248ZM18.75 23.1248V24.3748C18.75 24.5406 18.6842 24.6996 18.5669 24.8168C18.4497 24.934 18.2908 24.9998 18.125 24.9998C17.9592 24.9998 17.8003 24.934 17.6831 24.8168C17.5658 24.6996 17.5 24.5406 17.5 24.3748V23.1248C17.5 22.9591 17.5658 22.8001 17.6831 22.6829C17.8003 22.5657 17.9592 22.4998 18.125 22.4998C18.2908 22.4998 18.4497 22.5657 18.5669 22.6829C18.6842 22.8001 18.75 22.9591 18.75 23.1248Z" fill="white"/>
</svg>
