<svg width="155" height="124" viewBox="0 0 155 124" fill="none" xmlns="http://www.w3.org/2000/svg">
<path fill-rule="evenodd" clip-rule="evenodd" d="M128.341 40.2998C130.738 40.2998 132.681 42.2429 132.681 44.6398C132.681 47.0367 130.738 48.9798 128.341 48.9798H103.541C105.938 48.9798 107.881 50.9229 107.881 53.3198C107.881 55.7167 105.938 57.6598 103.541 57.6598H117.181C119.578 57.6598 121.521 59.6029 121.521 61.9998C121.521 64.3967 119.578 66.3398 117.181 66.3398H110.873C107.851 66.3398 105.401 68.2829 105.401 70.6798C105.401 72.2777 106.641 73.7244 109.121 75.0198C111.518 75.0198 113.461 76.9629 113.461 79.3598C113.461 81.7567 111.518 83.6998 109.121 83.6998H57.6606C55.2637 83.6998 53.3206 81.7567 53.3206 79.3598C53.3206 76.9629 55.2637 75.0198 57.6606 75.0198H33.4806C31.0837 75.0198 29.1406 73.0767 29.1406 70.6798C29.1406 68.2829 31.0837 66.3398 33.4806 66.3398H58.2806C60.6775 66.3398 62.6206 64.3967 62.6206 61.9998C62.6206 59.6029 60.6775 57.6598 58.2806 57.6598H42.7806C40.3837 57.6598 38.4406 55.7167 38.4406 53.3198C38.4406 50.9229 40.3837 48.9798 42.7806 48.9798H67.5806C65.1837 48.9798 63.2406 47.0367 63.2406 44.6398C63.2406 42.2429 65.1837 40.2998 67.5806 40.2998H128.341ZM128.341 57.6598C130.738 57.6598 132.681 59.6029 132.681 61.9998C132.681 64.3967 130.738 66.3398 128.341 66.3398C125.944 66.3398 124.001 64.3967 124.001 61.9998C124.001 59.6029 125.944 57.6598 128.341 57.6598Z" fill="#F3F7FF"/>
<path d="M52.1892 75.5015H47.1202M49.2902 70.0596H38.6412H49.2902ZM35.0302 70.0596H32.4131H35.0302Z" stroke="#CCE5FF" stroke-width="2.5" stroke-linecap="round" stroke-linejoin="round"/>
<path d="M107.99 61.862H102.921M111.911 57.04H101.262H111.911ZM116.251 57.04H114.874H116.251Z" stroke="#CCE5FF" stroke-width="2.5" stroke-linecap="round" stroke-linejoin="round"/>
<path fill-rule="evenodd" clip-rule="evenodd" d="M91.8578 44.5044L97.5076 85.7107L98.0151 89.8447C98.1787 91.1765 97.2316 92.3887 95.8998 92.5522L60.3315 96.9194C58.9997 97.0829 57.7876 96.1359 57.624 94.8041L52.148 50.2057C52.0663 49.5398 52.5398 48.9337 53.2057 48.852C53.2099 48.8514 53.2141 48.8509 53.2183 48.8505L56.1692 48.5195M58.5554 48.2518L61.3414 47.9393L58.5554 48.2518Z" fill="white"/>
<path d="M93.0962 44.3346C93.0024 43.6506 92.3719 43.1722 91.688 43.266C91.004 43.3597 90.5256 43.9902 90.6194 44.6742L93.0962 44.3346ZM97.5076 85.7107L98.7482 85.5583C98.7475 85.5525 98.7468 85.5467 98.746 85.5409L97.5076 85.7107ZM98.0151 89.8447L99.2558 89.6924L98.0151 89.8447ZM95.8998 92.5522L96.0522 93.7929L95.8998 92.5522ZM60.3315 96.9194L60.4839 98.1601L60.3315 96.9194ZM57.624 94.8041L58.8647 94.6518L57.624 94.8041ZM53.2183 48.8505L53.3577 50.0927L53.2183 48.8505ZM56.3085 49.7617C56.9946 49.6847 57.4884 49.0662 57.4114 48.3801C57.3345 47.6941 56.7159 47.2003 56.0299 47.2773L56.3085 49.7617ZM58.416 47.0096C57.73 47.0866 57.2362 47.7051 57.3132 48.3912C57.3901 49.0772 58.0087 49.571 58.6947 49.494L58.416 47.0096ZM61.4808 49.1815C62.1668 49.1046 62.6606 48.486 62.5837 47.8C62.5067 47.1139 61.8882 46.6201 61.2021 46.6971L61.4808 49.1815ZM90.6194 44.6742L96.2691 85.8805L98.746 85.5409L93.0962 44.3346L90.6194 44.6742ZM96.2669 85.863L96.7745 89.997L99.2558 89.6924L98.7482 85.5583L96.2669 85.863ZM96.7745 89.997C96.8539 90.6436 96.3941 91.2321 95.7475 91.3115L96.0522 93.7929C98.0691 93.5452 99.5035 91.7093 99.2558 89.6924L96.7745 89.997ZM95.7475 91.3115L60.1792 95.6787L60.4839 98.1601L96.0522 93.7929L95.7475 91.3115ZM60.1792 95.6787C59.5326 95.7581 58.9441 95.2983 58.8647 94.6518L56.3834 94.9564C56.631 96.9734 58.4669 98.4078 60.4839 98.1601L60.1792 95.6787ZM58.8647 94.6518L53.3887 50.0534L50.9074 50.358L56.3834 94.9564L58.8647 94.6518ZM53.3887 50.0534C53.389 50.0559 53.389 50.0615 53.3872 50.0678C53.3857 50.0731 53.3835 50.0768 53.3815 50.0794C53.3795 50.0819 53.3765 50.0849 53.3716 50.0877C53.366 50.0909 53.3606 50.0923 53.358 50.0926L53.0534 47.6113C51.7023 47.7772 50.7415 49.0069 50.9074 50.358L53.3887 50.0534ZM53.358 50.0926L53.3577 50.0927L53.079 47.6083C53.0704 47.6092 53.0619 47.6102 53.0534 47.6113L53.358 50.0926ZM53.3577 50.0927L56.3085 49.7617L56.0299 47.2773L53.079 47.6083L53.3577 50.0927ZM58.6947 49.494L61.4808 49.1815L61.2021 46.6971L58.416 47.0096L58.6947 49.494Z" fill="#1F64E7"/>
<path fill-rule="evenodd" clip-rule="evenodd" d="M90.3205 47.0962L95.4343 84.4402L95.8943 88.1866C96.0425 89.3936 95.1958 90.4907 94.0032 90.6371L62.151 94.5481C60.9583 94.6945 59.8714 93.8348 59.7232 92.6279L54.8687 53.0915C54.7341 51.9952 55.5138 50.9973 56.6101 50.8627L59.7711 50.4746" fill="#E8F0FE"/>
<path d="M64.5605 40C64.5605 38.4812 65.7918 37.25 67.3105 37.25H92.7601C93.4891 37.25 94.1884 37.5395 94.704 38.0549L101.949 45.2953C102.465 45.811 102.755 46.5108 102.755 47.2404V83.0199C102.755 84.5387 101.524 85.7699 100.005 85.7699H67.3105C65.7918 85.7699 64.5605 84.5387 64.5605 83.0199V40Z" fill="white" stroke="#1F64E7" stroke-width="2.5"/>
<path d="M93.6797 37.459V44.5029C93.6797 45.5092 94.4955 46.325 95.5018 46.325H100.321" stroke="#1F64E7" stroke-width="2.5" stroke-linecap="round" stroke-linejoin="round"/>
<path d="M70.1914 77.3016H85.9833M70.1914 46.3252H85.9833H70.1914ZM70.1914 53.6138H96.3087H70.1914ZM70.1914 61.5097H96.3087H70.1914ZM70.1914 69.4056H96.3087H70.1914Z" stroke="#75A4FE" stroke-width="2.5" stroke-linecap="round" stroke-linejoin="round"/>
</svg>
